<?xml version="1.0" standalone="no"?>
<!DOCTYPE svg PUBLIC "-//W3C//DTD SVG 1.1//EN" "http://www.w3.org/Graphics/SVG/1.1/DTD/svg11.dtd" >
<svg>
<metadata>
Created by FontForge 20090622 at Fri Feb 15 12:34:03 2019
 By deploy user
Copyright 2010, 2014 Indian Type Foundry. All rights reserved.
</metadata>
<defs>
<font id="KohinoorDevanagari-Light" horiz-adv-x="0" >
  <font-face 
    font-family="Kohinoor Devanagari"
    font-weight="300"
    font-stretch="normal"
    units-per-em="1000"
    panose-1="2 0 0 0 0 0 0 0 0 0"
    ascent="800"
    descent="-200"
    x-height="539"
    cap-height="701"
    bbox="-480 -502 2032 1135"
    underline-thickness="50"
    underline-position="-150"
    unicode-range="U+0020-U+FB02"
  />
<missing-glyph horiz-adv-x="750" 
d="M180 0v701h390v-701h-390zM234 651v-601h282v601h-282z" />
    <glyph glyph-name="fi" unicode="fi" horiz-adv-x="583" 
d="M482 732l-19 -49q-56 28 -153 28q-68 0 -98.5 -24.5t-30.5 -77.5v-70h315v-539h-58v489h-257v-489h-58v489h-92v50h92v66q0 76 49 117t147 41q53 0 98.5 -10t64.5 -21z" />
    <glyph glyph-name="fl" unicode="fl" horiz-adv-x="625" 
d="M496 721v-605q0 -38 13.5 -55t45.5 -17q28 0 52 13v-52q-27 -12 -67 -12q-102 0 -102 107v592q-49 19 -127 19q-68 0 -99 -24.5t-31 -77.5v-70h135v-50h-135v-489h-58v489h-92v50h92v66q0 76 49 117t147 41q57 0 105 -13t72 -29z" />
    <glyph glyph-name="f_f" unicode="ff" horiz-adv-x="665" 
d="M438 539v93q0 34 10 57q-55 22 -138 22q-68 0 -98.5 -24.5t-30.5 -77.5v-70h257zM662 752l-14 -51q-29 10 -76 10q-76 0 -76 -77v-95h146v-50h-146v-489h-58v489h-257v-489h-58v489h-92v50h92v66q0 76 49 117t147 41q102 0 160 -29q38 30 102 30q47 0 81 -12z" />
    <glyph glyph-name="f_f_i" unicode="ffi" horiz-adv-x="898" 
d="M438 539v66q0 47 18 80q-57 26 -146 26q-68 0 -98.5 -24.5t-30.5 -77.5v-70h257zM797 732l-19 -49q-56 28 -153 28q-68 0 -98.5 -24.5t-30.5 -77.5v-70h315v-539h-58v489h-257v-489h-58v489h-257v-489h-58v489h-92v50h92v66q0 76 49 117t147 41q111 0 172 -38
q49 38 143 38q53 0 98.5 -10t64.5 -21z" />
    <glyph glyph-name="f_f_l" unicode="ffl" horiz-adv-x="940" 
d="M438 539v66q0 47 18 80q-57 26 -146 26q-68 0 -98.5 -24.5t-30.5 -77.5v-70h257zM811 721v-605q0 -38 13.5 -55t45.5 -17q28 0 52 13v-52q-27 -12 -67 -12q-102 0 -102 107v592q-49 19 -127 19q-68 0 -99 -24.5t-31 -77.5v-70h135v-50h-135v-489h-58v489h-257v-489h-58
v489h-92v50h92v66q0 76 49 117t147 41q111 0 172 -38q49 38 143 38q57 0 105 -13t72 -29z" />
    <glyph glyph-name=".notdef" horiz-adv-x="750" 
d="M180 0v701h390v-701h-390zM234 651v-601h282v601h-282z" />
    <glyph glyph-name=".null" 
 />
    <glyph glyph-name="nonmarkingreturn" horiz-adv-x="333" 
 />
    <glyph glyph-name="space" unicode=" " horiz-adv-x="290" 
 />
    <glyph glyph-name="exclam" unicode="!" horiz-adv-x="274" 
d="M157 237h-45l-18 464h80zM85 53q0 22 15 37.5t36 15.5q22 0 37.5 -15t15.5 -38q0 -21 -15.5 -36t-37.5 -15q-21 0 -36 15t-15 36z" />
    <glyph glyph-name="quotedbl" unicode="&#x22;" horiz-adv-x="302" 
d="M103 505h-43l-15 211h73zM242 505h-43l-15 211h73z" />
    <glyph glyph-name="numbersign" unicode="#" horiz-adv-x="662" 
d="M42 257h118l33 186h-112v52h121l35 193h55l-35 -193h214l35 193h55l-35 -193h94v-52h-103l-33 -186h97v-52h-106l-36 -205h-55l36 205h-214l-36 -205h-55l36 205h-109v52zM248 443l-33 -186h214l33 186h-214z" />
    <glyph glyph-name="dollar" unicode="$" horiz-adv-x="521" 
d="M285 -141h-59l1 143q-118 5 -195 67l39 52q70 -62 177 -62q83 0 121.5 33t38.5 87q0 48 -33 78t-97 58l-61 27q-68 30 -106 69.5t-38 106.5q0 69 48 114t121 55l-1 141h59l-1 -138q99 -5 157 -50l-42 -50q-22 20 -60.5 32t-76.5 12q-66 0 -104.5 -30t-38.5 -83
q0 -47 31 -76.5t92 -58.5l58 -27q37 -17 59 -30t47 -34t37 -49t12 -63q0 -66 -48 -117.5t-138 -61.5z" />
    <glyph glyph-name="percent" unicode="%" horiz-adv-x="814" 
d="M200 19l-43 32l473 627l43 -33zM764 183q0 -95 -41 -144t-106 -49q-66 0 -105 48t-39 143q0 92 41 141t107 49q65 0 104 -47.5t39 -140.5zM620 39q88 0 88 141q0 142 -92 142q-87 0 -87 -140q0 -143 91 -143zM197 366q88 0 88 141q0 142 -92 142q-87 0 -87 -140
q0 -143 91 -143zM341 510q0 -95 -41 -144t-106 -49q-66 0 -105 48t-39 143q0 92 41 141t107 49q65 0 104 -47.5t39 -140.5z" />
    <glyph glyph-name="ampersand" unicode="&#x26;" horiz-adv-x="667" 
d="M45 177q0 141 171 192q-72 80 -72 160q0 67 47.5 113t122.5 46q73 0 118 -45.5t45 -112.5q0 -139 -167 -184q60 -68 193 -189q56 87 56 200h55q-4 -138 -71 -236q61 -54 134 -112v-9h-76q-53 42 -94 78q-87 -90 -231 -90q-113 0 -172 57.5t-59 131.5zM276 38
q120 0 193 75q-146 136 -216 215q-152 -38 -152 -147q0 -58 45 -100.5t130 -42.5zM201 529q0 -72 71 -143q87 22 118 57.5t31 86.5q0 44 -29 75t-78 31q-50 0 -81.5 -29t-31.5 -78z" />
    <glyph glyph-name="quotesingle" unicode="'" horiz-adv-x="163" 
d="M103 505h-43l-15 211h73z" />
    <glyph glyph-name="parenleft" unicode="(" horiz-adv-x="304" 
d="M83 298q0 97 24 188.5t59.5 154t64.5 101t50 56.5h69v-6q-90 -83 -149.5 -211.5t-59.5 -282.5q0 -153 59.5 -281.5t149.5 -211.5v-6h-68q-21 18 -50.5 57t-65 101.5t-59.5 153.5t-24 187z" />
    <glyph glyph-name="parenright" unicode=")" horiz-adv-x="304" 
d="M221 298q0 -96 -24 -187t-59.5 -153.5t-65 -101.5t-50.5 -57h-68v6q90 83 149.5 211.5t59.5 281.5q0 154 -59.5 282.5t-149.5 211.5v6h69q21 -18 50 -56.5t64.5 -101t59.5 -154t24 -188.5z" />
    <glyph glyph-name="asterisk" unicode="*" horiz-adv-x="397" 
d="M226 644l-4 -87l82 31l53 18l18 -53l-55 -19l-83 -23l55 -68l33 -45l-45 -33l-35 46l-47 71l-48 -72l-33 -46l-45 33l33 47l53 67l-83 23l-54 18l17 53l55 -17l80 -30l-3 86v57h56v-57z" />
    <glyph glyph-name="plus" unicode="+" horiz-adv-x="520" 
d="M30 309v56h200v202h58v-202h201v-56h-201v-201h-58v201h-200z" />
    <glyph glyph-name="comma" unicode="," horiz-adv-x="227" 
d="M67 -131l-17 31q67 28 67 77q0 23 -14.5 37.5t-43.5 30.5v5q0 23 15.5 38.5t38.5 15.5q27 0 45.5 -21t18.5 -60q0 -56 -35 -98t-75 -56z" />
    <glyph glyph-name="hyphen" unicode="-" horiz-adv-x="327" 
d="M302 264h-277v56h277v-56z" />
    <glyph glyph-name="period" unicode="." horiz-adv-x="204" 
d="M50 53q0 22 15 37.5t36 15.5q23 0 38 -15t15 -38q0 -21 -15.5 -36t-37.5 -15q-21 0 -36 15t-15 36z" />
    <glyph glyph-name="slash" unicode="/" horiz-adv-x="325" 
d="M268 730h57l-269 -858h-56z" />
    <glyph glyph-name="zero" unicode="0" horiz-adv-x="535" 
d="M265 -9q-107 0 -156 79.5t-49 249.5q0 336 210 336q106 0 155.5 -80t49.5 -249t-51.5 -252.5t-158.5 -83.5zM122 327q0 -141 34.5 -210.5t112.5 -69.5t111 65.5t33 207.5q0 141 -35 210.5t-113 69.5t-110.5 -66t-32.5 -207z" />
    <glyph glyph-name="one" unicode="1" horiz-adv-x="394" 
d="M201 647h66v-647h-59v411l3 172h-4l-70 -50l-84 -59l-36 50z" />
    <glyph glyph-name="two" unicode="2" horiz-adv-x="461" 
d="M102 60v-4l97 1h209v-57h-368l-10 56q3 3 115 130t114 130q73 81 73 169q0 51 -31.5 81.5t-84.5 30.5q-90 0 -111 -95l-61 16q14 57 60.5 95t116.5 38q79 0 126 -44.5t47 -117.5q0 -104 -95 -213q0 -1 -47 -54.5t-48 -53.5l-16 -17l-34.5 -37l-34.5 -37t-17 -17z" />
    <glyph glyph-name="three" unicode="3" horiz-adv-x="474" 
d="M297 331v-4q50 -7 82 -41.5t32 -104.5q0 -90 -52 -139.5t-148 -49.5q-60 0 -106 26t-69 64l50 37q43 -71 132 -71q136 0 136 130q0 66 -37.5 92.5t-118.5 26.5h-41v53h41q136 0 136 132q0 52 -30 84.5t-87 32.5q-92 0 -114 -88l-60 15q14 56 61 92t116 36q80 0 128 -44
t48 -123q0 -66 -28 -106t-71 -50z" />
    <glyph glyph-name="four" unicode="4" horiz-adv-x="484" 
d="M314 159h-273l-15 55l264 433h81v-434h95v-54h-95v-159h-57v159zM316 585h-4l-68 -118l-154 -254h224v235z" />
    <glyph glyph-name="five" unicode="5" horiz-adv-x="490" 
d="M241 -8q-123 0 -183 105l59 31q38 -80 131 -80q66 0 99 39.5t33 111.5q0 137 -130 137q-60 0 -96 -40l-71 25l28 326h302v-56h-250l-20 -236l5 -1q44 35 112 35q87 0 134.5 -46.5t47.5 -138.5q0 -99 -54.5 -155.5t-146.5 -56.5z" />
    <glyph glyph-name="six" unicode="6" horiz-adv-x="495" 
d="M146 386l3 -2q44 29 120 29q83 0 130.5 -52t47.5 -149q0 -102 -53.5 -161.5t-142.5 -59.5q-191 0 -191 239q0 140 67.5 251t158.5 166h89v-6q-84 -50 -139.5 -109.5t-89.5 -145.5zM255 357q-74 0 -126 -36q-9 -30 -9 -90q0 -97 36.5 -142t97.5 -45q64 0 98 40t34 117
q0 156 -131 156z" />
    <glyph glyph-name="seven" unicode="7" horiz-adv-x="419" 
d="M188 0h-59v27q0 152 91 346l53 116l51 96v4q-44 -1 -114 -1h-201v59h362l15 -59l-113 -240q-85 -178 -85 -321v-27z" />
    <glyph glyph-name="eight" unicode="8" horiz-adv-x="531" 
d="M264 354q60 0 94.5 33.5t34.5 97.5q0 54 -34 86t-94 32t-93.5 -30.5t-33.5 -85.5q0 -63 33.5 -98t92.5 -35zM263 -9q-97 0 -150 44.5t-53 134.5q0 67 32 106t81 54v4q-39 8 -65.5 45t-26.5 103q0 84 52.5 129t135.5 45q82 0 131.5 -43t49.5 -124q0 -122 -95 -153v-4
q49 -9 82 -47t33 -109q0 -89 -55 -137t-152 -48zM261 303q-69 0 -104 -33t-35 -96t37 -97t106 -34q144 0 144 129q0 131 -148 131z" />
    <glyph glyph-name="nine" unicode="9" horiz-adv-x="490" 
d="M347 269l-3 2q-49 -30 -122 -30q-82 0 -130.5 50.5t-48.5 146.5q0 100 55 159t143 59q189 0 189 -237q0 -141 -67 -253t-155 -166h-91v6q173 103 230 263zM238 296q69 0 124 39q6 37 6 82q0 184 -132 184q-63 0 -97 -39t-34 -113q0 -153 133 -153z" />
    <glyph glyph-name="colon" unicode=":" horiz-adv-x="204" 
d="M50 467q0 22 15 37.5t36 15.5q23 0 38 -15t15 -38q0 -21 -15.5 -36t-37.5 -15q-21 0 -36 15t-15 36zM50 62q0 22 15 37.5t36 15.5q23 0 38 -15.5t15 -37.5q0 -21 -15.5 -36t-37.5 -15q-21 0 -36 15t-15 36z" />
    <glyph glyph-name="semicolon" unicode=";" horiz-adv-x="227" 
d="M62 468q0 22 15 37.5t36 15.5q23 0 38 -15.5t15 -37.5q0 -21 -15.5 -36t-37.5 -15q-21 0 -36 15t-15 36zM67 -131l-17 31q67 28 67 77q0 23 -14.5 37.5t-43.5 30.5v5q0 23 15.5 38.5t38.5 15.5q27 0 45.5 -21t18.5 -60q0 -56 -35 -98t-75 -56z" />
    <glyph glyph-name="less" unicode="&#x3c;" horiz-adv-x="520" 
d="M87 343l143 -62l259 -118v-63l-459 214v63l459 214v-63l-259 -119l-143 -62v-4z" />
    <glyph glyph-name="equal" unicode="=" horiz-adv-x="520" 
d="M30 420v56h459v-56h-459zM30 198v56h459v-56h-459z" />
    <glyph glyph-name="greater" unicode="&#x3e;" horiz-adv-x="520" 
d="M432 347l-143 62l-259 119v63l459 -214v-63l-459 -214v63l259 118l143 62v4z" />
    <glyph glyph-name="question" unicode="?" horiz-adv-x="479" 
d="M250 656q-76 0 -124 -46l-40 49q62 53 163 53q80 0 127 -39.5t47 -113.5q0 -35 -8 -63.5t-26 -54t-31.5 -40.5t-39.5 -40l-112 -106q-28 11 -28 37q0 22 28.5 51t63 55.5t63 68t28.5 84.5q0 50 -29 77.5t-82 27.5zM195 53q0 22 15 37.5t36 15.5q22 0 37.5 -15t15.5 -38
q0 -21 -15.5 -36t-37.5 -15q-21 0 -36 15t-15 36z" />
    <glyph glyph-name="at" unicode="@" horiz-adv-x="889" 
d="M618 -67q-39 -27 -99 -42.5t-117 -15.5q-160 0 -249 89.5t-89 241.5q0 115 57 215.5t155 160t213 59.5q152 0 244 -83.5t92 -221.5q0 -116 -57 -196t-148 -80q-68 0 -86 51h-4q-46 -54 -120 -54q-69 0 -103 42t-34 109q0 109 65 179t159 70q68 0 115 -26l-26 -178
q-9 -59 -9 -91q0 -51 50 -51q63 0 101.5 62t38.5 158q0 123 -77 189.5t-209 66.5q-144 0 -251 -113t-107 -263q0 -137 73.5 -209.5t215.5 -72.5q48 0 97.5 14t82.5 37zM419 107q36 0 66 20.5t41 49.5q3 42 5 54l23 166q-25 9 -59 9q-73 0 -119.5 -54t-46.5 -133
q0 -112 90 -112z" />
    <glyph glyph-name="A" unicode="A" horiz-adv-x="575" 
d="M248 546l-90 -274h258l-89 272l-19.5 58.5l-18.5 57.5h-4l-18.5 -57zM237 701h101l231 -701h-64l-71 216h-294l-71 -216h-63z" />
    <glyph glyph-name="B" unicode="B" horiz-adv-x="594" 
d="M401 358q59 -7 94 -49t35 -115q0 -92 -56.5 -143t-167.5 -51h-208v701h205q85 0 138.5 -43.5t53.5 -134.5q0 -65 -25.5 -108t-68.5 -53v-4zM434 518q0 128 -145 128h-132v-266h138q71 0 105 32t34 106zM308 55q83 0 121.5 30.5t38.5 103.5q0 136 -163 136h-148v-270h151z
" />
    <glyph glyph-name="C" unicode="C" horiz-adv-x="563" 
d="M65 346q0 175 72.5 270t208.5 95q116 0 177 -51l-37 -48q-54 42 -147 42q-101 0 -156.5 -75t-55.5 -227q0 -151 55.5 -228t162.5 -77q98 0 140 39l34 -43q-57 -53 -184 -53q-136 0 -203 93.5t-67 262.5z" />
    <glyph glyph-name="D" unicode="D" horiz-adv-x="637" 
d="M98 0v701h175q154 0 226.5 -83.5t72.5 -262.5q0 -181 -74.5 -268t-227.5 -87h-172zM158 644v-587h115q122 0 179.5 65.5t57.5 224.5q0 160 -60 228.5t-183 68.5h-109z" />
    <glyph glyph-name="E" unicode="E" horiz-adv-x="518" 
d="M473 0h-375v701h360v-56h-300v-262h265v-56h-265v-271h315v-56z" />
    <glyph glyph-name="F" unicode="F" horiz-adv-x="481" 
d="M160 0h-62v701h357v-56h-295v-278h261v-56h-261v-311z" />
    <glyph glyph-name="G" unicode="G" horiz-adv-x="630" 
d="M358 711q125 0 185 -55l-39 -48q-51 46 -151 46q-44 0 -80.5 -13t-71 -44.5t-54.5 -93.5t-20 -150q0 -161 56 -234t166 -73q92 0 139 32v277h60v-302q-73 -63 -211 -63q-134 0 -203 90t-69 269q0 181 81.5 271.5t211.5 90.5z" />
    <glyph glyph-name="H" unicode="H" horiz-adv-x="678" 
d="M520 701h60v-701h-60v328h-362v-328h-60v701h60v-317h362v317z" />
    <glyph glyph-name="I" unicode="I" horiz-adv-x="276" 
d="M108 0v701h60v-701h-60z" />
    <glyph glyph-name="J" unicode="J" horiz-adv-x="373" 
d="M9 7l21 56q38 -20 95 -20q48 0 69 22.5t21 72.5v563h60v-563q0 -68 -39 -109.5t-119 -41.5q-68 0 -108 20z" />
    <glyph glyph-name="K" unicode="K" horiz-adv-x="559" 
d="M158 701v-701h-60v701h60zM190 349l257 352h71l-257 -353l280 -348h-78l-273 345v4z" />
    <glyph glyph-name="L" unicode="L" horiz-adv-x="486" 
d="M98 701h60v-645h313v-56h-373v701z" />
    <glyph glyph-name="M" unicode="M" horiz-adv-x="841" 
d="M417 169h6l220 532h100v-701h-59v631h-6l-110.5 -262.5l-110.5 -263.5h-74l-220 526h-6v-631h-59v701h100z" />
    <glyph glyph-name="N" unicode="N" horiz-adv-x="690" 
d="M163 631h-8v-631h-57v701h93l261 -489l38 -71l38 -71h8v631h56v-701h-92l-260 487l-38.5 72z" />
    <glyph glyph-name="O" unicode="O" horiz-adv-x="664" 
d="M127 354q0 -165 53 -236t153 -71t152 68t52 232q0 165 -53 236t-153 71q-99 0 -151.5 -68.5t-52.5 -231.5zM599 354q0 -364 -271 -364q-263 0 -263 357q0 364 271 364q263 0 263 -357z" />
    <glyph glyph-name="P" unicode="P" horiz-adv-x="549" 
d="M289 701q107 0 164.5 -49.5t57.5 -149.5q0 -106 -60.5 -162t-172.5 -56h-120v-284h-60v701h191zM273 645h-115v-305h122q88 0 128.5 38.5t40.5 117.5t-44 114t-132 35z" />
    <glyph glyph-name="Q" unicode="Q" horiz-adv-x="665" 
d="M439 6l199 -121l-66 -36l-212 142q-69 -5 -121.5 12t-85 48.5t-52.5 80t-27.5 100.5t-7.5 115q0 364 271 364q263 0 263 -357q0 -283 -161 -344v-4zM128 354q0 -165 53 -236t153 -71t152 68t52 232q0 165 -53 236t-153 71q-99 0 -151.5 -68.5t-52.5 -231.5z" />
    <glyph glyph-name="R" unicode="R" horiz-adv-x="590" 
d="M98 701h162q231 0 231 -195q0 -81 -47 -132.5t-114 -57.5v-4q43 -18 83 -86l135 -226h-72l-130 223q-45 76 -121 76h-67v-299h-60v701zM158 645v-291h99q172 0 172 145q0 78 -44.5 112t-134.5 34h-92z" />
    <glyph glyph-name="S" unicode="S" horiz-adv-x="522" 
d="M249 47q76 0 118.5 36.5t42.5 93.5q0 35 -18.5 61.5t-48.5 44.5t-65.5 34t-71.5 34t-66 40t-48.5 57t-18.5 80q0 78 59 130.5t150 52.5q105 0 172 -52l-37 -49q-59 44 -138 44q-67 0 -106 -34t-39 -89q0 -48 34.5 -82t84 -56l99.5 -46t84.5 -66t34.5 -101q0 -82 -61 -136
t-165 -54q-130 0 -213 70l37 48q78 -61 180 -61z" />
    <glyph glyph-name="T" unicode="T" horiz-adv-x="469" 
d="M205 0v645h-191v56h441v-56h-190v-645h-60z" />
    <glyph glyph-name="U" unicode="U" horiz-adv-x="675" 
d="M340 47q180 0 180 182v472h60v-466q0 -117 -64 -181t-182 -64q-114 0 -176.5 62t-62.5 177v472h60v-465q0 -96 49.5 -142.5t135.5 -46.5z" />
    <glyph glyph-name="V" unicode="V" horiz-adv-x="583" 
d="M241 0l-231 701h65l176 -537l20.5 -60.5t19.5 -60.5h4q6 20 19.5 60.5l20.5 60.5l176 537h62l-231 -701h-101z" />
    <glyph glyph-name="W" unicode="W" horiz-adv-x="916" 
d="M240 51h4q7 29 22.5 88t22.5 88l120 474h98l123 -480l22.5 -85l21.5 -85h4q8 28 22 84.5t22 84.5l124 481h60l-181 -701h-98l-124 485l-21.5 85l-22.5 85h-4l-21.5 -85l-21.5 -86l-123 -484h-98l-181 701h61l123 -474l23.5 -88t22.5 -88z" />
    <glyph glyph-name="X" unicode="X" horiz-adv-x="577" 
d="M288 314h-5l-195 -314h-68l230 360l-217 341h72l181 -291h5l180 291h68l-215 -338l233 -363h-72z" />
    <glyph glyph-name="Y" unicode="Y" horiz-adv-x="518" 
d="M520 701l-231 -441v-260h-60v260l-231 441h70l191 -377h4l191 377h66z" />
    <glyph glyph-name="Z" unicode="Z" horiz-adv-x="505" 
d="M101 61v-4h367v-57h-428l-11 59l366 581v4h-334v57h393l11 -59z" />
    <glyph glyph-name="bracketleft" unicode="[" horiz-adv-x="294" 
d="M153 748v-902h111v-49h-169v1000h169v-49h-111z" />
    <glyph glyph-name="backslash" unicode="\" horiz-adv-x="325" 
d="M57 730l268 -858h-56l-269 858h57z" />
    <glyph glyph-name="bracketright" unicode="]" horiz-adv-x="294" 
d="M141 748h-111v49h169v-1000h-169v49h111v902z" />
    <glyph glyph-name="asciicircum" unicode="^" horiz-adv-x="520" 
d="M258 665l-61 -142l-89 -203h-62l173 381h82l173 -380h-62l-89 203l-61 141h-4z" />
    <glyph glyph-name="underscore" unicode="_" horiz-adv-x="476" 
d="M476 -111h-476v56h476v-56z" />
    <glyph glyph-name="grave" unicode="`" horiz-adv-x="500" 
d="M136 743l61 33l167 -122l-40 -28z" />
    <glyph glyph-name="a" unicode="a" horiz-adv-x="544" 
d="M372 122v133q-112 3 -184 -26.5t-72 -93.5q0 -41 28.5 -68.5t78.5 -27.5q48 0 87.5 24.5t61.5 58.5zM251 546q84 0 129.5 -40t45.5 -119v-252q0 -91 57 -91h13v-45q-6 -2 -16 -2q-76 0 -98 67h-4q-19 -21 -34.5 -34t-51.5 -27t-80 -14q-71 0 -113 42t-42 99q0 87 83 132
t232 43v63q0 69 -30.5 96.5t-93.5 27.5q-85 0 -131 -67l-43 36q61 85 177 85z" />
    <glyph glyph-name="b" unicode="b" horiz-adv-x="548" 
d="M87 17v742h58v-261h4q51 45 138 45q89 0 146 -63.5t57 -191.5q0 -138 -66 -218t-196 -80q-89 0 -141 27zM241 44q86 0 137.5 60t51.5 173q0 115 -45.5 164t-114.5 49q-35 0 -69.5 -16t-55.5 -44v-369q39 -17 96 -17z" />
    <glyph glyph-name="c" unicode="c" horiz-adv-x="463" 
d="M58 261q0 144 61 215t162 71q95 0 145 -50l-39 -47q-45 43 -111 43q-158 0 -158 -223q0 -224 158 -224q71 0 109 40l35 -45q-47 -49 -149 -49q-213 0 -213 269z" />
    <glyph glyph-name="d" unicode="d" horiz-adv-x="549" 
d="M404 530v229h58v-759h-42l-15 58h-4q-18 -30 -56 -49.5t-87 -19.5q-96 0 -148 64t-52 194q0 139 69.5 215t191.5 76q43 0 85 -8zM268 42q98 0 136 98v333q-42 11 -85 11q-201 0 -201 -229q0 -114 42.5 -163.5t107.5 -49.5z" />
    <glyph glyph-name="e" unicode="e" horiz-adv-x="535" 
d="M424 87l27 -48q-64 -45 -162 -45q-116 0 -173.5 65t-57.5 213q0 140 64.5 207.5t157.5 67.5q92 0 141 -56t49 -153q0 -39 -5 -92h-348q6 -107 49.5 -152.5t130.5 -45.5q78 0 127 39zM273 493q-62 0 -106 -45t-50 -148h293q1 14 1 36q0 157 -138 157z" />
    <glyph glyph-name="f" unicode="f" horiz-adv-x="350" 
d="M347 752l-14 -51q-29 10 -76 10q-76 0 -76 -77v-95h146v-50h-146v-489h-58v489h-92v50h92v93q0 62 36 97t107 35q47 0 81 -12z" />
    <glyph glyph-name="g" unicode="g" horiz-adv-x="548" 
d="M461 516v-528q0 -103 -57 -156t-158 -53q-105 0 -166 52l34 50q54 -48 144 -48q77 0 111.5 38.5t34.5 116.5v56h-4q-53 -46 -139 -46q-89 0 -146 62.5t-57 190.5q0 137 66 214.5t196 77.5q89 0 141 -27zM403 472q-39 17 -96 17q-87 0 -138 -57.5t-51 -169.5
q0 -115 45.5 -163t114.5 -48q35 0 69.5 16t55.5 44v361z" />
    <glyph glyph-name="h" unicode="h" horiz-adv-x="564" 
d="M309 549q78 0 124.5 -47t46.5 -127v-375h-58v367q0 56 -30.5 92t-88.5 36q-59 0 -100.5 -31t-57.5 -74v-390h-58v759h58v-282h4q10 13 24.5 26.5t52.5 29.5t83 16z" />
    <glyph glyph-name="i" unicode="i" horiz-adv-x="287" 
d="M119 0v539h58v-539h-58zM95 700q0 21 14 35t34 14q21 0 35 -14t14 -35q0 -20 -14 -34t-35 -14q-20 0 -34 14t-14 34z" />
    <glyph glyph-name="j" unicode="j" horiz-adv-x="244" 
d="M-4 -222l-21 51q25 8 43.5 19t37 32t28 57.5t9.5 86.5v515h58v-517q0 -194 -155 -244zM69 700q0 21 14 35t34 14q21 0 35 -14t14 -35q0 -20 -14 -34t-35 -14q-20 0 -34 14t-14 34z" />
    <glyph glyph-name="k" unicode="k" horiz-adv-x="482" 
d="M145 759v-759h-58v759h58zM163 274v4l206 261h77l-210 -259v-4l224 -276h-77z" />
    <glyph glyph-name="l" unicode="l" horiz-adv-x="281" 
d="M94 759h58v-643q0 -38 13.5 -55t45.5 -17q28 0 52 13v-52q-27 -12 -67 -12q-102 0 -102 107v659z" />
    <glyph glyph-name="m" unicode="m" horiz-adv-x="843" 
d="M435 460q16 38 56.5 63.5t101.5 25.5q80 0 123 -45.5t43 -132.5v-371h-58v358q0 67 -30 102t-86 35q-52 0 -87 -29.5t-46 -67.5v-398h-58v353q0 68 -30 105t-86 37q-53 0 -88.5 -31.5t-44.5 -73.5v-390h-58v539h43l13 -60h4q41 70 139 70q111 0 145 -89h4z" />
    <glyph glyph-name="n" unicode="n" horiz-adv-x="564" 
d="M480 371v-371h-58v357q0 67 -33 102.5t-94 35.5q-53 0 -93.5 -30.5t-56.5 -74.5v-390h-58v539h43l13 -59h4q8 11 24 24.5t53 29t79 15.5q82 0 128.5 -45t48.5 -133z" />
    <glyph glyph-name="o" unicode="o" horiz-adv-x="550" 
d="M118 274q0 -116 38.5 -172t121.5 -56q82 0 118 54t36 168q0 116 -38.5 171.5t-121.5 55.5q-82 0 -118 -53.5t-36 -167.5zM272 -8q-214 0 -214 276q0 281 220 281q214 0 214 -275q0 -282 -220 -282z" />
    <glyph glyph-name="p" unicode="p" horiz-adv-x="549" 
d="M491 291q0 -139 -69.5 -215t-191.5 -76q-43 0 -85 8v-202h-58v733h44l13 -57h4q49 67 143 67q96 0 148 -64t52 -194zM145 65q42 -11 85 -11q201 0 201 229q0 114 -42.5 163.5t-107.5 49.5q-92 0 -136 -85v-346z" />
    <glyph glyph-name="q" unicode="q" horiz-adv-x="548" 
d="M461 516v-710h-58v229h-4q-51 -45 -138 -45q-89 0 -146 63.5t-57 191.5q0 138 66 218t196 80q89 0 141 -27zM307 489q-86 0 -137.5 -60t-51.5 -173q0 -115 45.5 -164t114.5 -49q35 0 69.5 16t55.5 44v369q-39 17 -96 17z" />
    <glyph glyph-name="r" unicode="r" horiz-adv-x="345" 
d="M339 541v-62q-30 9 -60 9q-100 0 -134 -77v-411h-58v539h43l13 -55h4q20 28 56 45.5t79 17.5q33 0 57 -6z" />
    <glyph glyph-name="s" unicode="s" horiz-adv-x="468" 
d="M346 141q0 37 -28.5 60.5t-69.5 37.5t-81.5 30t-69 49t-28.5 84q0 60 48 102.5t132 42.5q42 0 82.5 -14t64.5 -38l-38 -44q-40 42 -111 42q-60 0 -90 -25.5t-30 -64.5q0 -31 20.5 -53t51.5 -33t66.5 -26t66.5 -30t51.5 -46t20.5 -74q0 -61 -49.5 -105.5t-136.5 -44.5
q-116 0 -183 65l38 46q57 -57 148 -57q60 0 92.5 27.5t32.5 68.5z" />
    <glyph glyph-name="t" unicode="t" horiz-adv-x="375" 
d="M237 -5q-132 0 -132 140v354h-83v38l83 12l16 143h42v-143h152v-50h-152v-347q0 -94 84 -94q54 0 85 18l17 -49q-42 -22 -112 -22z" />
    <glyph glyph-name="u" unicode="u" horiz-adv-x="564" 
d="M84 168v371h58v-354q0 -72 31.5 -107t98.5 -35q65 0 106 36.5t41 111.5v348h58v-539h-43l-13 58h-4q-8 -12 -23.5 -25.5t-52.5 -28.5t-81 -15q-83 0 -128.5 45t-47.5 134z" />
    <glyph glyph-name="v" unicode="v" horiz-adv-x="465" 
d="M77 539l113 -341q20 -59 41 -141h4q17 60 43 141l113 341h62l-186 -539h-69l-186 539h65z" />
    <glyph glyph-name="w" unicode="w" horiz-adv-x="737" 
d="M371 487h-4l-123 -487h-86l-144 539h61l81 -311l44 -175h4l36 149l85 337h89l84 -338l36 -148h4l45 175l81 311h59l-145 -539h-86z" />
    <glyph glyph-name="x" unicode="x" horiz-adv-x="466" 
d="M374 0l-141 232h-4l-138 -232h-69l175 280l-165 259h69l131 -212h4l129 212h68l-165 -260l176 -279h-70z" />
    <glyph glyph-name="y" unicode="y" horiz-adv-x="486" 
d="M23 -200l9 55q22 -8 49 -8q53 0 84.5 30t53.5 99l-193 563h62l95 -288l64 -198h4q15 61 59 198l93 288h60l-192 -580q-27 -82 -72.5 -124.5t-121.5 -42.5q-28 0 -54 8z" />
    <glyph glyph-name="z" unicode="z" horiz-adv-x="434" 
d="M96 58v-4h289v-54h-340l-10 68l281 413v4h-258v54h305l15 -68z" />
    <glyph glyph-name="braceleft" unicode="{" horiz-adv-x="321" 
d="M67 330q48 10 69.5 35.5t21.5 74.5q0 26 -11 99t-11 115q0 149 131 149q28 0 51 -9l-12 -46q-22 8 -42 8q-70 0 -70 -104q0 -33 11 -108.5t11 -103.5q0 -113 -91 -141v-4q91 -28 91 -141q0 -28 -11 -103.5t-11 -108.5q0 -104 70 -104q20 0 42 8l12 -46q-23 -9 -51 -9
q-131 0 -131 149q0 42 11 115t11 99q0 49 -21.5 74.5t-69.5 35.5v66z" />
    <glyph glyph-name="bar" unicode="|" horiz-adv-x="270" 
d="M160 -239h-50v1071h50v-1071z" />
    <glyph glyph-name="braceright" unicode="}" horiz-adv-x="321" 
d="M254 330v-66q-48 -10 -69.5 -35.5t-21.5 -74.5q0 -26 11 -99t11 -115q0 -149 -131 -149q-28 0 -51 9l12 46q22 -8 42 -8q70 0 70 104q0 33 -11 108.5t-11 103.5q0 113 91 141v4q-91 28 -91 141q0 28 11 103.5t11 108.5q0 104 -70 104q-20 0 -42 -8l-12 46q23 9 51 9
q131 0 131 -149q0 -42 -11 -115t-11 -99q0 -49 21.5 -74.5t69.5 -35.5z" />
    <glyph glyph-name="asciitilde" unicode="~" horiz-adv-x="520" 
d="M25 273q-2 8 -2 27q0 49 28.5 76t75.5 27q50 0 138.5 -38.5t125.5 -38.5q52 0 52 53q0 13 -3 26l54 -5q2 -8 2 -27q0 -49 -28.5 -76t-75.5 -27q-50 0 -138.5 38.5t-125.5 38.5q-52 0 -52 -53q0 -12 3 -26z" />
    <glyph glyph-name="exclamdown" unicode="&#xa1;" horiz-adv-x="274" 
d="M117 284h45l18 -434h-80zM189 498q0 -22 -15 -37.5t-36 -15.5q-22 0 -37.5 15.5t-15.5 37.5q0 21 15.5 36t37.5 15q21 0 36 -15t15 -36z" />
    <glyph glyph-name="cent" unicode="&#xa2;" horiz-adv-x="464" 
d="M173 -126h-55l51 140q-110 54 -110 247q0 144 61 215t162 71q38 0 77 -11l43 118h55l-51 -140q4 -3 8 -6.5l7.5 -6.5t5.5 -4l-44 -46l-146 -401q16 -4 40 -4q71 0 109 40l35 -45q-47 -49 -149 -49q-26 0 -54 5zM119 270q0 -151 70 -200l150 412q-25 11 -62 11
q-158 0 -158 -223z" />
    <glyph glyph-name="sterling" unicode="&#xa3;" horiz-adv-x="540" 
d="M128 58v-4h379v-54h-435l-12 63q68 37 75 139l8 111h-78v52h82l10 136q7 93 60 142t138 49q96 0 150 -58l-42 -45q-41 48 -121 48q-113 0 -123 -132l-11 -140h224v-52h-228l-8 -112q-9 -107 -68 -143z" />
    <glyph glyph-name="currency" unicode="&#xa4;" horiz-adv-x="520" 
d="M46 324q0 75 43 132l-61 62l41 41l61 -62q58 44 134 44q73 0 129 -40l58 58l41 -41l-58 -58q40 -56 40 -129q0 -75 -45 -133l63 -62l-41 -41l-63 62q-56 -42 -132 -42q-75 0 -128 39l-59 -59l-41 41l58 58q-40 54 -40 130zM100 328q0 -70 45 -115.5t115 -45.5t115 45
t45 115t-45 116t-115 46t-115 -45.5t-45 -115.5z" />
    <glyph glyph-name="yen" unicode="&#xa5;" horiz-adv-x="492" 
d="M16 324h166l-182 364h70l111 -229l65 -145h4l66 147l110 227h66l-183 -364h167v-56h-200v-268h-60v268h-200v56z" />
    <glyph glyph-name="brokenbar" unicode="&#xa6;" horiz-adv-x="270" 
d="M160 392h-50v339h50v-339zM160 -141h-50v339h50v-339z" />
    <glyph glyph-name="section" unicode="&#xa7;" horiz-adv-x="577" 
d="M415 -5h5q38 53 38 123q0 46 -23 86.5t-58 69l-75.5 60l-75.5 59t-58 66.5t-23 83q0 21 6 45h-4q-32 -48 -32 -119q0 -52 32 -96.5t77.5 -78l90.5 -67.5t77 -79t32 -97q0 -26 -9 -55zM107 -133l10 58q39 -13 84 -13q88 0 130.5 37t42.5 92q0 35 -23 68t-57 58l-74 56.5
t-74 62.5t-57 77.5t-23 100.5q0 112 78 192t206 80q48 0 82 -9l-9 -57q-33 10 -70 10q-77 0 -119 -33t-42 -88q0 -33 17.5 -63.5t45.5 -56t62.5 -51t68.5 -53.5t62 -58.5t45.5 -71t17.5 -86.5q0 -111 -85.5 -187.5t-226.5 -76.5q-46 0 -92 12z" />
    <glyph glyph-name="dieresis" unicode="&#xa8;" horiz-adv-x="500" 
d="M121 708q0 18 11.5 29.5t29.5 11.5q17 0 29 -11.5t12 -29.5q0 -17 -12 -29t-29 -12q-18 0 -29.5 12t-11.5 29zM297 708q0 18 12 29.5t29 11.5q18 0 29.5 -11.5t11.5 -29.5q0 -17 -11.5 -29t-29.5 -12q-17 0 -29 12t-12 29z" />
    <glyph glyph-name="copyright" unicode="&#xa9;" horiz-adv-x="834" 
d="M118 346q0 -131 85 -217.5t215 -86.5t214 84.5t84 215.5t-85 217.5t-215 86.5t-214 -84.5t-84 -215.5zM60 342q0 154 101.5 255t256.5 101q158 0 257 -98.5t99 -253.5q0 -154 -101.5 -255t-256.5 -101q-158 0 -257 98.5t-99 253.5zM264 341q0 99 47 152.5t121 53.5
q72 0 105 -38l-30 -41q-29 31 -78 31t-79.5 -38t-30.5 -114q0 -152 113 -152q45 0 74 29l28 -41q-39 -37 -108 -37q-74 0 -118 48t-44 147z" />
    <glyph glyph-name="guillemotleft" unicode="&#xab;" horiz-adv-x="463" 
d="M233 267l140 199l40 -30l-112 -169l112 -169l-40 -29zM50 267l140 199l40 -30l-112 -169l112 -169l-40 -29z" />
    <glyph glyph-name="logicalnot" unicode="&#xac;" horiz-adv-x="520" 
d="M500 199h-58v190h-422v56h480v-246z" />
    <glyph glyph-name="registered" unicode="&#xae;" horiz-adv-x="517" 
d="M257 335q74 0 121 48t47 120t-47.5 120t-119.5 48q-73 0 -119.5 -47t-46.5 -119t47 -121t118 -49zM258 297q-93 0 -150.5 57t-57.5 148t59 150t150 59q93 0 150.5 -57t57.5 -148t-59 -150t-150 -59zM258 483h-24v-81h-39v215h67q72 0 72 -63q0 -50 -39 -60l51 -92h-47z
M234 517h26q34 0 34 33q0 32 -31 32h-29v-65z" />
    <glyph glyph-name="macron" unicode="&#xaf;" horiz-adv-x="500" 
d="M401 676h-303v46h303v-46z" />
    <glyph glyph-name="degree" unicode="&#xb0;" horiz-adv-x="332" 
d="M30 563q0 59 39 97t99 38t97 -36t37 -95t-39 -97t-99 -38t-97 36t-37 95zM78 565q0 -38 26 -64.5t64 -26.5t62 26t24 65q0 38 -26 64.5t-64 26.5t-62 -26t-24 -65z" />
    <glyph glyph-name="plusminus" unicode="&#xb1;" horiz-adv-x="520" 
d="M30 309v56h200v202h58v-202h201v-56h-201v-200h201v-56h-459v56h200v200h-200z" />
    <glyph glyph-name="twosuperior" unicode="&#xb2;" horiz-adv-x="339" 
d="M153 504l-64 -61l81 1h131v-46h-271l-7 42l81 83.5l81 83.5q52 55 52 102q0 31 -19 49.5t-55 18.5q-31 0 -51 -18t-26 -44l-52 14q11 39 44 64.5t84 25.5q60 0 93.5 -29t33.5 -77q0 -66 -67 -136l-35 -36.5z" />
    <glyph glyph-name="threesuperior" unicode="&#xb3;" horiz-adv-x="344" 
d="M293 709q0 -74 -60 -103q71 -16 71 -95q0 -59 -37.5 -91t-107.5 -32q-85 0 -127 61l38 29q34 -47 93 -47q90 0 90 78q0 40 -25.5 57t-78.5 17h-35v40h35q91 0 91 82q0 31 -20 51t-58 20q-61 0 -79 -57l-48 13q10 38 44.5 62.5t84.5 24.5q59 0 94 -29.5t35 -80.5z" />
    <glyph glyph-name="acute" unicode="&#xb4;" horiz-adv-x="500" 
d="M364 743l-188 -117l-40 28l167 122z" />
    <glyph glyph-name="uni00B5" unicode="&#xb5;" horiz-adv-x="599" 
d="M544 51q2 0 5 0.5t5 0.5v-51q-7 -1 -21 -1q-77 0 -98 73h-4q-42 -82 -157 -82q-86 0 -129 52v-237h-58v733h58v-342q0 -79 31.5 -115t98.5 -36q65 0 106 37.5t41 111.5v344h58v-379q0 -60 15 -84.5t49 -24.5z" />
    <glyph glyph-name="paragraph" unicode="&#xb6;" horiz-adv-x="549" 
d="M416 701v-701h-48v701h48zM264 701l-1 -627q0 -153 -106 -235l-36 34q30 25 47 44.5t31.5 61t14.5 99.5v241h-18q-78 0 -124.5 46.5t-46.5 138.5q0 98 51 147.5t144 49.5h44z" />
    <glyph glyph-name="periodcentered" unicode="&#xb7;" horiz-adv-x="214" 
d="M55 352q0 22 15 37.5t36 15.5q22 0 37.5 -15.5t15.5 -37.5q0 -21 -15.5 -36t-37.5 -15q-21 0 -36 15t-15 36z" />
    <glyph glyph-name="cedilla" unicode="&#xb8;" horiz-adv-x="500" 
d="M305 -114q0 -84 -88 -116l-23 34q55 28 55 77q0 32 -23 64v4h61q18 -26 18 -63z" />
    <glyph glyph-name="onesuperior" unicode="&#xb9;" horiz-adv-x="280" 
d="M146 809h54v-411h-52v261l3 101h-3q-18 -17 -39 -30l-68 -42l-28 43z" />
    <glyph glyph-name="guillemotright" unicode="&#xbb;" horiz-adv-x="463" 
d="M230 267l-140 -198l-40 29l112 169l-112 169l40 30zM413 267l-140 -198l-40 29l112 169l-112 169l40 30z" />
    <glyph glyph-name="questiondown" unicode="&#xbf;" horiz-adv-x="389" 
d="M224 -105q76 0 124 46l40 -49q-62 -53 -163 -53q-80 0 -127 39.5t-47 113.5q0 35 8 63.5t26 54t31.5 40.5t39.5 40l112 106q28 -11 28 -37q0 -22 -28.5 -51t-63 -55.5t-63 -68t-28.5 -84.5q0 -50 29 -77.5t82 -27.5zM279 498q0 -22 -15 -37.5t-36 -15.5q-22 0 -37.5 15.5
t-15.5 37.5q0 21 15.5 36t37.5 15q21 0 36 -15t15 -36z" />
    <glyph glyph-name="Agrave" unicode="&#xc0;" horiz-adv-x="575" 
d="M248 546l-90 -274h258l-89 272l-19.5 58.5l-18.5 57.5h-4l-18.5 -57zM237 701h101l231 -701h-64l-71 216h-294l-71 -216h-63zM88 893l61 33l167 -122l-40 -28z" />
    <glyph glyph-name="Aacute" unicode="&#xc1;" horiz-adv-x="575" 
d="M248 546l-90 -274h258l-89 272l-19.5 58.5l-18.5 57.5h-4l-18.5 -57zM237 701h101l231 -701h-64l-71 216h-294l-71 -216h-63zM470 913l-188 -117l-40 28l167 122z" />
    <glyph glyph-name="Acircumflex" unicode="&#xc2;" horiz-adv-x="575" 
d="M248 546l-90 -274h258l-89 272l-19.5 58.5l-18.5 57.5h-4l-18.5 -57zM237 701h101l231 -701h-64l-71 216h-294l-71 -216h-63zM476 830l-22 -35l-167 98l-166 -98l-23 35l189 124z" />
    <glyph glyph-name="Atilde" unicode="&#xc3;" horiz-adv-x="575" 
d="M248 546l-90 -274h258l-89 272l-19.5 58.5l-18.5 57.5h-4l-18.5 -57zM237 701h101l231 -701h-64l-71 216h-294l-71 -216h-63zM224 904q26 0 70 -16.5t62 -16.5q41 0 61 27l24 -40q-2 -5 -10.5 -12.5t-29 -16t-45.5 -8.5q-22 0 -67 17t-66 17q-40 0 -67 -24l-23 40l5 4
l9 7t12.5 7.5t17 7.5t21 5t26.5 2z" />
    <glyph glyph-name="Adieresis" unicode="&#xc4;" horiz-adv-x="575" 
d="M248 546l-90 -274h258l-89 272l-19.5 58.5l-18.5 57.5h-4l-18.5 -57zM237 701h101l231 -701h-64l-71 216h-294l-71 -216h-63zM158 878q0 18 11.5 29.5t29.5 11.5q17 0 29 -11.5t12 -29.5q0 -17 -12 -29t-29 -12q-18 0 -29.5 12t-11.5 29zM334 878q0 18 12 29.5t29 11.5
q18 0 29.5 -11.5t11.5 -29.5q0 -17 -11.5 -29t-29.5 -12q-17 0 -29 12t-12 29z" />
    <glyph glyph-name="Aring" unicode="&#xc5;" horiz-adv-x="575" 
d="M248 546l-90 -274h258l-89 272l-19.5 58.5l-18.5 57.5h-4l-18.5 -57zM237 701h101l231 -701h-64l-71 216h-294l-71 -216h-63zM184 883q0 46 29.5 75t75.5 29t73.5 -26.5t27.5 -71.5q0 -46 -29.5 -75t-75.5 -29t-73.5 26.5t-27.5 71.5zM347 885q0 29 -17 46t-45 17
t-43.5 -16.5t-15.5 -44.5q0 -29 17 -46t46 -17q27 0 42.5 16.5t15.5 44.5z" />
    <glyph glyph-name="AE" unicode="&#xc6;" horiz-adv-x="830" 
d="M785 0h-353v225h-245l-127 -225h-65l396 701h379v-56h-282v-262h247v-56h-247v-271h297v-56zM432 657h-4l-210 -376h214v376z" />
    <glyph glyph-name="Ccedilla" unicode="&#xc7;" horiz-adv-x="563" 
d="M65 346q0 175 72.5 270t208.5 95q116 0 177 -51l-37 -48q-54 42 -147 42q-101 0 -156.5 -75t-55.5 -227q0 -151 55.5 -228t162.5 -77q98 0 140 39l34 -43q-57 -53 -184 -53q-136 0 -203 93.5t-67 262.5zM397 -114q0 -84 -88 -116l-23 34q55 28 55 77q0 32 -23 64v4h61
q18 -26 18 -63z" />
    <glyph glyph-name="Egrave" unicode="&#xc8;" horiz-adv-x="518" 
d="M473 0h-375v701h360v-56h-300v-262h265v-56h-265v-271h315v-56zM89 913l61 33l167 -122l-40 -28z" />
    <glyph glyph-name="Eacute" unicode="&#xc9;" horiz-adv-x="518" 
d="M473 0h-375v701h360v-56h-300v-262h265v-56h-265v-271h315v-56zM471 913l-188 -117l-40 28l167 122z" />
    <glyph glyph-name="Ecircumflex" unicode="&#xca;" horiz-adv-x="518" 
d="M473 0h-375v701h360v-56h-300v-262h265v-56h-265v-271h315v-56zM458 830l-22 -35l-167 98l-166 -98l-23 35l189 124z" />
    <glyph glyph-name="Edieresis" unicode="&#xcb;" horiz-adv-x="518" 
d="M473 0h-375v701h360v-56h-300v-262h265v-56h-265v-271h315v-56zM147 878q0 18 11.5 29.5t29.5 11.5q17 0 29 -11.5t12 -29.5q0 -17 -12 -29t-29 -12q-18 0 -29.5 12t-11.5 29zM323 878q0 18 12 29.5t29 11.5q18 0 29.5 -11.5t11.5 -29.5q0 -17 -11.5 -29t-29.5 -12
q-17 0 -29 12t-12 29z" />
    <glyph glyph-name="Igrave" unicode="&#xcc;" horiz-adv-x="276" 
d="M108 0v701h60v-701h-60zM-51 913l61 33l167 -122l-40 -28z" />
    <glyph glyph-name="Iacute" unicode="&#xcd;" horiz-adv-x="276" 
d="M108 0v701h60v-701h-60zM322 913l-188 -117l-40 28l167 122z" />
    <glyph glyph-name="Icircumflex" unicode="&#xce;" horiz-adv-x="276" 
d="M108 0v701h60v-701h-60zM327 830l-22 -35l-167 98l-166 -98l-23 35l189 124z" />
    <glyph glyph-name="Idieresis" unicode="&#xcf;" horiz-adv-x="276" 
d="M108 0v701h60v-701h-60zM9 878q0 18 11.5 29.5t29.5 11.5q17 0 29 -11.5t12 -29.5q0 -17 -12 -29t-29 -12q-18 0 -29.5 12t-11.5 29zM185 878q0 18 12 29.5t29 11.5q18 0 29.5 -11.5t11.5 -29.5q0 -17 -11.5 -29t-29.5 -12q-17 0 -29 12t-12 29z" />
    <glyph glyph-name="Eth" unicode="&#xd0;" horiz-adv-x="643" 
d="M104 0v333h-74v48h74v320h175q154 0 226.5 -83.5t72.5 -262.5q0 -181 -74.5 -268t-227.5 -87h-172zM164 644v-263h172v-48h-172v-276h115q122 0 179.5 65.5t57.5 224.5q0 160 -60 228.5t-183 68.5h-109z" />
    <glyph glyph-name="Ntilde" unicode="&#xd1;" horiz-adv-x="690" 
d="M163 631h-8v-631h-57v701h93l261 -489l38 -71l38 -71h8v631h56v-701h-92l-260 487l-38.5 72zM282 904q26 0 70 -16.5t62 -16.5q41 0 61 27l24 -40q-2 -5 -10.5 -12.5t-29 -16t-45.5 -8.5q-22 0 -67 17t-66 17q-40 0 -67 -24l-23 40l5 4l9 7t12.5 7.5t17 7.5t21 5t26.5 2z
" />
    <glyph glyph-name="Ograve" unicode="&#xd2;" horiz-adv-x="664" 
d="M127 354q0 -165 53 -236t153 -71t152 68t52 232q0 165 -53 236t-153 71q-99 0 -151.5 -68.5t-52.5 -231.5zM599 354q0 -364 -271 -364q-263 0 -263 357q0 364 271 364q263 0 263 -357zM142 913l61 33l167 -122l-40 -28z" />
    <glyph glyph-name="Oacute" unicode="&#xd3;" horiz-adv-x="664" 
d="M127 354q0 -165 53 -236t153 -71t152 68t52 232q0 165 -53 236t-153 71q-99 0 -151.5 -68.5t-52.5 -231.5zM599 354q0 -364 -271 -364q-263 0 -263 357q0 364 271 364q263 0 263 -357zM518 913l-188 -117l-40 28l167 122z" />
    <glyph glyph-name="Ocircumflex" unicode="&#xd4;" horiz-adv-x="664" 
d="M127 354q0 -165 53 -236t153 -71t152 68t52 232q0 165 -53 236t-153 71q-99 0 -151.5 -68.5t-52.5 -231.5zM599 354q0 -364 -271 -364q-263 0 -263 357q0 364 271 364q263 0 263 -357zM521 830l-22 -35l-167 98l-166 -98l-23 35l189 124z" />
    <glyph glyph-name="Otilde" unicode="&#xd5;" horiz-adv-x="664" 
d="M127 354q0 -165 53 -236t153 -71t152 68t52 232q0 165 -53 236t-153 71q-99 0 -151.5 -68.5t-52.5 -231.5zM599 354q0 -364 -271 -364q-263 0 -263 357q0 364 271 364q263 0 263 -357zM269 904q26 0 70 -16.5t62 -16.5q41 0 61 27l24 -40q-2 -5 -10.5 -12.5t-29 -16
t-45.5 -8.5q-22 0 -67 17t-66 17q-40 0 -67 -24l-23 40l5 4l9 7t12.5 7.5t17 7.5t21 5t26.5 2z" />
    <glyph glyph-name="Odieresis" unicode="&#xd6;" horiz-adv-x="664" 
d="M127 354q0 -165 53 -236t153 -71t152 68t52 232q0 165 -53 236t-153 71q-99 0 -151.5 -68.5t-52.5 -231.5zM599 354q0 -364 -271 -364q-263 0 -263 357q0 364 271 364q263 0 263 -357zM203 878q0 18 11.5 29.5t29.5 11.5q17 0 29 -11.5t12 -29.5q0 -17 -12 -29t-29 -12
q-18 0 -29.5 12t-11.5 29zM379 878q0 18 12 29.5t29 11.5q18 0 29.5 -11.5t11.5 -29.5q0 -17 -11.5 -29t-29.5 -12q-17 0 -29 12t-12 29z" />
    <glyph glyph-name="multiply" unicode="&#xd7;" horiz-adv-x="520" 
d="M64 495l39 38l156 -158l158 159l39 -40l-158 -157l158 -157l-39 -38l-157 157l-157 -158l-39 40l158 157z" />
    <glyph glyph-name="Oslash" unicode="&#xd8;" horiz-adv-x="664" 
d="M599 354q0 -364 -271 -364q-106 0 -167 54l-34 -53h-62l61 93q-61 87 -61 263q0 364 271 364q103 0 166 -54l36 54h61l-62 -94q62 -90 62 -263zM127 354q0 -138 38 -211l302 460q-48 51 -136 51q-99 0 -151.5 -68.5t-52.5 -231.5zM537 347q0 135 -38 211l-302 -460
q50 -51 136 -51q100 0 152 68t52 232z" />
    <glyph glyph-name="Ugrave" unicode="&#xd9;" horiz-adv-x="675" 
d="M340 47q180 0 180 182v472h60v-466q0 -117 -64 -181t-182 -64q-114 0 -176.5 62t-62.5 177v472h60v-465q0 -96 49.5 -142.5t135.5 -46.5zM150 913l61 33l167 -122l-40 -28z" />
    <glyph glyph-name="Uacute" unicode="&#xda;" horiz-adv-x="675" 
d="M340 47q180 0 180 182v472h60v-466q0 -117 -64 -181t-182 -64q-114 0 -176.5 62t-62.5 177v472h60v-465q0 -96 49.5 -142.5t135.5 -46.5zM537 913l-188 -117l-40 28l167 122z" />
    <glyph glyph-name="Ucircumflex" unicode="&#xdb;" horiz-adv-x="675" 
d="M340 47q180 0 180 182v472h60v-466q0 -117 -64 -181t-182 -64q-114 0 -176.5 62t-62.5 177v472h60v-465q0 -96 49.5 -142.5t135.5 -46.5zM526 830l-22 -35l-167 98l-166 -98l-23 35l189 124z" />
    <glyph glyph-name="Udieresis" unicode="&#xdc;" horiz-adv-x="675" 
d="M340 47q180 0 180 182v472h60v-466q0 -117 -64 -181t-182 -64q-114 0 -176.5 62t-62.5 177v472h60v-465q0 -96 49.5 -142.5t135.5 -46.5zM208 878q0 18 11.5 29.5t29.5 11.5q17 0 29 -11.5t12 -29.5q0 -17 -12 -29t-29 -12q-18 0 -29.5 12t-11.5 29zM384 878
q0 18 12 29.5t29 11.5q18 0 29.5 -11.5t11.5 -29.5q0 -17 -11.5 -29t-29.5 -12q-17 0 -29 12t-12 29z" />
    <glyph glyph-name="Yacute" unicode="&#xdd;" horiz-adv-x="518" 
d="M520 701l-231 -441v-260h-60v260l-231 441h70l191 -377h4l191 377h66zM459 913l-188 -117l-40 28l167 122z" />
    <glyph glyph-name="Thorn" unicode="&#xde;" horiz-adv-x="487" 
d="M154 0h-56v701h56v-149q37 15 95 15q86 0 138.5 -52t52.5 -154q0 -119 -55 -175t-149 -56q-46 0 -82 11v-141zM156 200q36 -12 76 -12q146 0 146 166q0 155 -148 155q-42 0 -74 -12v-297z" />
    <glyph glyph-name="germandbls" unicode="&#xdf;" horiz-adv-x="571" 
d="M233 79q51 -33 116 -33q54 0 86.5 25.5t32.5 67.5q0 34 -21 60t-51.5 43.5l-61 34.5t-51.5 42.5t-21 58.5q0 27 20 54t44 46.5t44 51.5t20 68q0 49 -32 74.5t-84 25.5q-59 0 -94 -37t-35 -109v-552h-58v552q0 99 55 149.5t138 50.5q77 0 122.5 -42.5t45.5 -111.5
q0 -43 -19.5 -80t-42.5 -57.5t-42.5 -42t-19.5 -36.5q0 -21 21 -39t50.5 -35t59 -37t50.5 -52.5t21 -74.5q0 -63 -47 -107t-133 -44q-89 0 -139 38z" />
    <glyph glyph-name="agrave" unicode="&#xe0;" horiz-adv-x="544" 
d="M372 122v133q-112 3 -184 -26.5t-72 -93.5q0 -41 28.5 -68.5t78.5 -27.5q48 0 87.5 24.5t61.5 58.5zM251 546q84 0 129.5 -40t45.5 -119v-252q0 -91 57 -91h13v-45q-6 -2 -16 -2q-76 0 -98 67h-4q-19 -21 -34.5 -34t-51.5 -27t-80 -14q-71 0 -113 42t-42 99q0 87 83 132
t232 43v63q0 69 -30.5 96.5t-93.5 27.5q-85 0 -131 -67l-43 36q61 85 177 85zM68 743l61 33l167 -122l-40 -28z" />
    <glyph glyph-name="aacute" unicode="&#xe1;" horiz-adv-x="544" 
d="M372 122v133q-112 3 -184 -26.5t-72 -93.5q0 -41 28.5 -68.5t78.5 -27.5q48 0 87.5 24.5t61.5 58.5zM251 546q84 0 129.5 -40t45.5 -119v-252q0 -91 57 -91h13v-45q-6 -2 -16 -2q-76 0 -98 67h-4q-19 -21 -34.5 -34t-51.5 -27t-80 -14q-71 0 -113 42t-42 99q0 87 83 132
t232 43v63q0 69 -30.5 96.5t-93.5 27.5q-85 0 -131 -67l-43 36q61 85 177 85zM449 743l-188 -117l-40 28l167 122z" />
    <glyph glyph-name="acircumflex" unicode="&#xe2;" horiz-adv-x="544" 
d="M372 122v133q-112 3 -184 -26.5t-72 -93.5q0 -41 28.5 -68.5t78.5 -27.5q48 0 87.5 24.5t61.5 58.5zM251 546q84 0 129.5 -40t45.5 -119v-252q0 -91 57 -91h13v-45q-6 -2 -16 -2q-76 0 -98 67h-4q-19 -21 -34.5 -34t-51.5 -27t-80 -14q-71 0 -113 42t-42 99q0 87 83 132
t232 43v63q0 69 -30.5 96.5t-93.5 27.5q-85 0 -131 -67l-43 36q61 85 177 85zM448 660l-22 -35l-167 98l-166 -98l-23 35l189 124z" />
    <glyph glyph-name="atilde" unicode="&#xe3;" horiz-adv-x="544" 
d="M372 122v133q-112 3 -184 -26.5t-72 -93.5q0 -41 28.5 -68.5t78.5 -27.5q48 0 87.5 24.5t61.5 58.5zM251 546q84 0 129.5 -40t45.5 -119v-252q0 -91 57 -91h13v-45q-6 -2 -16 -2q-76 0 -98 67h-4q-19 -21 -34.5 -34t-51.5 -27t-80 -14q-71 0 -113 42t-42 99q0 87 83 132
t232 43v63q0 69 -30.5 96.5t-93.5 27.5q-85 0 -131 -67l-43 36q61 85 177 85zM209 734q26 0 70 -16.5t62 -16.5q41 0 61 27l24 -40q-2 -5 -10.5 -12.5t-29 -16t-45.5 -8.5q-22 0 -67 17t-66 17q-40 0 -67 -24l-23 40l5 4l9 7t12.5 7.5t17 7.5t21 5t26.5 2z" />
    <glyph glyph-name="adieresis" unicode="&#xe4;" horiz-adv-x="544" 
d="M372 122v133q-112 3 -184 -26.5t-72 -93.5q0 -41 28.5 -68.5t78.5 -27.5q48 0 87.5 24.5t61.5 58.5zM251 546q84 0 129.5 -40t45.5 -119v-252q0 -91 57 -91h13v-45q-6 -2 -16 -2q-76 0 -98 67h-4q-19 -21 -34.5 -34t-51.5 -27t-80 -14q-71 0 -113 42t-42 99q0 87 83 132
t232 43v63q0 69 -30.5 96.5t-93.5 27.5q-85 0 -131 -67l-43 36q61 85 177 85zM140 708q0 18 11.5 29.5t29.5 11.5q17 0 29 -11.5t12 -29.5q0 -17 -12 -29t-29 -12q-18 0 -29.5 12t-11.5 29zM316 708q0 18 12 29.5t29 11.5q18 0 29.5 -11.5t11.5 -29.5q0 -17 -11.5 -29
t-29.5 -12q-17 0 -29 12t-12 29z" />
    <glyph glyph-name="aring" unicode="&#xe5;" horiz-adv-x="544" 
d="M372 122v133q-112 3 -184 -26.5t-72 -93.5q0 -41 28.5 -68.5t78.5 -27.5q48 0 87.5 24.5t61.5 58.5zM251 546q84 0 129.5 -40t45.5 -119v-252q0 -91 57 -91h13v-45q-6 -2 -16 -2q-76 0 -98 67h-4q-19 -21 -34.5 -34t-51.5 -27t-80 -14q-71 0 -113 42t-42 99q0 87 83 132
t232 43v63q0 69 -30.5 96.5t-93.5 27.5q-85 0 -131 -67l-43 36q61 85 177 85zM169 713q0 46 29.5 75t75.5 29t73.5 -26.5t27.5 -71.5q0 -46 -29.5 -75t-75.5 -29t-73.5 26.5t-27.5 71.5zM332 715q0 29 -17 46t-45 17t-43.5 -16.5t-15.5 -44.5q0 -29 17.5 -46t45.5 -17
q27 0 42.5 16.5t15.5 44.5z" />
    <glyph glyph-name="ae" unicode="&#xe6;" horiz-adv-x="844" 
d="M409 92h-4q-40 -104 -184 -104q-87 0 -128 43t-41 104q0 30 7.5 54t29 47.5t56 39.5t92 25.5t134.5 9.5v62q0 119 -127 119q-81 0 -124 -63l-48 37q67 80 176 80q133 0 167 -87h4q60 88 168 88q92 0 142 -56.5t50 -153.5q0 -48 -4 -91h-349q6 -106 50.5 -152t131.5 -46
q84 0 136 47l28 -50q-56 -51 -172 -51q-141 0 -191 98zM224 37q147 0 147 147v77q-137 0 -199 -27t-62 -92q0 -46 32 -75.5t82 -29.5zM578 493q-60 0 -103.5 -44t-48.5 -149h293l1 35q0 76 -36 117t-106 41z" />
    <glyph glyph-name="ccedilla" unicode="&#xe7;" horiz-adv-x="463" 
d="M58 261q0 144 61 215t162 71q95 0 145 -50l-39 -47q-45 43 -111 43q-158 0 -158 -223q0 -224 158 -224q71 0 109 40l35 -45q-47 -49 -149 -49q-213 0 -213 269zM314 -114q0 -84 -88 -116l-23 34q55 28 55 77q0 32 -23 64v4h61q18 -26 18 -63z" />
    <glyph glyph-name="egrave" unicode="&#xe8;" horiz-adv-x="535" 
d="M424 87l27 -48q-64 -45 -162 -45q-116 0 -173.5 65t-57.5 213q0 140 64.5 207.5t157.5 67.5q92 0 141 -56t49 -153q0 -39 -5 -92h-348q6 -107 49.5 -152.5t130.5 -45.5q78 0 127 39zM273 493q-62 0 -106 -45t-50 -148h293q1 14 1 36q0 157 -138 157zM88 743l61 33
l167 -122l-40 -28z" />
    <glyph glyph-name="eacute" unicode="&#xe9;" horiz-adv-x="535" 
d="M424 87l27 -48q-64 -45 -162 -45q-116 0 -173.5 65t-57.5 213q0 140 64.5 207.5t157.5 67.5q92 0 141 -56t49 -153q0 -39 -5 -92h-348q6 -107 49.5 -152.5t130.5 -45.5q78 0 127 39zM273 493q-62 0 -106 -45t-50 -148h293q1 14 1 36q0 157 -138 157zM472 743l-188 -117
l-40 28l167 122z" />
    <glyph glyph-name="ecircumflex" unicode="&#xea;" horiz-adv-x="535" 
d="M424 87l27 -48q-64 -45 -162 -45q-116 0 -173.5 65t-57.5 213q0 140 64.5 207.5t157.5 67.5q92 0 141 -56t49 -153q0 -39 -5 -92h-348q6 -107 49.5 -152.5t130.5 -45.5q78 0 127 39zM273 493q-62 0 -106 -45t-50 -148h293q1 14 1 36q0 157 -138 157zM456 660l-22 -35
l-167 98l-166 -98l-23 35l189 124z" />
    <glyph glyph-name="edieresis" unicode="&#xeb;" horiz-adv-x="535" 
d="M424 87l27 -48q-64 -45 -162 -45q-116 0 -173.5 65t-57.5 213q0 140 64.5 207.5t157.5 67.5q92 0 141 -56t49 -153q0 -39 -5 -92h-348q6 -107 49.5 -152.5t130.5 -45.5q78 0 127 39zM273 493q-62 0 -106 -45t-50 -148h293q1 14 1 36q0 157 -138 157zM138 708
q0 18 11.5 29.5t29.5 11.5q17 0 29 -11.5t12 -29.5q0 -17 -12 -29t-29 -12q-18 0 -29.5 12t-11.5 29zM314 708q0 18 12 29.5t29 11.5q18 0 29.5 -11.5t11.5 -29.5q0 -17 -11.5 -29t-29.5 -12q-17 0 -29 12t-12 29z" />
    <glyph glyph-name="igrave" unicode="&#xec;" horiz-adv-x="287" 
d="M119 0v539h58v-539h-58zM-40 743l61 33l167 -122l-40 -28z" />
    <glyph glyph-name="iacute" unicode="&#xed;" horiz-adv-x="287" 
d="M119 0v539h58v-539h-58zM329 743l-188 -117l-40 28l167 122z" />
    <glyph glyph-name="icircumflex" unicode="&#xee;" horiz-adv-x="287" 
d="M119 0v539h58v-539h-58zM333 660l-22 -35l-167 98l-166 -98l-23 35l189 124z" />
    <glyph glyph-name="idieresis" unicode="&#xef;" horiz-adv-x="287" 
d="M119 0v539h58v-539h-58zM15 708q0 18 11.5 29.5t29.5 11.5q17 0 29 -11.5t12 -29.5q0 -17 -12 -29t-29 -12q-18 0 -29.5 12t-11.5 29zM191 708q0 18 12 29.5t29 11.5q18 0 29.5 -11.5t11.5 -29.5q0 -17 -11.5 -29t-29.5 -12q-17 0 -29 12t-12 29z" />
    <glyph glyph-name="eth" unicode="&#xf0;" horiz-adv-x="518" 
d="M453 263q0 -123 -52 -193t-157 -70q-89 0 -142.5 59t-53.5 159q0 106 58.5 164.5t145.5 58.5q71 0 115 -28l3 2q-28 84 -84 150l-142 -86v56l108 66q-52 50 -125 94v6h88q47 -28 87 -70l119 73v-56l-86 -53q118 -145 118 -332zM393 257q0 42 -8 87q-19 17 -55 30t-76 13
q-68 0 -107 -41t-39 -123q0 -83 38.5 -125.5t106.5 -42.5q65 0 102.5 49.5t37.5 152.5z" />
    <glyph glyph-name="ntilde" unicode="&#xf1;" horiz-adv-x="564" 
d="M480 371v-371h-58v357q0 67 -33 102.5t-94 35.5q-53 0 -93.5 -30.5t-56.5 -74.5v-390h-58v539h43l13 -59h4q8 11 24 24.5t53 29t79 15.5q82 0 128.5 -45t48.5 -133zM219 734q26 0 70 -16.5t62 -16.5q41 0 61 27l24 -40q-2 -5 -10.5 -12.5t-29 -16t-45.5 -8.5
q-22 0 -67 17t-66 17q-40 0 -67 -24l-23 40l5 4l9 7t12.5 7.5t17 7.5t21 5t26.5 2z" />
    <glyph glyph-name="ograve" unicode="&#xf2;" horiz-adv-x="550" 
d="M118 274q0 -116 38.5 -172t121.5 -56q82 0 118 54t36 168q0 116 -38.5 171.5t-121.5 55.5q-82 0 -118 -53.5t-36 -167.5zM272 -8q-214 0 -214 276q0 281 220 281q214 0 214 -275q0 -282 -220 -282zM87 743l61 33l167 -122l-40 -28z" />
    <glyph glyph-name="oacute" unicode="&#xf3;" horiz-adv-x="550" 
d="M118 274q0 -116 38.5 -172t121.5 -56q82 0 118 54t36 168q0 116 -38.5 171.5t-121.5 55.5q-82 0 -118 -53.5t-36 -167.5zM272 -8q-214 0 -214 276q0 281 220 281q214 0 214 -275q0 -282 -220 -282zM458 743l-188 -117l-40 28l167 122z" />
    <glyph glyph-name="ocircumflex" unicode="&#xf4;" horiz-adv-x="550" 
d="M118 274q0 -116 38.5 -172t121.5 -56q82 0 118 54t36 168q0 116 -38.5 171.5t-121.5 55.5q-82 0 -118 -53.5t-36 -167.5zM272 -8q-214 0 -214 276q0 281 220 281q214 0 214 -275q0 -282 -220 -282zM464 660l-22 -35l-167 98l-166 -98l-23 35l189 124z" />
    <glyph glyph-name="otilde" unicode="&#xf5;" horiz-adv-x="550" 
d="M118 274q0 -116 38.5 -172t121.5 -56q82 0 118 54t36 168q0 116 -38.5 171.5t-121.5 55.5q-82 0 -118 -53.5t-36 -167.5zM272 -8q-214 0 -214 276q0 281 220 281q214 0 214 -275q0 -282 -220 -282zM212 734q26 0 70 -16.5t62 -16.5q41 0 61 27l24 -40q-2 -5 -10.5 -12.5
t-29 -16t-45.5 -8.5q-22 0 -67 17t-66 17q-40 0 -67 -24l-23 40l5 4l9 7t12.5 7.5t17 7.5t21 5t26.5 2z" />
    <glyph glyph-name="odieresis" unicode="&#xf6;" horiz-adv-x="550" 
d="M118 274q0 -116 38.5 -172t121.5 -56q82 0 118 54t36 168q0 116 -38.5 171.5t-121.5 55.5q-82 0 -118 -53.5t-36 -167.5zM272 -8q-214 0 -214 276q0 281 220 281q214 0 214 -275q0 -282 -220 -282zM146 708q0 18 11.5 29.5t29.5 11.5q17 0 29 -11.5t12 -29.5
q0 -17 -12 -29t-29 -12q-18 0 -29.5 12t-11.5 29zM322 708q0 18 12 29.5t29 11.5q18 0 29.5 -11.5t11.5 -29.5q0 -17 -11.5 -29t-29.5 -12q-17 0 -29 12t-12 29z" />
    <glyph glyph-name="divide" unicode="&#xf7;" horiz-adv-x="520" 
d="M30 309v56h459v-56h-459zM207 515q0 22 15 37.5t36 15.5q22 0 37.5 -15t15.5 -38q0 -21 -15.5 -36t-37.5 -15q-21 0 -36 15t-15 36zM207 159q0 22 15 37.5t36 15.5q22 0 37.5 -15t15.5 -38q0 -21 -15.5 -36t-37.5 -15q-21 0 -36 15t-15 36z" />
    <glyph glyph-name="oslash" unicode="&#xf8;" horiz-adv-x="550" 
d="M272 -8q-81 0 -130 38l-26 -39h-56v3l48 71q-50 68 -50 203q0 281 220 281q80 0 131 -39l26 39h55v-3l-48 -71q50 -69 50 -201q0 -282 -220 -282zM432 268q0 96 -27 152l-229 -340q37 -34 102 -34q82 0 118 54t36 168zM118 274q0 -101 27 -154l230 340q-38 35 -103 35
q-82 0 -118 -53.5t-36 -167.5z" />
    <glyph glyph-name="ugrave" unicode="&#xf9;" horiz-adv-x="564" 
d="M84 168v371h58v-354q0 -72 31.5 -107t98.5 -35q65 0 106 36.5t41 111.5v348h58v-539h-43l-13 58h-4q-8 -12 -23.5 -25.5t-52.5 -28.5t-81 -15q-83 0 -128.5 45t-47.5 134zM95 743l61 33l167 -122l-40 -28z" />
    <glyph glyph-name="uacute" unicode="&#xfa;" horiz-adv-x="564" 
d="M84 168v371h58v-354q0 -72 31.5 -107t98.5 -35q65 0 106 36.5t41 111.5v348h58v-539h-43l-13 58h-4q-8 -12 -23.5 -25.5t-52.5 -28.5t-81 -15q-83 0 -128.5 45t-47.5 134zM479 743l-188 -117l-40 28l167 122z" />
    <glyph glyph-name="ucircumflex" unicode="&#xfb;" horiz-adv-x="564" 
d="M84 168v371h58v-354q0 -72 31.5 -107t98.5 -35q65 0 106 36.5t41 111.5v348h58v-539h-43l-13 58h-4q-8 -12 -23.5 -25.5t-52.5 -28.5t-81 -15q-83 0 -128.5 45t-47.5 134zM471 660l-22 -35l-167 98l-166 -98l-23 35l189 124z" />
    <glyph glyph-name="udieresis" unicode="&#xfc;" horiz-adv-x="564" 
d="M84 168v371h58v-354q0 -72 31.5 -107t98.5 -35q65 0 106 36.5t41 111.5v348h58v-539h-43l-13 58h-4q-8 -12 -23.5 -25.5t-52.5 -28.5t-81 -15q-83 0 -128.5 45t-47.5 134zM153 708q0 18 11.5 29.5t29.5 11.5q17 0 29 -11.5t12 -29.5q0 -17 -12 -29t-29 -12
q-18 0 -29.5 12t-11.5 29zM329 708q0 18 12 29.5t29 11.5q18 0 29.5 -11.5t11.5 -29.5q0 -17 -11.5 -29t-29.5 -12q-17 0 -29 12t-12 29z" />
    <glyph glyph-name="yacute" unicode="&#xfd;" horiz-adv-x="486" 
d="M23 -200l9 55q22 -8 49 -8q53 0 84.5 30t53.5 99l-193 563h62l95 -288l64 -198h4q15 61 59 198l93 288h60l-192 -580q-27 -82 -72.5 -124.5t-121.5 -42.5q-28 0 -54 8zM447 743l-188 -117l-40 28l167 122z" />
    <glyph glyph-name="thorn" unicode="&#xfe;" horiz-adv-x="548" 
d="M490 284q0 -137 -66 -215.5t-191 -78.5q-53 0 -88 12v-191h-58v941h58v-254h4q51 45 135 45q91 0 148.5 -64t57.5 -195zM145 58q42 -14 97 -14q86 0 137 60t51 174q0 212 -159 212q-34 0 -70 -16t-56 -44v-372z" />
    <glyph glyph-name="ydieresis" unicode="&#xff;" horiz-adv-x="486" 
d="M23 -200l9 55q22 -8 49 -8q53 0 84.5 30t53.5 99l-193 563h62l95 -288l64 -198h4q15 61 59 198l93 288h60l-192 -580q-27 -82 -72.5 -124.5t-121.5 -42.5q-28 0 -54 8zM114 708q0 18 11.5 29.5t29.5 11.5q17 0 29 -11.5t12 -29.5q0 -17 -12 -29t-29 -12q-18 0 -29.5 12
t-11.5 29zM290 708q0 18 12 29.5t29 11.5q18 0 29.5 -11.5t11.5 -29.5q0 -17 -11.5 -29t-29.5 -12q-17 0 -29 12t-12 29z" />
    <glyph glyph-name="Amacron" unicode="&#x100;" horiz-adv-x="575" 
d="M248 546l-90 -274h258l-89 272l-19.5 58.5l-18.5 57.5h-4l-18.5 -57zM237 701h101l231 -701h-64l-71 216h-294l-71 -216h-63zM439 846h-303v46h303v-46z" />
    <glyph glyph-name="amacron" unicode="&#x101;" horiz-adv-x="544" 
d="M372 122v133q-112 3 -184 -26.5t-72 -93.5q0 -41 28.5 -68.5t78.5 -27.5q48 0 87.5 24.5t61.5 58.5zM251 546q84 0 129.5 -40t45.5 -119v-252q0 -91 57 -91h13v-45q-6 -2 -16 -2q-76 0 -98 67h-4q-19 -21 -34.5 -34t-51.5 -27t-80 -14q-71 0 -113 42t-42 99q0 87 83 132
t232 43v63q0 69 -30.5 96.5t-93.5 27.5q-85 0 -131 -67l-43 36q61 85 177 85zM405 676h-303v46h303v-46z" />
    <glyph glyph-name="Abreve" unicode="&#x102;" horiz-adv-x="575" 
d="M248 546l-90 -274h258l-89 272l-19.5 58.5l-18.5 57.5h-4l-18.5 -57zM237 701h101l231 -701h-64l-71 216h-294l-71 -216h-63zM287 815q-106 0 -159 90l40 26q38 -68 119 -68t119 68l40 -26q-52 -90 -159 -90z" />
    <glyph glyph-name="abreve" unicode="&#x103;" horiz-adv-x="544" 
d="M372 122v133q-112 3 -184 -26.5t-72 -93.5q0 -41 28.5 -68.5t78.5 -27.5q48 0 87.5 24.5t61.5 58.5zM251 546q84 0 129.5 -40t45.5 -119v-252q0 -91 57 -91h13v-45q-6 -2 -16 -2q-76 0 -98 67h-4q-19 -21 -34.5 -34t-51.5 -27t-80 -14q-71 0 -113 42t-42 99q0 87 83 132
t232 43v63q0 69 -30.5 96.5t-93.5 27.5q-85 0 -131 -67l-43 36q61 85 177 85zM255 645q-107 0 -159 90l40 26q38 -68 119 -68t119 68l40 -26q-52 -90 -159 -90z" />
    <glyph glyph-name="Aogonek" unicode="&#x104;" horiz-adv-x="575" 
d="M248 546l-90 -274h258l-89 272l-19.5 58.5l-18.5 57.5h-4l-18.5 -57zM591 -228q-25 -9 -70 -9q-59 0 -89 29.5t-30 76.5q0 78 100 140l-68 207h-294l-71 -216h-63l231 701h101l231 -701q-43 -22 -77 -55t-34 -71q0 -62 81 -62q25 0 44 8z" />
    <glyph glyph-name="aogonek" unicode="&#x105;" horiz-adv-x="544" 
d="M372 122v133q-112 3 -184 -26.5t-72 -93.5q0 -41 28.5 -68.5t78.5 -27.5q48 0 87.5 24.5t61.5 58.5zM251 546q84 0 129.5 -40t45.5 -119v-252q0 -91 57 -91h13v-39l3 -4q-1 0 -3 -2h-2q-42 -22 -74 -55t-32 -69q0 -62 81 -62q25 0 44 8l8 -48q-25 -9 -70 -9
q-59 0 -89 29.5t-30 76.5q0 77 97 138q-33 17 -47 56h-4q-19 -21 -34.5 -34t-51.5 -27t-80 -14q-71 0 -113 42t-42 99q0 87 83 132t232 43v63q0 69 -30.5 96.5t-93.5 27.5q-85 0 -131 -67l-43 36q61 85 177 85z" />
    <glyph glyph-name="Cacute" unicode="&#x106;" horiz-adv-x="563" 
d="M65 346q0 175 72.5 270t208.5 95q116 0 177 -51l-37 -48q-54 42 -147 42q-101 0 -156.5 -75t-55.5 -227q0 -151 55.5 -228t162.5 -77q98 0 140 39l34 -43q-57 -53 -184 -53q-136 0 -203 93.5t-67 262.5zM520 913l-188 -117l-40 28l167 122z" />
    <glyph glyph-name="cacute" unicode="&#x107;" horiz-adv-x="463" 
d="M58 261q0 144 61 215t162 71q95 0 145 -50l-39 -47q-45 43 -111 43q-158 0 -158 -223q0 -224 158 -224q71 0 109 40l35 -45q-47 -49 -149 -49q-213 0 -213 269zM449 743l-188 -117l-40 28l167 122z" />
    <glyph glyph-name="Ccircumflex" unicode="&#x108;" horiz-adv-x="563" 
d="M65 346q0 175 72.5 270t208.5 95q116 0 177 -51l-37 -48q-54 42 -147 42q-101 0 -156.5 -75t-55.5 -227q0 -151 55.5 -228t162.5 -77q98 0 140 39l34 -43q-57 -53 -184 -53q-136 0 -203 93.5t-67 262.5zM533 830l-22 -35l-167 98l-166 -98l-23 35l189 124z" />
    <glyph glyph-name="ccircumflex" unicode="&#x109;" horiz-adv-x="463" 
d="M58 261q0 144 61 215t162 71q95 0 145 -50l-39 -47q-45 43 -111 43q-158 0 -158 -223q0 -224 158 -224q71 0 109 40l35 -45q-47 -49 -149 -49q-213 0 -213 269zM447 660l-22 -35l-167 98l-166 -98l-23 35l189 124z" />
    <glyph glyph-name="Cdotaccent" unicode="&#x10a;" horiz-adv-x="563" 
d="M65 346q0 175 72.5 270t208.5 95q116 0 177 -51l-37 -48q-54 42 -147 42q-101 0 -156.5 -75t-55.5 -227q0 -151 55.5 -228t162.5 -77q98 0 140 39l34 -43q-57 -53 -184 -53q-136 0 -203 93.5t-67 262.5zM293 870q0 21 14 35t34 14q21 0 35 -14t14 -35q0 -20 -14 -34
t-35 -14q-20 0 -34 14t-14 34z" />
    <glyph glyph-name="cdotaccent" unicode="&#x10b;" horiz-adv-x="463" 
d="M58 261q0 144 61 215t162 71q95 0 145 -50l-39 -47q-45 43 -111 43q-158 0 -158 -223q0 -224 158 -224q71 0 109 40l35 -45q-47 -49 -149 -49q-213 0 -213 269zM230 700q0 21 14 35t34 14q21 0 35 -14t14 -35q0 -20 -14 -34t-35 -14q-20 0 -34 14t-14 34z" />
    <glyph glyph-name="Ccaron" unicode="&#x10c;" horiz-adv-x="563" 
d="M65 346q0 175 72.5 270t208.5 95q116 0 177 -51l-37 -48q-54 42 -147 42q-101 0 -156.5 -75t-55.5 -227q0 -151 55.5 -228t162.5 -77q98 0 140 39l34 -43q-57 -53 -184 -53q-136 0 -203 93.5t-67 262.5zM518 922l-189 -124l-189 124l23 35l166 -98l167 98z" />
    <glyph glyph-name="ccaron" unicode="&#x10d;" horiz-adv-x="463" 
d="M58 261q0 144 61 215t162 71q95 0 145 -50l-39 -47q-45 43 -111 43q-158 0 -158 -223q0 -224 158 -224q71 0 109 40l35 -45q-47 -49 -149 -49q-213 0 -213 269zM455 752l-189 -124l-189 124l23 35l166 -98l167 98z" />
    <glyph glyph-name="Dcaron" unicode="&#x10e;" horiz-adv-x="637" 
d="M98 0v701h175q154 0 226.5 -83.5t72.5 -262.5q0 -181 -74.5 -268t-227.5 -87h-172zM158 644v-587h115q122 0 179.5 65.5t57.5 224.5q0 160 -60 228.5t-183 68.5h-109zM488 922l-189 -124l-189 124l23 35l166 -98l167 98z" />
    <glyph glyph-name="dcaron" unicode="&#x10f;" horiz-adv-x="620" 
d="M554 525l-20 34q66 28 66 73q0 39 -54 68v5q0 23 15.5 38.5t38.5 15.5q27 0 45.5 -21t18.5 -60q0 -56 -34.5 -97t-75.5 -56zM404 530v229h58v-759h-42l-15 58h-4q-18 -30 -56 -49.5t-87 -19.5q-96 0 -148 64t-52 194q0 139 69.5 215t191.5 76q43 0 85 -8zM268 42
q98 0 136 98v333q-42 11 -85 11q-201 0 -201 -229q0 -114 42.5 -163.5t107.5 -49.5z" />
    <glyph glyph-name="Dcroat" unicode="&#x110;" horiz-adv-x="648" 
d="M104 0v342h-74v48h74v311h175q154 0 226.5 -83.5t72.5 -262.5q0 -181 -74.5 -268t-227.5 -87h-172zM164 644v-254h172v-48h-172v-285h115q122 0 179.5 65.5t57.5 224.5q0 160 -60 228.5t-183 68.5h-109z" />
    <glyph glyph-name="dcroat" unicode="&#x111;" horiz-adv-x="552" 
d="M404 530v93h-187v48h187v88h58v-88h61v-48h-61v-623l-41 -4l-16 62h-4q-18 -30 -56 -49.5t-87 -19.5q-96 0 -148 64t-52 194q0 139 69.5 215t191.5 76q43 0 85 -8zM268 42q58 0 97 36t39 107v288q-42 11 -85 11q-201 0 -201 -229q0 -114 42.5 -163.5t107.5 -49.5z" />
    <glyph glyph-name="Emacron" unicode="&#x112;" horiz-adv-x="518" 
d="M473 0h-375v701h360v-56h-300v-262h265v-56h-265v-271h315v-56zM432 846h-303v46h303v-46z" />
    <glyph glyph-name="emacron" unicode="&#x113;" horiz-adv-x="535" 
d="M424 87l27 -48q-64 -45 -162 -45q-116 0 -173.5 65t-57.5 213q0 140 64.5 207.5t157.5 67.5q92 0 141 -56t49 -153q0 -39 -5 -92h-348q6 -107 49.5 -152.5t130.5 -45.5q78 0 127 39zM273 493q-62 0 -106 -45t-50 -148h293q1 14 1 36q0 157 -138 157zM419 676h-303v46h303
v-46z" />
    <glyph glyph-name="Ebreve" unicode="&#x114;" horiz-adv-x="518" 
d="M473 0h-375v701h360v-56h-300v-262h265v-56h-265v-271h315v-56zM277 815q-107 0 -159 90l40 26q38 -68 119 -68t119 68l40 -26q-53 -90 -159 -90z" />
    <glyph glyph-name="ebreve" unicode="&#x115;" horiz-adv-x="535" 
d="M424 87l27 -48q-64 -45 -162 -45q-116 0 -173.5 65t-57.5 213q0 140 64.5 207.5t157.5 67.5q92 0 141 -56t49 -153q0 -39 -5 -92h-348q6 -107 49.5 -152.5t130.5 -45.5q78 0 127 39zM273 493q-62 0 -106 -45t-50 -148h293q1 14 1 36q0 157 -138 157zM267 645
q-107 0 -159 90l40 26q38 -68 119 -68t119 68l40 -26q-52 -90 -159 -90z" />
    <glyph glyph-name="Edotaccent" unicode="&#x116;" horiz-adv-x="518" 
d="M473 0h-375v701h360v-56h-300v-262h265v-56h-265v-271h315v-56zM231 870q0 21 14 35t34 14q21 0 35 -14t14 -35q0 -20 -14 -34t-35 -14q-20 0 -34 14t-14 34z" />
    <glyph glyph-name="edotaccent" unicode="&#x117;" horiz-adv-x="535" 
d="M424 87l27 -48q-64 -45 -162 -45q-116 0 -173.5 65t-57.5 213q0 140 64.5 207.5t157.5 67.5q92 0 141 -56t49 -153q0 -39 -5 -92h-348q6 -107 49.5 -152.5t130.5 -45.5q78 0 127 39zM273 493q-62 0 -106 -45t-50 -148h293q1 14 1 36q0 157 -138 157zM219 700q0 21 14 35
t34 14q21 0 35 -14t14 -35q0 -20 -14 -34t-35 -14q-20 0 -34 14t-14 34z" />
    <glyph glyph-name="Eogonek" unicode="&#x118;" horiz-adv-x="518" 
d="M495 -228q-25 -9 -70 -9q-59 0 -89 29.5t-30 76.5q0 73 86 131h-294v701h360v-56h-300v-262h265v-56h-265v-271h315v-56q-43 -22 -77 -55t-34 -71q0 -62 81 -62q25 0 44 8z" />
    <glyph glyph-name="eogonek" unicode="&#x119;" horiz-adv-x="535" 
d="M424 87l27 -48q-6 -4 -29 -17q-100 -55 -100 -120q0 -62 81 -62q25 0 44 8l8 -48q-25 -9 -70 -9q-59 0 -89 29.5t-30 76.5q0 53 45 98q-7 -1 -22 -1q-116 0 -173.5 65t-57.5 213q0 140 64.5 207.5t157.5 67.5q92 0 141 -56t49 -153q0 -39 -5 -92h-348q6 -107 49.5 -152.5
t130.5 -45.5q78 0 127 39zM273 493q-62 0 -106 -45t-50 -148h293q1 14 1 36q0 157 -138 157z" />
    <glyph glyph-name="Ecaron" unicode="&#x11a;" horiz-adv-x="518" 
d="M473 0h-375v701h360v-56h-300v-262h265v-56h-265v-271h315v-56zM448 922l-189 -124l-189 124l23 35l166 -98l167 98z" />
    <glyph glyph-name="ecaron" unicode="&#x11b;" horiz-adv-x="535" 
d="M424 87l27 -48q-64 -45 -162 -45q-116 0 -173.5 65t-57.5 213q0 140 64.5 207.5t157.5 67.5q92 0 141 -56t49 -153q0 -39 -5 -92h-348q6 -107 49.5 -152.5t130.5 -45.5q78 0 127 39zM273 493q-62 0 -106 -45t-50 -148h293q1 14 1 36q0 157 -138 157zM456 752l-189 -124
l-189 124l23 35l166 -98l167 98z" />
    <glyph glyph-name="Gcircumflex" unicode="&#x11c;" horiz-adv-x="630" 
d="M358 711q125 0 185 -55l-39 -48q-51 46 -151 46q-44 0 -80.5 -13t-71 -44.5t-54.5 -93.5t-20 -150q0 -161 56 -234t166 -73q92 0 139 32v277h60v-302q-73 -63 -211 -63q-134 0 -203 90t-69 269q0 181 81.5 271.5t211.5 90.5zM540 830l-22 -35l-167 98l-166 -98l-23 35
l189 124z" />
    <glyph glyph-name="gcircumflex" unicode="&#x11d;" horiz-adv-x="548" 
d="M461 516v-528q0 -103 -57 -156t-158 -53q-105 0 -166 52l34 50q54 -48 144 -48q77 0 111.5 38.5t34.5 116.5v56h-4q-53 -46 -139 -46q-89 0 -146 62.5t-57 190.5q0 137 66 214.5t196 77.5q89 0 141 -27zM403 472q-39 17 -96 17q-87 0 -138 -57.5t-51 -169.5
q0 -115 45.5 -163t114.5 -48q35 0 69.5 16t55.5 44v361zM475 660l-22 -35l-167 98l-166 -98l-23 35l189 124z" />
    <glyph glyph-name="Gbreve" unicode="&#x11e;" horiz-adv-x="630" 
d="M358 711q125 0 185 -55l-39 -48q-51 46 -151 46q-44 0 -80.5 -13t-71 -44.5t-54.5 -93.5t-20 -150q0 -161 56 -234t166 -73q92 0 139 32v277h60v-302q-73 -63 -211 -63q-134 0 -203 90t-69 269q0 181 81.5 271.5t211.5 90.5zM337 815q-107 0 -159 90l40 26
q38 -68 119 -68t119 68l40 -26q-52 -90 -159 -90z" />
    <glyph glyph-name="gbreve" unicode="&#x11f;" horiz-adv-x="548" 
d="M461 516v-528q0 -103 -57 -156t-158 -53q-105 0 -166 52l34 50q54 -48 144 -48q77 0 111.5 38.5t34.5 116.5v56h-4q-53 -46 -139 -46q-89 0 -146 62.5t-57 190.5q0 137 66 214.5t196 77.5q89 0 141 -27zM403 472q-39 17 -96 17q-87 0 -138 -57.5t-51 -169.5
q0 -115 45.5 -163t114.5 -48q35 0 69.5 16t55.5 44v361zM284 645q-106 0 -159 90l40 26q38 -68 119 -68t119 68l40 -26q-53 -90 -159 -90z" />
    <glyph glyph-name="Gdotaccent" unicode="&#x120;" horiz-adv-x="630" 
d="M358 711q125 0 185 -55l-39 -48q-51 46 -151 46q-44 0 -80.5 -13t-71 -44.5t-54.5 -93.5t-20 -150q0 -161 56 -234t166 -73q92 0 139 32v277h60v-302q-73 -63 -211 -63q-134 0 -203 90t-69 269q0 181 81.5 271.5t211.5 90.5zM299 870q0 21 14 35t34 14q21 0 35 -14
t14 -35q0 -20 -14 -34t-35 -14q-20 0 -34 14t-14 34z" />
    <glyph glyph-name="gdotaccent" unicode="&#x121;" horiz-adv-x="548" 
d="M461 516v-528q0 -103 -57 -156t-158 -53q-105 0 -166 52l34 50q54 -48 144 -48q77 0 111.5 38.5t34.5 116.5v56h-4q-53 -46 -139 -46q-89 0 -146 62.5t-57 190.5q0 137 66 214.5t196 77.5q89 0 141 -27zM403 472q-39 17 -96 17q-87 0 -138 -57.5t-51 -169.5
q0 -115 45.5 -163t114.5 -48q35 0 69.5 16t55.5 44v361zM255 696q0 21 14 35t34 14q21 0 35 -14t14 -35q0 -20 -14 -34t-35 -14q-20 0 -34 14t-14 34z" />
    <glyph glyph-name="uni0122" unicode="&#x122;" horiz-adv-x="630" 
d="M334 -321l-20 27q43 25 43 61q0 34 -53 62v5q0 21 14 35t35 14q25 0 42 -19t17 -55q0 -42 -23 -76.5t-55 -53.5zM358 711q125 0 185 -55l-39 -48q-51 46 -151 46q-44 0 -80.5 -13t-71 -44.5t-54.5 -93.5t-20 -150q0 -161 56 -234t166 -73q92 0 139 32v277h60v-302
q-73 -63 -211 -63q-134 0 -203 90t-69 269q0 181 81.5 271.5t211.5 90.5z" />
    <glyph glyph-name="uni0123" unicode="&#x123;" horiz-adv-x="548" 
d="M360 866l20 -34q-66 -28 -66 -73q0 -39 54 -68v-5q0 -23 -15.5 -38.5t-38.5 -15.5q-27 0 -45.5 21t-18.5 60q0 56 34.5 97t75.5 56zM461 516v-528q0 -103 -57 -156t-158 -53q-105 0 -166 52l34 50q54 -48 144 -48q77 0 111.5 38.5t34.5 116.5v56h-4q-53 -46 -139 -46
q-89 0 -146 62.5t-57 190.5q0 137 66 214.5t196 77.5q89 0 141 -27zM403 472q-39 17 -96 17q-87 0 -138 -57.5t-51 -169.5q0 -115 45.5 -163t114.5 -48q35 0 69.5 16t55.5 44v361z" />
    <glyph glyph-name="Hcircumflex" unicode="&#x124;" horiz-adv-x="678" 
d="M520 701h60v-701h-60v328h-362v-328h-60v701h60v-317h362v317zM528 830l-22 -35l-167 98l-166 -98l-23 35l189 124z" />
    <glyph glyph-name="hcircumflex" unicode="&#x125;" horiz-adv-x="564" 
d="M309 549q78 0 124.5 -47t46.5 -127v-375h-58v367q0 56 -30.5 92t-88.5 36q-59 0 -100.5 -31t-57.5 -74v-390h-58v759h58v-282h4q10 13 24.5 26.5t52.5 29.5t83 16zM304 814l-22 -35l-167 98l-166 -98l-23 35l189 124z" />
    <glyph glyph-name="Hbar" unicode="&#x126;" horiz-adv-x="690" 
d="M656 515h-70v-515h-60v328h-362v-328h-60v515h-70v48h70v138h60v-138h362v138h60v-138h70v-48zM164 384h362v131h-362v-131z" />
    <glyph glyph-name="hbar" unicode="&#x127;" horiz-adv-x="567" 
d="M332 623h-184v-146h4q10 13 24.5 26.5t52.5 29.5t83 16q78 0 124.5 -47t46.5 -127v-375h-58v367q0 56 -30.5 92t-88.5 36q-59 0 -100.5 -31t-57.5 -74v-390h-58v623h-64v48h64v88h58v-88h184v-48z" />
    <glyph glyph-name="Itilde" unicode="&#x128;" horiz-adv-x="276" 
d="M108 0v701h60v-701h-60zM75 904q26 0 70 -16.5t62 -16.5q41 0 61 27l24 -40q-2 -5 -10.5 -12.5t-29 -16t-45.5 -8.5q-22 0 -67 17t-66 17q-40 0 -67 -24l-23 40l5 4l9 7t12.5 7.5t17 7.5t21 5t26.5 2z" />
    <glyph glyph-name="itilde" unicode="&#x129;" horiz-adv-x="287" 
d="M119 0v539h58v-539h-58zM81 734q26 0 70 -16.5t62 -16.5q41 0 61 27l24 -40q-2 -5 -10.5 -12.5t-29 -16t-45.5 -8.5q-22 0 -67 17t-66 17q-40 0 -67 -24l-23 40l5 4l9 7t12.5 7.5t17 7.5t21 5t26.5 2z" />
    <glyph glyph-name="Imacron" unicode="&#x12a;" horiz-adv-x="276" 
d="M108 0v701h60v-701h-60zM290 846h-303v46h303v-46z" />
    <glyph glyph-name="imacron" unicode="&#x12b;" horiz-adv-x="287" 
d="M119 0v539h58v-539h-58zM295 676h-303v46h303v-46z" />
    <glyph glyph-name="Ibreve" unicode="&#x12c;" horiz-adv-x="276" 
d="M108 0v701h60v-701h-60zM138 815q-106 0 -159 90l40 26q38 -68 119 -68t119 68l40 -26q-53 -90 -159 -90z" />
    <glyph glyph-name="ibreve" unicode="&#x12d;" horiz-adv-x="287" 
d="M119 0v539h58v-539h-58zM144 645q-106 0 -159 90l40 26q38 -68 119 -68t119 68l40 -26q-52 -90 -159 -90z" />
    <glyph glyph-name="Iogonek" unicode="&#x12e;" horiz-adv-x="276" 
d="M190 -228q-25 -9 -70 -9q-59 0 -89 29.5t-30 76.5q0 81 107 144v688h60v-701q-43 -22 -77 -55t-34 -71q0 -62 81 -62q25 0 44 8z" />
    <glyph glyph-name="iogonek" unicode="&#x12f;" horiz-adv-x="287" 
d="M95 700q0 21 14 35t34 14q21 0 35 -14t14 -35q0 -20 -14 -34t-35 -14q-20 0 -34 14t-14 34zM199 -228q-25 -9 -70 -9q-59 0 -89 29.5t-30 76.5q0 82 109 145v525h58v-539q-43 -22 -77 -55t-34 -71q0 -62 81 -62q25 0 44 8z" />
    <glyph glyph-name="Idotaccent" unicode="&#x130;" horiz-adv-x="276" 
d="M108 0v701h60v-701h-60zM90 870q0 21 14 35t34 14q21 0 35 -14t14 -35q0 -20 -14 -34t-35 -14q-20 0 -34 14t-14 34z" />
    <glyph glyph-name="dotlessi" unicode="&#x131;" horiz-adv-x="287" 
d="M119 0v539h58v-539h-58z" />
    <glyph glyph-name="IJ" unicode="&#x132;" horiz-adv-x="649" 
d="M108 0v701h60v-701h-60zM285 7l21 56q38 -20 95 -20q48 0 69 22.5t21 72.5v563h60v-563q0 -68 -39 -109.5t-119 -41.5q-68 0 -108 20z" />
    <glyph glyph-name="ij" unicode="&#x133;" horiz-adv-x="531" 
d="M119 0v539h58v-539h-58zM95 700q0 21 14 35t34 14q21 0 35 -14t14 -35q0 -20 -14 -34t-35 -14q-20 0 -34 14t-14 34zM283 -222l-21 51q25 8 43.5 19t37 32t28 57.5t9.5 86.5v515h58v-517q0 -194 -155 -244zM356 700q0 21 14 35t34 14q21 0 35 -14t14 -35q0 -20 -14 -34
t-35 -14q-20 0 -34 14t-14 34z" />
    <glyph glyph-name="Jcircumflex" unicode="&#x134;" horiz-adv-x="373" 
d="M9 7l21 56q38 -20 95 -20q48 0 69 22.5t21 72.5v563h60v-563q0 -68 -39 -109.5t-119 -41.5q-68 0 -108 20zM432 830l-22 -35l-167 98l-166 -98l-23 35l189 124z" />
    <glyph glyph-name="jcircumflex" unicode="&#x135;" horiz-adv-x="264" 
d="M6 -222l-21 51q25 8 43.5 19t37 32t28 57.5t9.5 86.5v515h58v-517q0 -194 -155 -244zM321 660l-22 -35l-167 98l-166 -98l-23 35l189 124z" />
    <glyph glyph-name="uni0136" unicode="&#x136;" horiz-adv-x="559" 
d="M277 -321l-20 27q43 25 43 61q0 34 -53 62v5q0 21 14 35t35 14q25 0 42 -19t17 -55q0 -42 -23 -76.5t-55 -53.5zM158 701v-701h-60v701h60zM190 349l257 352h71l-257 -353l280 -348h-78l-273 345v4z" />
    <glyph glyph-name="uni0137" unicode="&#x137;" horiz-adv-x="482" 
d="M235 -321l-20 27q43 25 43 61q0 34 -53 62v5q0 21 14 35t35 14q25 0 42 -19t17 -55q0 -42 -23 -76.5t-55 -53.5zM145 759v-759h-58v759h58zM163 274v4l206 261h77l-210 -259v-4l224 -276h-77z" />
    <glyph glyph-name="kgreenlandic" unicode="&#x138;" horiz-adv-x="482" 
d="M87 539h58v-539h-58v539zM169 254v4l200 281h73l-201 -277v-4l219 -258h-77z" />
    <glyph glyph-name="Lacute" unicode="&#x139;" horiz-adv-x="486" 
d="M98 701h60v-645h313v-56h-373v701zM319 913l-188 -117l-40 28l167 122z" />
    <glyph glyph-name="lacute" unicode="&#x13a;" horiz-adv-x="281" 
d="M94 759h58v-643q0 -38 13.5 -55t45.5 -17q28 0 52 13v-52q-27 -12 -67 -12q-102 0 -102 107v659zM314 918l-188 -117l-40 28l167 122z" />
    <glyph glyph-name="uni013B" unicode="&#x13b;" horiz-adv-x="486" 
d="M253 -321l-20 27q43 25 43 61q0 34 -53 62v5q0 21 14 35t35 14q25 0 42 -19t17 -55q0 -42 -23 -76.5t-55 -53.5zM98 701h60v-645h313v-56h-373v701z" />
    <glyph glyph-name="uni013C" unicode="&#x13c;" horiz-adv-x="281" 
d="M139 -321l-20 27q43 25 43 61q0 34 -53 62v5q0 21 14 35t35 14q25 0 42 -19t17 -55q0 -42 -23 -76.5t-55 -53.5zM94 759h58v-643q0 -38 13.5 -55t45.5 -17q28 0 52 13v-52q-27 -12 -67 -12q-102 0 -102 107v659z" />
    <glyph glyph-name="Lcaron" unicode="&#x13d;" horiz-adv-x="486" 
d="M255 470l-20 34q66 28 66 73q0 39 -54 68v5q0 23 15.5 38.5t38.5 15.5q27 0 45.5 -21t18.5 -60q0 -56 -34.5 -97t-75.5 -56zM98 701h60v-645h313v-56h-373v701z" />
    <glyph glyph-name="lcaron" unicode="&#x13e;" horiz-adv-x="345" 
d="M261 522l-20 34q66 28 66 73q0 39 -54 68v5q0 23 15.5 38.5t38.5 15.5q27 0 45.5 -21t18.5 -60q0 -56 -34.5 -97t-75.5 -56zM94 759h58v-643q0 -38 13.5 -55t45.5 -17q28 0 52 13v-52q-27 -12 -67 -12q-102 0 -102 107v659z" />
    <glyph glyph-name="Ldot" unicode="&#x13f;" horiz-adv-x="486" 
d="M287 373q0 22 15 37.5t36 15.5q22 0 37.5 -15t15.5 -38q0 -21 -15.5 -36t-37.5 -15q-21 0 -36 15t-15 36zM98 701h60v-645h313v-56h-373v701z" />
    <glyph glyph-name="ldot" unicode="&#x140;" horiz-adv-x="368" 
d="M264 403q0 22 15 37.5t36 15.5q23 0 38 -15t15 -38q0 -21 -15.5 -36t-37.5 -15q-21 0 -36 15t-15 36zM94 759h58v-643q0 -38 13.5 -55t45.5 -17q28 0 52 13v-52q-27 -12 -67 -12q-102 0 -102 107v659z" />
    <glyph glyph-name="Lslash" unicode="&#x141;" horiz-adv-x="492" 
d="M298 470l-134 -107v-307h313v-56h-373v314l-58 -46v56l58 46v331h60v-282l134 107v-56z" />
    <glyph glyph-name="lslash" unicode="&#x142;" horiz-adv-x="293" 
d="M259 451l-101 -82v-253q0 -38 13.5 -55t45.5 -17q28 0 52 13v-52q-27 -12 -67 -12q-102 0 -102 107v222l-53 -43v56l53 43v381h58v-334l101 82v-56z" />
    <glyph glyph-name="Nacute" unicode="&#x143;" horiz-adv-x="690" 
d="M163 631h-8v-631h-57v701h93l261 -489l38 -71l38 -71h8v631h56v-701h-92l-260 487l-38.5 72zM546 913l-188 -117l-40 28l167 122z" />
    <glyph glyph-name="nacute" unicode="&#x144;" horiz-adv-x="564" 
d="M480 371v-371h-58v357q0 67 -33 102.5t-94 35.5q-53 0 -93.5 -30.5t-56.5 -74.5v-390h-58v539h43l13 -59h4q8 11 24 24.5t53 29t79 15.5q82 0 128.5 -45t48.5 -133zM486 743l-188 -117l-40 28l167 122z" />
    <glyph glyph-name="uni0145" unicode="&#x145;" horiz-adv-x="690" 
d="M321 -321l-20 27q43 25 43 61q0 34 -53 62v5q0 21 14 35t35 14q25 0 42 -19t17 -55q0 -42 -23 -76.5t-55 -53.5zM163 631h-8v-631h-57v701h93l261 -489l38 -71l38 -71h8v631h56v-701h-92l-260 487l-38.5 72z" />
    <glyph glyph-name="uni0146" unicode="&#x146;" horiz-adv-x="564" 
d="M258 -321l-20 27q43 25 43 61q0 34 -53 62v5q0 21 14 35t35 14q25 0 42 -19t17 -55q0 -42 -23 -76.5t-55 -53.5zM480 371v-371h-58v357q0 67 -33 102.5t-94 35.5q-53 0 -93.5 -30.5t-56.5 -74.5v-390h-58v539h43l13 -59h4q8 11 24 24.5t53 29t79 15.5q82 0 128.5 -45
t48.5 -133z" />
    <glyph glyph-name="Ncaron" unicode="&#x147;" horiz-adv-x="690" 
d="M163 631h-8v-631h-57v701h93l261 -489l38 -71l38 -71h8v631h56v-701h-92l-260 487l-38.5 72zM534 922l-189 -124l-189 124l23 35l166 -98l167 98z" />
    <glyph glyph-name="ncaron" unicode="&#x148;" horiz-adv-x="564" 
d="M480 371v-371h-58v357q0 67 -33 102.5t-94 35.5q-53 0 -93.5 -30.5t-56.5 -74.5v-390h-58v539h43l13 -59h4q8 11 24 24.5t53 29t79 15.5q82 0 128.5 -45t48.5 -133zM471 752l-189 -124l-189 124l23 35l166 -98l167 98z" />
    <glyph glyph-name="napostrophe" unicode="&#x149;" horiz-adv-x="644" 
d="M13 489l-20 34q66 28 66 73q0 39 -54 68v5q0 23 15.5 38.5t38.5 15.5q27 0 45.5 -21t18.5 -60q0 -56 -34.5 -97t-75.5 -56zM560 371v-371h-58v357q0 67 -33 102.5t-94 35.5q-53 0 -93.5 -30.5t-56.5 -74.5v-390h-58v539h43l13 -59h4q8 11 24 24.5t53 29t79 15.5
q82 0 128.5 -45t48.5 -133z" />
    <glyph glyph-name="Eng" unicode="&#x14a;" horiz-adv-x="690" 
d="M163 631h-8v-631h-57v701h93l261 -489l38 -71l38 -71h8v631h56v-679q0 -194 -155 -244l-21 51q50 16 82 53t37 118h-35l-260 487l-38.5 72z" />
    <glyph glyph-name="eng" unicode="&#x14b;" horiz-adv-x="567" 
d="M325 -222l-21 51q25 8 43.5 19t37 32t28 57.5t9.5 86.5v333q0 67 -32.5 102.5t-93.5 35.5q-53 0 -94.5 -30.5t-56.5 -74.5v-390h-58v539h43l13 -59h4q8 11 24 24.5t53 29t79 15.5q82 0 128.5 -45t48.5 -133v-349q0 -194 -155 -244z" />
    <glyph glyph-name="Omacron" unicode="&#x14c;" horiz-adv-x="664" 
d="M127 354q0 -165 53 -236t153 -71t152 68t52 232q0 165 -53 236t-153 71q-99 0 -151.5 -68.5t-52.5 -231.5zM599 354q0 -364 -271 -364q-263 0 -263 357q0 364 271 364q263 0 263 -357zM483 846h-303v46h303v-46z" />
    <glyph glyph-name="omacron" unicode="&#x14d;" horiz-adv-x="550" 
d="M118 274q0 -116 38.5 -172t121.5 -56q82 0 118 54t36 168q0 116 -38.5 171.5t-121.5 55.5q-82 0 -118 -53.5t-36 -167.5zM272 -8q-214 0 -214 276q0 281 220 281q214 0 214 -275q0 -282 -220 -282zM426 676h-303v46h303v-46z" />
    <glyph glyph-name="Obreve" unicode="&#x14e;" horiz-adv-x="664" 
d="M127 354q0 -165 53 -236t153 -71t152 68t52 232q0 165 -53 236t-153 71q-99 0 -151.5 -68.5t-52.5 -231.5zM599 354q0 -364 -271 -364q-263 0 -263 357q0 364 271 364q263 0 263 -357zM332 815q-106 0 -159 90l40 26q38 -68 119 -68t119 68l40 -26q-53 -90 -159 -90z" />
    <glyph glyph-name="obreve" unicode="&#x14f;" horiz-adv-x="550" 
d="M118 274q0 -116 38.5 -172t121.5 -56q82 0 118 54t36 168q0 116 -38.5 171.5t-121.5 55.5q-82 0 -118 -53.5t-36 -167.5zM272 -8q-214 0 -214 276q0 281 220 281q214 0 214 -275q0 -282 -220 -282zM275 645q-107 0 -159 90l40 26q38 -68 119 -68t119 68l40 -26
q-52 -90 -159 -90z" />
    <glyph glyph-name="Ohungarumlaut" unicode="&#x150;" horiz-adv-x="664" 
d="M127 354q0 -165 53 -236t153 -71t152 68t52 232q0 165 -53 236t-153 71q-99 0 -151.5 -68.5t-52.5 -231.5zM599 354q0 -364 -271 -364q-263 0 -263 357q0 364 271 364q263 0 263 -357zM634 913l-188 -117l-40 28l167 122zM433 913l-188 -117l-40 28l167 122z" />
    <glyph glyph-name="ohungarumlaut" unicode="&#x151;" horiz-adv-x="550" 
d="M118 274q0 -116 38.5 -172t121.5 -56q82 0 118 54t36 168q0 116 -38.5 171.5t-121.5 55.5q-82 0 -118 -53.5t-36 -167.5zM272 -8q-214 0 -214 276q0 281 220 281q214 0 214 -275q0 -282 -220 -282zM559 743l-188 -117l-40 28l167 122zM358 743l-188 -117l-40 28l167 122z
" />
    <glyph glyph-name="OE" unicode="&#x152;" horiz-adv-x="956" 
d="M911 0h-372v95h-4q-62 -105 -207 -105q-263 0 -263 357q0 364 271 364q140 0 199 -100h4v90h357v-56h-300v-262h265v-56h-265v-271h315v-56zM127 354q0 -165 53 -236t153 -71t153.5 68.5t53.5 231.5q0 165 -54 236t-155 71q-99 0 -151.5 -68.5t-52.5 -231.5z" />
    <glyph glyph-name="oe" unicode="&#x153;" horiz-adv-x="909" 
d="M464 105h-4q-51 -113 -188 -113q-214 0 -214 276q0 281 220 281q142 0 185 -115h4q26 56 76 84.5t111 28.5q91 0 140.5 -56.5t49.5 -153.5q0 -48 -4 -91h-350q6 -103 50 -150.5t134 -47.5q83 0 135 47l28 -50q-56 -51 -171 -51q-155 0 -202 111zM118 274
q0 -116 38.5 -172t121.5 -56t119.5 54.5t36.5 175.5q0 219 -162 219q-82 0 -118 -53.5t-36 -167.5zM645 493q-144 0 -155 -193h294q1 14 1 35q0 158 -140 158z" />
    <glyph glyph-name="Racute" unicode="&#x154;" horiz-adv-x="590" 
d="M98 701h162q231 0 231 -195q0 -81 -47 -132.5t-114 -57.5v-4q43 -18 83 -86l135 -226h-72l-130 223q-45 76 -121 76h-67v-299h-60v701zM158 645v-291h99q172 0 172 145q0 78 -44.5 112t-134.5 34h-92zM470 913l-188 -117l-40 28l167 122z" />
    <glyph glyph-name="racute" unicode="&#x155;" horiz-adv-x="345" 
d="M339 541v-62q-30 9 -60 9q-100 0 -134 -77v-411h-58v539h43l13 -55h4q20 28 56 45.5t79 17.5q33 0 57 -6zM295 743l-188 -117l-40 28l167 122z" />
    <glyph glyph-name="uni0156" unicode="&#x156;" horiz-adv-x="590" 
d="M291 -321l-20 27q43 25 43 61q0 34 -53 62v5q0 21 14 35t35 14q25 0 42 -19t17 -55q0 -42 -23 -76.5t-55 -53.5zM98 701h162q231 0 231 -195q0 -81 -47 -132.5t-114 -57.5v-4q43 -18 83 -86l135 -226h-72l-130 223q-45 76 -121 76h-67v-299h-60v701zM158 645v-291h99
q172 0 172 145q0 78 -44.5 112t-134.5 34h-92z" />
    <glyph glyph-name="uni0157" unicode="&#x157;" horiz-adv-x="345" 
d="M91 -321l-20 27q43 25 43 61q0 34 -53 62v5q0 21 14 35t35 14q25 0 42 -19t17 -55q0 -42 -23 -76.5t-55 -53.5zM339 541v-62q-30 9 -60 9q-100 0 -134 -77v-411h-58v539h43l13 -55h4q20 28 56 45.5t79 17.5q33 0 57 -6z" />
    <glyph glyph-name="Rcaron" unicode="&#x158;" horiz-adv-x="590" 
d="M98 701h162q231 0 231 -195q0 -81 -47 -132.5t-114 -57.5v-4q43 -18 83 -86l135 -226h-72l-130 223q-45 76 -121 76h-67v-299h-60v701zM158 645v-291h99q172 0 172 145q0 78 -44.5 112t-134.5 34h-92zM484 922l-189 -124l-189 124l23 35l166 -98l167 98z" />
    <glyph glyph-name="rcaron" unicode="&#x159;" horiz-adv-x="345" 
d="M339 541v-62q-30 9 -60 9q-100 0 -134 -77v-411h-58v539h43l13 -55h4q20 28 56 45.5t79 17.5q33 0 57 -6zM362 752l-189 -124l-189 124l23 35l166 -98l167 98z" />
    <glyph glyph-name="Sacute" unicode="&#x15a;" horiz-adv-x="522" 
d="M249 47q76 0 118.5 36.5t42.5 93.5q0 35 -18.5 61.5t-48.5 44.5t-65.5 34t-71.5 34t-66 40t-48.5 57t-18.5 80q0 78 59 130.5t150 52.5q105 0 172 -52l-37 -49q-59 44 -138 44q-67 0 -106 -34t-39 -89q0 -48 34.5 -82t84 -56l99.5 -46t84.5 -66t34.5 -101q0 -82 -61 -136
t-165 -54q-130 0 -213 70l37 48q78 -61 180 -61zM471 913l-188 -117l-40 28l167 122z" />
    <glyph glyph-name="sacute" unicode="&#x15b;" horiz-adv-x="468" 
d="M346 141q0 37 -28.5 60.5t-69.5 37.5t-81.5 30t-69 49t-28.5 84q0 60 48 102.5t132 42.5q42 0 82.5 -14t64.5 -38l-38 -44q-40 42 -111 42q-60 0 -90 -25.5t-30 -64.5q0 -31 20.5 -53t51.5 -33t66.5 -26t66.5 -30t51.5 -46t20.5 -74q0 -61 -49.5 -105.5t-136.5 -44.5
q-116 0 -183 65l38 46q57 -57 148 -57q60 0 92.5 27.5t32.5 68.5zM434 743l-188 -117l-40 28l167 122z" />
    <glyph glyph-name="Scircumflex" unicode="&#x15c;" horiz-adv-x="522" 
d="M249 47q76 0 118.5 36.5t42.5 93.5q0 35 -18.5 61.5t-48.5 44.5t-65.5 34t-71.5 34t-66 40t-48.5 57t-18.5 80q0 78 59 130.5t150 52.5q105 0 172 -52l-37 -49q-59 44 -138 44q-67 0 -106 -34t-39 -89q0 -48 34.5 -82t84 -56l99.5 -46t84.5 -66t34.5 -101q0 -82 -61 -136
t-165 -54q-130 0 -213 70l37 48q78 -61 180 -61zM450 830l-22 -35l-167 98l-166 -98l-23 35l189 124z" />
    <glyph glyph-name="scircumflex" unicode="&#x15d;" horiz-adv-x="468" 
d="M346 141q0 37 -28.5 60.5t-69.5 37.5t-81.5 30t-69 49t-28.5 84q0 60 48 102.5t132 42.5q42 0 82.5 -14t64.5 -38l-38 -44q-40 42 -111 42q-60 0 -90 -25.5t-30 -64.5q0 -31 20.5 -53t51.5 -33t66.5 -26t66.5 -30t51.5 -46t20.5 -74q0 -61 -49.5 -105.5t-136.5 -44.5
q-116 0 -183 65l38 46q57 -57 148 -57q60 0 92.5 27.5t32.5 68.5zM423 660l-22 -35l-167 98l-166 -98l-23 35l189 124z" />
    <glyph glyph-name="uni015E" unicode="&#x15e;" horiz-adv-x="522" 
d="M249 47q76 0 118.5 36.5t42.5 93.5q0 35 -18.5 61.5t-48.5 44.5t-65.5 34t-71.5 34t-66 40t-48.5 57t-18.5 80q0 78 59 130.5t150 52.5q105 0 172 -52l-37 -49q-59 44 -138 44q-67 0 -106 -34t-39 -89q0 -48 34.5 -82t84 -56l99.5 -46t84.5 -66t34.5 -101q0 -82 -61 -136
t-165 -54q-130 0 -213 70l37 48q78 -61 180 -61zM307 -114q0 -84 -88 -116l-23 34q55 28 55 77q0 32 -23 64v4h61q18 -26 18 -63z" />
    <glyph glyph-name="uni015F" unicode="&#x15f;" horiz-adv-x="468" 
d="M346 141q0 37 -28.5 60.5t-69.5 37.5t-81.5 30t-69 49t-28.5 84q0 60 48 102.5t132 42.5q42 0 82.5 -14t64.5 -38l-38 -44q-40 42 -111 42q-60 0 -90 -25.5t-30 -64.5q0 -31 20.5 -53t51.5 -33t66.5 -26t66.5 -30t51.5 -46t20.5 -74q0 -61 -49.5 -105.5t-136.5 -44.5
q-116 0 -183 65l38 46q57 -57 148 -57q60 0 92.5 27.5t32.5 68.5zM282 -114q0 -84 -88 -116l-23 34q55 28 55 77q0 32 -23 64v4h61q18 -26 18 -63z" />
    <glyph glyph-name="Scaron" unicode="&#x160;" horiz-adv-x="522" 
d="M249 47q76 0 118.5 36.5t42.5 93.5q0 35 -18.5 61.5t-48.5 44.5t-65.5 34t-71.5 34t-66 40t-48.5 57t-18.5 80q0 78 59 130.5t150 52.5q105 0 172 -52l-37 -49q-59 44 -138 44q-67 0 -106 -34t-39 -89q0 -48 34.5 -82t84 -56l99.5 -46t84.5 -66t34.5 -101q0 -82 -61 -136
t-165 -54q-130 0 -213 70l37 48q78 -61 180 -61zM462 922l-189 -124l-189 124l23 35l166 -98l167 98z" />
    <glyph glyph-name="scaron" unicode="&#x161;" horiz-adv-x="468" 
d="M346 141q0 37 -28.5 60.5t-69.5 37.5t-81.5 30t-69 49t-28.5 84q0 60 48 102.5t132 42.5q42 0 82.5 -14t64.5 -38l-38 -44q-40 42 -111 42q-60 0 -90 -25.5t-30 -64.5q0 -31 20.5 -53t51.5 -33t66.5 -26t66.5 -30t51.5 -46t20.5 -74q0 -61 -49.5 -105.5t-136.5 -44.5
q-116 0 -183 65l38 46q57 -57 148 -57q60 0 92.5 27.5t32.5 68.5zM423 752l-189 -124l-189 124l23 35l166 -98l167 98z" />
    <glyph glyph-name="uni0162" unicode="&#x162;" horiz-adv-x="469" 
d="M210 -321l-20 27q43 25 43 61q0 34 -53 62v5q0 21 14 35t35 14q25 0 42 -19t17 -55q0 -42 -23 -76.5t-55 -53.5zM205 0v645h-191v56h441v-56h-190v-645h-60z" />
    <glyph glyph-name="uni0163" unicode="&#x163;" horiz-adv-x="375" 
d="M163 -321l-20 27q43 25 43 61q0 34 -53 62v5q0 21 14 35t35 14q25 0 42 -19t17 -55q0 -42 -23 -76.5t-55 -53.5zM237 -5q-132 0 -132 140v354h-83v38l83 12l16 143h42v-143h152v-50h-152v-347q0 -94 84 -94q54 0 85 18l17 -49q-42 -22 -112 -22z" />
    <glyph glyph-name="Tcaron" unicode="&#x164;" horiz-adv-x="469" 
d="M205 0v645h-191v56h441v-56h-190v-645h-60zM424 922l-189 -124l-189 124l23 35l166 -98l167 98z" />
    <glyph glyph-name="tcaron" unicode="&#x165;" horiz-adv-x="375" 
d="M254 601l-20 34q66 28 66 73q0 39 -54 68v5q0 23 15.5 38.5t38.5 15.5q27 0 45.5 -21t18.5 -60q0 -56 -34.5 -97t-75.5 -56zM237 -5q-132 0 -132 140v354h-83v38l83 12l16 143h42v-143h152v-50h-152v-347q0 -94 84 -94q54 0 85 18l17 -49q-42 -22 -112 -22z" />
    <glyph glyph-name="Tbar" unicode="&#x166;" horiz-adv-x="473" 
d="M388 332h-121v-332h-60v332h-122v46h122v267h-191v56h441v-56h-190v-267h121v-46z" />
    <glyph glyph-name="tbar" unicode="&#x167;" horiz-adv-x="375" 
d="M237 -5q-132 0 -132 140v174h-83v38l83 12v130h-83v38l83 12l16 143h42v-143h152v-50h-152v-130h152v-50h-152v-167q0 -94 84 -94q54 0 85 18l17 -49q-42 -22 -112 -22z" />
    <glyph glyph-name="Utilde" unicode="&#x168;" horiz-adv-x="675" 
d="M340 47q180 0 180 182v472h60v-466q0 -117 -64 -181t-182 -64q-114 0 -176.5 62t-62.5 177v472h60v-465q0 -96 49.5 -142.5t135.5 -46.5zM274 904q26 0 70 -16.5t62 -16.5q41 0 61 27l24 -40q-2 -5 -10.5 -12.5t-29 -16t-45.5 -8.5q-22 0 -67 17t-66 17q-40 0 -67 -24
l-23 40l5 4l9 7t12.5 7.5t17 7.5t21 5t26.5 2z" />
    <glyph glyph-name="utilde" unicode="&#x169;" horiz-adv-x="564" 
d="M84 168v371h58v-354q0 -72 31.5 -107t98.5 -35q65 0 106 36.5t41 111.5v348h58v-539h-43l-13 58h-4q-8 -12 -23.5 -25.5t-52.5 -28.5t-81 -15q-83 0 -128.5 45t-47.5 134zM219 734q26 0 70 -16.5t62 -16.5q41 0 61 27l24 -40q-2 -5 -10.5 -12.5t-29 -16t-45.5 -8.5
q-22 0 -67 17t-66 17q-40 0 -67 -24l-23 40l5 4l9 7t12.5 7.5t17 7.5t21 5t26.5 2z" />
    <glyph glyph-name="Umacron" unicode="&#x16a;" horiz-adv-x="675" 
d="M340 47q180 0 180 182v472h60v-466q0 -117 -64 -181t-182 -64q-114 0 -176.5 62t-62.5 177v472h60v-465q0 -96 49.5 -142.5t135.5 -46.5zM489 846h-303v46h303v-46z" />
    <glyph glyph-name="umacron" unicode="&#x16b;" horiz-adv-x="564" 
d="M84 168v371h58v-354q0 -72 31.5 -107t98.5 -35q65 0 106 36.5t41 111.5v348h58v-539h-43l-13 58h-4q-8 -12 -23.5 -25.5t-52.5 -28.5t-81 -15q-83 0 -128.5 45t-47.5 134zM433 676h-303v46h303v-46z" />
    <glyph glyph-name="Ubreve" unicode="&#x16c;" horiz-adv-x="675" 
d="M340 47q180 0 180 182v472h60v-466q0 -117 -64 -181t-182 -64q-114 0 -176.5 62t-62.5 177v472h60v-465q0 -96 49.5 -142.5t135.5 -46.5zM337 815q-107 0 -159 90l40 26q38 -68 119 -68t119 68l40 -26q-52 -90 -159 -90z" />
    <glyph glyph-name="ubreve" unicode="&#x16d;" horiz-adv-x="564" 
d="M84 168v371h58v-354q0 -72 31.5 -107t98.5 -35q65 0 106 36.5t41 111.5v348h58v-539h-43l-13 58h-4q-8 -12 -23.5 -25.5t-52.5 -28.5t-81 -15q-83 0 -128.5 45t-47.5 134zM282 645q-106 0 -159 90l40 26q38 -68 119 -68t119 68l40 -26q-53 -90 -159 -90z" />
    <glyph glyph-name="Uring" unicode="&#x16e;" horiz-adv-x="675" 
d="M340 47q180 0 180 182v472h60v-466q0 -117 -64 -181t-182 -64q-114 0 -176.5 62t-62.5 177v472h60v-465q0 -96 49.5 -142.5t135.5 -46.5zM234 883q0 46 29.5 75t75.5 29t73.5 -26.5t27.5 -71.5q0 -46 -29.5 -75t-75.5 -29t-73.5 26.5t-27.5 71.5zM397 885q0 29 -17 46
t-45 17t-43.5 -16.5t-15.5 -44.5q0 -29 17 -46t46 -17q27 0 42.5 16.5t15.5 44.5z" />
    <glyph glyph-name="uring" unicode="&#x16f;" horiz-adv-x="564" 
d="M84 168v371h58v-354q0 -72 31.5 -107t98.5 -35q65 0 106 36.5t41 111.5v348h58v-539h-43l-13 58h-4q-8 -12 -23.5 -25.5t-52.5 -28.5t-81 -15q-83 0 -128.5 45t-47.5 134zM179 713q0 46 29.5 75t75.5 29t73.5 -26.5t27.5 -71.5q0 -46 -29.5 -75t-75.5 -29t-73.5 26.5
t-27.5 71.5zM342 715q0 29 -17 46t-45 17t-43.5 -16.5t-15.5 -44.5q0 -29 17.5 -46t45.5 -17q27 0 42.5 16.5t15.5 44.5z" />
    <glyph glyph-name="Uhungarumlaut" unicode="&#x170;" horiz-adv-x="675" 
d="M340 47q180 0 180 182v472h60v-466q0 -117 -64 -181t-182 -64q-114 0 -176.5 62t-62.5 177v472h60v-465q0 -96 49.5 -142.5t135.5 -46.5zM621 913l-188 -117l-40 28l167 122zM420 913l-188 -117l-40 28l167 122z" />
    <glyph glyph-name="uhungarumlaut" unicode="&#x171;" horiz-adv-x="564" 
d="M84 168v371h58v-354q0 -72 31.5 -107t98.5 -35q65 0 106 36.5t41 111.5v348h58v-539h-43l-13 58h-4q-8 -12 -23.5 -25.5t-52.5 -28.5t-81 -15q-83 0 -128.5 45t-47.5 134zM575 743l-188 -117l-40 28l167 122zM374 743l-188 -117l-40 28l167 122z" />
    <glyph glyph-name="Uogonek" unicode="&#x172;" horiz-adv-x="675" 
d="M340 47q180 0 180 182v472h60v-466q0 -172 -133 -226q-43 -22 -76.5 -54.5t-33.5 -70.5q0 -62 81 -62q25 0 44 8l8 -48q-25 -9 -70 -9q-59 0 -89 29.5t-30 76.5q0 60 60 111h-7q-114 0 -176.5 62t-62.5 177v472h60v-465q0 -96 49.5 -142.5t135.5 -46.5z" />
    <glyph glyph-name="uogonek" unicode="&#x173;" horiz-adv-x="564" 
d="M499 -228q-25 -9 -70 -9q-59 0 -89 29.5t-30 76.5q0 86 120 151l-9 38h-4q-8 -12 -23.5 -25.5t-52.5 -28.5t-81 -15q-83 0 -128.5 45t-47.5 134v371h58v-354q0 -72 31.5 -107t98.5 -35q65 0 106 36.5t41 111.5v348h58v-539q-43 -22 -77 -55t-34 -71q0 -62 81 -62
q25 0 44 8z" />
    <glyph glyph-name="Wcircumflex" unicode="&#x174;" horiz-adv-x="916" 
d="M240 51h4q7 29 22.5 88t22.5 88l120 474h98l123 -480l22.5 -85l21.5 -85h4q8 28 22 84.5t22 84.5l124 481h60l-181 -701h-98l-124 485l-21.5 85l-22.5 85h-4l-21.5 -85l-21.5 -86l-123 -484h-98l-181 701h61l123 -474l23.5 -88t22.5 -88zM647 830l-22 -35l-167 98
l-166 -98l-23 35l189 124z" />
    <glyph glyph-name="wcircumflex" unicode="&#x175;" horiz-adv-x="737" 
d="M371 487h-4l-123 -487h-86l-144 539h61l81 -311l44 -175h4l36 149l85 337h89l84 -338l36 -148h4l45 175l81 311h59l-145 -539h-86zM557 660l-22 -35l-167 98l-166 -98l-23 35l189 124z" />
    <glyph glyph-name="Ycircumflex" unicode="&#x176;" horiz-adv-x="518" 
d="M520 701l-231 -441v-260h-60v260l-231 441h70l191 -377h4l191 377h66zM448 830l-22 -35l-167 98l-166 -98l-23 35l189 124z" />
    <glyph glyph-name="ycircumflex" unicode="&#x177;" horiz-adv-x="486" 
d="M23 -200l9 55q22 -8 49 -8q53 0 84.5 30t53.5 99l-193 563h62l95 -288l64 -198h4q15 61 59 198l93 288h60l-192 -580q-27 -82 -72.5 -124.5t-121.5 -42.5q-28 0 -54 8zM432 660l-22 -35l-167 98l-166 -98l-23 35l189 124z" />
    <glyph glyph-name="Ydieresis" unicode="&#x178;" horiz-adv-x="518" 
d="M520 701l-231 -441v-260h-60v260l-231 441h70l191 -377h4l191 377h66zM130 878q0 18 11.5 29.5t29.5 11.5q17 0 29 -11.5t12 -29.5q0 -17 -12 -29t-29 -12q-18 0 -29.5 12t-11.5 29zM306 878q0 18 12 29.5t29 11.5q18 0 29.5 -11.5t11.5 -29.5q0 -17 -11.5 -29t-29.5 -12
q-17 0 -29 12t-12 29z" />
    <glyph glyph-name="Zacute" unicode="&#x179;" horiz-adv-x="505" 
d="M101 61v-4h367v-57h-428l-11 59l366 581v4h-334v57h393l11 -59zM437 913l-188 -117l-40 28l167 122z" />
    <glyph glyph-name="zacute" unicode="&#x17a;" horiz-adv-x="434" 
d="M96 58v-4h289v-54h-340l-10 68l281 413v4h-258v54h305l15 -68zM401 743l-188 -117l-40 28l167 122z" />
    <glyph glyph-name="Zdotaccent" unicode="&#x17b;" horiz-adv-x="505" 
d="M101 61v-4h367v-57h-428l-11 59l366 581v4h-334v57h393l11 -59zM204 870q0 21 14 35t34 14q21 0 35 -14t14 -35q0 -20 -14 -34t-35 -14q-20 0 -34 14t-14 34z" />
    <glyph glyph-name="zdotaccent" unicode="&#x17c;" horiz-adv-x="434" 
d="M96 58v-4h289v-54h-340l-10 68l281 413v4h-258v54h305l15 -68zM169 700q0 21 14 35t34 14q21 0 35 -14t14 -35q0 -20 -14 -34t-35 -14q-20 0 -34 14t-14 34z" />
    <glyph glyph-name="Zcaron" unicode="&#x17d;" horiz-adv-x="505" 
d="M101 61v-4h367v-57h-428l-11 59l366 581v4h-334v57h393l11 -59zM441 922l-189 -124l-189 124l23 35l166 -98l167 98z" />
    <glyph glyph-name="zcaron" unicode="&#x17e;" horiz-adv-x="434" 
d="M96 58v-4h289v-54h-340l-10 68l281 413v4h-258v54h305l15 -68zM406 752l-189 -124l-189 124l23 35l166 -98l167 98z" />
    <glyph glyph-name="longs" unicode="&#x17f;" horiz-adv-x="350" 
d="M181 634v-634h-58v632q0 62 36.5 97t107.5 35q77 0 115 -22l-21 -52q-40 21 -103 21q-77 0 -77 -77z" />
    <glyph glyph-name="florin" unicode="&#x192;" horiz-adv-x="492" 
d="M146 -31l47 372h-98v53h105l17 142q8 70 49.5 114.5t115.5 44.5q50 0 71 -12l-20 -53q-19 11 -61 11q-45 0 -68.5 -30t-28.5 -75l-17 -142h133v-53h-140l-47 -372q-9 -70 -50 -114.5t-115 -44.5q-50 0 -71 12l20 53q19 -11 61 -11q83 0 97 105z" />
    <glyph glyph-name="uni0218" unicode="&#x218;" horiz-adv-x="522" 
d="M250 -321l-20 27q43 25 43 61q0 34 -53 62v5q0 21 14 35t35 14q25 0 42 -19t17 -55q0 -42 -23 -76.5t-55 -53.5zM249 47q76 0 118.5 36.5t42.5 93.5q0 35 -18.5 61.5t-48.5 44.5t-65.5 34t-71.5 34t-66 40t-48.5 57t-18.5 80q0 78 59 130.5t150 52.5q105 0 172 -52
l-37 -49q-59 44 -138 44q-67 0 -106 -34t-39 -89q0 -48 34.5 -82t84 -56l99.5 -46t84.5 -66t34.5 -101q0 -82 -61 -136t-165 -54q-130 0 -213 70l37 48q78 -61 180 -61z" />
    <glyph glyph-name="uni0219" unicode="&#x219;" horiz-adv-x="468" 
d="M210 -321l-20 27q43 25 43 61q0 34 -53 62v5q0 21 14 35t35 14q25 0 42 -19t17 -55q0 -42 -23 -76.5t-55 -53.5zM346 141q0 37 -28.5 60.5t-69.5 37.5t-81.5 30t-69 49t-28.5 84q0 60 48 102.5t132 42.5q42 0 82.5 -14t64.5 -38l-38 -44q-40 42 -111 42q-60 0 -90 -25.5
t-30 -64.5q0 -31 20.5 -53t51.5 -33t66.5 -26t66.5 -30t51.5 -46t20.5 -74q0 -61 -49.5 -105.5t-136.5 -44.5q-116 0 -183 65l38 46q57 -57 148 -57q60 0 92.5 27.5t32.5 68.5z" />
    <glyph glyph-name="uni021A" unicode="&#x21a;" horiz-adv-x="469" 
d="M212 -321l-20 27q43 25 43 61q0 34 -53 62v5q0 21 14 35t35 14q25 0 42 -19t17 -55q0 -42 -23 -76.5t-55 -53.5zM205 0v645h-191v56h441v-56h-190v-645h-60z" />
    <glyph glyph-name="uni021B" unicode="&#x21b;" horiz-adv-x="375" 
d="M162 -321l-20 27q43 25 43 61q0 34 -53 62v5q0 21 14 35t35 14q25 0 42 -19t17 -55q0 -42 -23 -76.5t-55 -53.5zM237 -5q-132 0 -132 140v354h-83v38l83 12l16 143h42v-143h152v-50h-152v-347q0 -94 84 -94q54 0 85 18l17 -49q-42 -22 -112 -22z" />
    <glyph glyph-name="uni0237" unicode="&#x237;" horiz-adv-x="244" 
d="M-4 -222l-21 51q25 8 43.5 19t37 32t28 57.5t9.5 86.5v515h58v-517q0 -194 -155 -244z" />
    <glyph glyph-name="uni02BC" unicode="&#x2bc;" horiz-adv-x="217" 
d="M62 489l-20 34q66 28 66 73q0 39 -54 68v5q0 23 15.5 38.5t38.5 15.5q27 0 45.5 -21t18.5 -60q0 -56 -34.5 -97t-75.5 -56z" />
    <glyph glyph-name="circumflex" unicode="&#x2c6;" horiz-adv-x="500" 
d="M439 660l-22 -35l-167 98l-166 -98l-23 35l189 124z" />
    <glyph glyph-name="caron" unicode="&#x2c7;" horiz-adv-x="500" 
d="M439 752l-189 -124l-189 124l23 35l166 -98l167 98z" />
    <glyph glyph-name="breve" unicode="&#x2d8;" horiz-adv-x="500" 
d="M250 645q-106 0 -159 90l40 26q38 -68 119 -68t119 68l40 -26q-53 -90 -159 -90z" />
    <glyph glyph-name="dotaccent" unicode="&#x2d9;" horiz-adv-x="500" 
d="M201 700q0 21 14 35t34 14q21 0 35 -14t14 -35q0 -20 -14 -34t-35 -14q-20 0 -34 14t-14 34z" />
    <glyph glyph-name="ring" unicode="&#x2da;" horiz-adv-x="500" 
d="M147 713q0 46 29.5 75t75.5 29t73.5 -26.5t27.5 -71.5q0 -46 -29.5 -75t-75.5 -29t-73.5 26.5t-27.5 71.5zM310 715q0 29 -17 46t-45 17t-43.5 -16.5t-15.5 -44.5q0 -29 17.5 -46t45.5 -17q27 0 42.5 16.5t15.5 44.5z" />
    <glyph glyph-name="ogonek" unicode="&#x2db;" horiz-adv-x="500" 
d="M344 -218q-25 -9 -70 -9q-59 0 -89 29.5t-30 76.5q0 93 141 162l26 -31q-43 -22 -77 -55t-34 -71q0 -62 81 -62q25 0 44 8z" />
    <glyph glyph-name="tilde" unicode="&#x2dc;" horiz-adv-x="500" 
d="M187 734q26 0 70 -16.5t62 -16.5q41 0 61 27l24 -40q-2 -5 -10.5 -12.5t-29 -16t-45.5 -8.5q-22 0 -67 17t-66 17q-40 0 -67 -24l-23 40l5 4l9 7t12.5 7.5t17 7.5t21 5t26.5 2z" />
    <glyph glyph-name="hungarumlaut" unicode="&#x2dd;" horiz-adv-x="500" 
d="M464 743l-188 -117l-40 28l167 122zM263 743l-188 -117l-40 28l167 122z" />
    <glyph glyph-name="pi" unicode="&#x3c0;" horiz-adv-x="609" 
d="M101 23q27 40 36 75t9 113v281h-71v53h473v-53h-71v-492h-58v492h-215v-284q0 -146 -56 -213z" />
    <glyph glyph-name="uni0900" unicode="&#x900;" 
d="M-134 1016q134 0 194 -113l-45 -26q-49 84 -149 84t-149 -84l-46 26q60 113 195 113zM-178 798q0 18 12.5 30t31.5 12t31.5 -12t12.5 -30q0 -20 -12.5 -33t-31.5 -13t-31.5 13t-12.5 33z" />
    <glyph glyph-name="uni0901" unicode="&#x901;" 
d="M-178 962q0 20 12.5 33t31.5 13t31.5 -13t12.5 -33q0 -18 -12.5 -30t-31.5 -12t-31.5 12t-12.5 30zM-134 754q-135 0 -195 113l46 26q49 -84 149 -84t149 84l45 -26q-60 -113 -194 -113z" />
    <glyph glyph-name="uni0902" unicode="&#x902;" 
d="M-182 801q0 22 14 36t34 14q21 0 34.5 -14t13.5 -36q0 -20 -13.5 -33t-34.5 -13q-20 0 -34 13.5t-14 32.5z" />
    <glyph glyph-name="uni0903" unicode="&#x903;" horiz-adv-x="256" 
d="M80 442q0 22 14 36t34 14q21 0 34.5 -14t13.5 -36q0 -20 -13.5 -33t-34.5 -13q-20 0 -34 13.5t-14 32.5zM80 132q0 22 14 36t34 14q21 0 34.5 -14t13.5 -36q0 -20 -13.5 -33t-34.5 -13q-20 0 -34 13.5t-14 32.5z" />
    <glyph glyph-name="uni0904" unicode="&#x904;" horiz-adv-x="714" 
d="M734 634v-52h-125v-582h-58v266q-34 -16 -73 -16q-45 0 -83 18q3 -14 3 -30q0 -70 -49 -116.5t-130 -46.5q-97 0 -168 67l40 43q52 -56 128 -56q57 0 88 31t31 78q0 44 -30 69t-84 25h-54v54h30q48 0 78.5 27.5t30.5 74.5q0 42 -24.5 66.5t-67.5 24.5q-56 0 -87 -42
l-44 39q47 58 133 58q70 0 110.5 -41t40.5 -103q0 -43 -22 -75t-48 -45v-4q33 -8 59 -34q43 -28 104 -28q50 0 88 22v256h-115v52h115q-2 35 -17 50t-52 29l-156 60q-92 34 -92 125h58q0 -32 15.5 -48t53.5 -31l156 -60q46 -18 68 -46.5t24 -78.5h125z" />
    <glyph glyph-name="uni0905" unicode="&#x905;" horiz-adv-x="714" 
d="M734 634v-52h-125v-582h-58v266q-34 -16 -73 -16q-45 0 -83 18q3 -14 3 -30q0 -70 -49 -116.5t-130 -46.5q-97 0 -168 67l40 43q52 -56 128 -56q57 0 88 31t31 78q0 44 -30 69t-84 25h-54v54h30q48 0 78.5 27.5t30.5 74.5q0 42 -24.5 66.5t-67.5 24.5q-56 0 -87 -42
l-44 39q47 58 133 58q70 0 110.5 -41t40.5 -103q0 -43 -22 -75t-48 -45v-4q33 -8 59 -34q43 -28 104 -28q50 0 88 22v256h-115v52h298z" />
    <glyph glyph-name="uni0906" unicode="&#x906;" horiz-adv-x="982" 
d="M51 142l40 43q52 -56 128 -56q57 0 88 31t31 78q0 44 -30 69t-84 25h-54v54h30q48 0 78.5 27.5t30.5 74.5q0 42 -24.5 66.5t-67.5 24.5q-56 0 -87 -42l-44 39q47 58 133 58q70 0 110.5 -41t40.5 -103q0 -43 -22 -75t-48 -45v-4q33 -8 59 -34q43 -28 104 -28q50 0 88 22
v256h-115v52h566v-52h-125v-582h-58v582h-210v-582h-58v266q-34 -16 -73 -16q-45 0 -83 18q3 -14 3 -30q0 -70 -49 -116.5t-130 -46.5q-97 0 -168 67z" />
    <glyph glyph-name="uni0907" unicode="&#x907;" horiz-adv-x="526" 
d="M268 32v-4l154 -105l-65 -34l-152 138q-70 2 -107 29.5t-37 64.5q0 28 22 43l123 -87h39q58 0 99 26t41 75q0 46 -31 67l-161 -32q-49 15 -84 57t-35 97q0 45 29.5 73.5t79.5 28.5h158v113h-361v52h566v-52h-148v-166h-188q-42 0 -58.5 -15.5t-16.5 -44.5t20.5 -53.5
t49.5 -32.5l171 34q24 -14 46.5 -46t22.5 -79q0 -74 -54 -112t-123 -35z" />
    <glyph glyph-name="uni0908" unicode="&#x908;" horiz-adv-x="526" 
d="M394 826q-37 0 -59.5 -22t-22.5 -56q0 -38 24 -69t62 -45h148v-52h-148v-166h-188q-42 0 -58.5 -15.5t-16.5 -44.5t20.5 -53.5t49.5 -32.5l171 34q24 -14 46.5 -46t22.5 -79q0 -74 -54 -112t-123 -35v-4l154 -105l-65 -34l-152 138q-70 2 -107 29.5t-37 64.5q0 28 22 43
l123 -87h39q58 0 99 26t41 75q0 46 -31 67l-161 -32q-49 15 -84 57t-35 97q0 45 29.5 73.5t79.5 28.5h158v113h-361v52h333v4q-25 16 -43 45.5t-18 67.5q0 58 41.5 93.5t98.5 35.5q60 0 94 -24l-24 -50q-28 20 -68 20z" />
    <glyph glyph-name="uni0909" unicode="&#x909;" horiz-adv-x="466" 
d="M-3 147l50 34q23 -43 63 -70t91 -27q62 0 97 33t35 85q0 50 -33.5 79.5t-95.5 29.5h-64v54h55q45 0 78 26.5t33 78.5q0 58 -34.5 85t-104.5 27h-187v52h506v-52h-173v-6q19 -11 37 -37.5t18 -68.5q0 -43 -24 -77t-59 -47v-4q45 -11 77.5 -48.5t32.5 -93.5
q0 -73 -52.5 -122t-141.5 -49q-74 0 -127 36.5t-77 81.5z" />
    <glyph glyph-name="uni090A" unicode="&#x90a;" horiz-adv-x="658" 
d="M486 58l-19 56q46 2 80.5 31t34.5 80q0 43 -26 68t-62 25q-45 0 -73 -30.5t-27 -81.5v-6q0 -73 -51.5 -122t-141.5 -49q-74 0 -127 36.5t-77 81.5l50 34q23 -43 63 -70t91 -27q63 0 98 33t35 85q0 50 -34 79.5t-96 29.5h-64v54h55q45 0 78 26.5t33 78.5q0 58 -34.5 85
t-104.5 27h-187v52h698v-52h-365v-6q19 -11 37 -37.5t18 -68.5q0 -43 -24 -77t-59 -47v-4q50 -12 80 -53q14 34 47.5 58.5t82.5 24.5q62 0 104.5 -41t42.5 -106q0 -74 -49.5 -117.5t-106.5 -49.5z" />
    <glyph glyph-name="uni090B" unicode="&#x90b;" horiz-adv-x="802" 
d="M634 495q0 -50 -32 -91q24 -32 74 -32h33l21 -47q-86 -67 -114.5 -100.5t-28.5 -66.5q0 -28 22 -46.5t61 -18.5q59 0 99 40l30 -43q-54 -49 -129 -49q-66 0 -103.5 33.5t-37.5 85.5q0 39 25.5 75t92.5 88v4q-52 3 -84 38q-14 -12 -45 -32l-93 -57v-276h-54v249l-266 -177
l-42 41l264 163q-21 59 -61.5 88.5t-88.5 29.5q-62 0 -110 -45l-43 44q64 57 151 57q134 0 191 -133h4v265h-390v52h842v-52h-397v-245l67 41q52 32 69.5 58t17.5 58v10h55v-9z" />
    <glyph glyph-name="uni090C" unicode="&#x90c;" horiz-adv-x="711" 
d="M721 -16q-53 -37 -137 -37q-69 0 -114.5 32t-45.5 91q0 35 21.5 67.5t47.5 54t47.5 53.5t21.5 65q0 39 -22.5 61.5t-64.5 22.5q-46 0 -75.5 -27.5t-29.5 -79.5v-86h-58v85q0 51 -24 77.5t-66 26.5t-69.5 -31t-27.5 -90q0 -153 151 -229l-39 -44q-74 39 -123.5 111.5
t-49.5 162.5q0 80 45.5 127.5t108.5 47.5q95 0 122 -81h4q10 35 42 58.5t72 27.5v132h-478v52h751v-52h-215v-136q52 -11 81 -48.5t29 -89.5q0 -41 -22 -77.5t-48 -57.5t-48 -49t-22 -55q0 -33 26.5 -51t69.5 -18q67 0 115 34z" />
    <glyph glyph-name="uni090D" unicode="&#x90d;" horiz-adv-x="540" 
d="M368 103q40 -36 57.5 -62t17.5 -59q0 -42 -30 -79h-66v4q36 40 36 75q0 33 -39 67l-254 219v314h-110v52h580v-52h-115v-176q0 -95 -84 -136l-45 39q35 14 53 36t18 61v176h-239v-289zM276 754q-135 0 -195 113l46 26q49 -84 149 -84t149 84l45 -26q-60 -113 -194 -113z
" />
    <glyph glyph-name="uni090E" unicode="&#x90e;" horiz-adv-x="540" 
d="M368 103q40 -36 57.5 -62t17.5 -59q0 -42 -30 -79h-66v4q36 40 36 75q0 33 -39 67l-254 219v314h-110v52h408q-2 35 -17 50t-52 29l-156 60q-92 34 -92 125h58q0 -32 15.5 -48t53.5 -31l156 -60q46 -18 68 -46.5t24 -78.5h114v-52h-115v-176q0 -95 -84 -136l-45 39
q35 14 53 36t18 61v176h-239v-289z" />
    <glyph glyph-name="uni090F" unicode="&#x90f;" horiz-adv-x="540" 
d="M368 103q40 -36 57.5 -62t17.5 -59q0 -42 -30 -79h-66v4q36 40 36 75q0 33 -39 67l-254 219v314h-110v52h580v-52h-115v-176q0 -95 -84 -136l-45 39q35 14 53 36t18 61v176h-239v-289z" />
    <glyph glyph-name="uni0910" unicode="&#x910;" horiz-adv-x="540" 
d="M368 103q40 -36 57.5 -62t17.5 -59q0 -42 -30 -79h-66v4q36 40 36 75q0 33 -39 67l-254 219v314h-110v52h410q-75 72 -145 153l-81 94l67 17l212 -264h117v-52h-115v-176q0 -95 -84 -136l-45 39q35 14 53 36t18 61v176h-239v-289z" />
    <glyph glyph-name="uni0911" unicode="&#x911;" horiz-adv-x="982" 
d="M51 142l40 43q52 -56 128 -56q57 0 88 31t31 78q0 44 -30 69t-84 25h-54v54h30q48 0 78.5 27.5t30.5 74.5q0 42 -24.5 66.5t-67.5 24.5q-56 0 -87 -42l-44 39q47 58 133 58q70 0 110.5 -41t40.5 -103q0 -43 -22 -75t-48 -45v-4q33 -8 59 -34q43 -28 104 -28q50 0 88 22
v256h-115v52h566v-52h-125v-582h-58v582h-210v-582h-58v266q-34 -16 -73 -16q-45 0 -83 18q3 -14 3 -30q0 -70 -49 -116.5t-130 -46.5q-97 0 -168 67zM715 754q-135 0 -195 113l46 26q49 -84 149 -84t149 84l45 -26q-60 -113 -194 -113z" />
    <glyph glyph-name="uni0912" unicode="&#x912;" horiz-adv-x="982" 
d="M51 142l40 43q52 -56 128 -56q57 0 88 31t31 78q0 44 -30 69t-84 25h-54v54h30q48 0 78.5 27.5t30.5 74.5q0 42 -24.5 66.5t-67.5 24.5q-56 0 -87 -42l-44 39q47 58 133 58q70 0 110.5 -41t40.5 -103q0 -43 -22 -75t-48 -45v-4q33 -8 59 -34q43 -28 104 -28q50 0 88 22
v256h-115v52h383q-2 35 -17 50t-52 29l-156 60q-92 34 -92 125h58q0 -32 15.5 -48t53.5 -31l156 -60q46 -18 68 -46.5t24 -78.5h125v-52h-125v-582h-58v582h-210v-582h-58v266q-34 -16 -73 -16q-45 0 -83 18q3 -14 3 -30q0 -70 -49 -116.5t-130 -46.5q-97 0 -168 67z" />
    <glyph glyph-name="uni0913" unicode="&#x913;" horiz-adv-x="982" 
d="M51 142l40 43q52 -56 128 -56q57 0 88 31t31 78q0 44 -30 69t-84 25h-54v54h30q48 0 78.5 27.5t30.5 74.5q0 42 -24.5 66.5t-67.5 24.5q-56 0 -87 -42l-44 39q47 58 133 58q70 0 110.5 -41t40.5 -103q0 -43 -22 -75t-48 -45v-4q33 -8 59 -34q43 -28 104 -28q50 0 88 22
v256h-115v52h381q-75 72 -145 153l-81 94l67 17l212 -264h132v-52h-125v-582h-58v582h-210v-582h-58v266q-34 -16 -73 -16q-45 0 -83 18q3 -14 3 -30q0 -70 -49 -116.5t-130 -46.5q-97 0 -168 67z" />
    <glyph glyph-name="uni0914" unicode="&#x914;" horiz-adv-x="982" 
d="M51 142l40 43q52 -56 128 -56q57 0 88 31t31 78q0 44 -30 69t-84 25h-54v54h30q48 0 78.5 27.5t30.5 74.5q0 42 -24.5 66.5t-67.5 24.5q-56 0 -87 -42l-44 39q47 58 133 58q70 0 110.5 -41t40.5 -103q0 -43 -22 -75t-48 -45v-4q33 -8 59 -34q43 -28 104 -28q50 0 88 22
v256h-115v52h361q-134 101 -286 229l58 35l277 -264l3 1l-129 247l66 17l96 -265h120v-52h-125v-582h-58v582h-210v-582h-58v266q-34 -16 -73 -16q-45 0 -83 18q3 -14 3 -30q0 -70 -49 -116.5t-130 -46.5q-97 0 -168 67z" />
    <glyph glyph-name="uni0915" unicode="&#x915;" horiz-adv-x="763" 
d="M651 297q0 50 -31.5 81t-81.5 31q-57 0 -92.5 -37t-35.5 -98v-274h-57v195h-4q-44 -62 -135 -62q-67 0 -115.5 46.5t-48.5 118.5q0 84 61.5 131t143.5 35l9 -55q-60 10 -106 -18t-46 -91q0 -49 31 -80.5t82 -31.5q57 0 92.5 37t35.5 98v259h-373v52h803v-52h-373v-180h4
q44 62 136 62q67 0 115 -46t48 -119q0 -84 -61.5 -131t-143.5 -35l-9 55q60 -10 106 18t46 91z" />
    <glyph glyph-name="uni0916" unicode="&#x916;" horiz-adv-x="779" 
d="M617 143h-4q-37 -48 -97.5 -77.5t-134.5 -29.5q-137 0 -221.5 93.5t-97.5 244.5l52 18q25 -44 73 -44q54 0 54 64v170h-261v52h819v-52h-125v-582h-57v143zM612 453h4v129h-317v-169q0 -53 -30 -84t-75 -31q-38 0 -62 13q20 -105 87.5 -162.5t160.5 -57.5q100 0 169.5 61
t69.5 166q0 54 -30.5 86t-72.5 32q-44 0 -71 -26.5t-27 -69.5t30.5 -71.5t85.5 -30.5l-31 -47q-57 2 -100 42.5t-43 106.5t44 108.5t107 42.5q65 0 101 -38z" />
    <glyph glyph-name="uni0917" unicode="&#x917;" horiz-adv-x="546" 
d="M383 0v582h-196v-365h-67q-46 40 -48 112l57 40v213h-149v52h586v-52h-125v-582h-58z" />
    <glyph glyph-name="uni0918" unicode="&#x918;" horiz-adv-x="627" 
d="M647 582h-125v-582h-58v208h-4q-21 -31 -68 -58t-119 -27q-88 0 -135.5 44t-47.5 105q0 43 25 72.5t59 38.5v4q-38 6 -64.5 33.5t-26.5 72.5q0 33 15.5 55t33.5 30v4h-152v52h667v-52zM274 178q89 0 140 50.5t51 128.5v225h-214q-52 0 -79 -24.5t-27 -62.5
q0 -37 28.5 -60t86.5 -23h62v-54h-61q-54 0 -81.5 -22.5t-27.5 -62.5q0 -39 30 -67t92 -28z" />
    <glyph glyph-name="uni0919" unicode="&#x919;" horiz-adv-x="613" 
d="M489 359q0 19 12 31t30 12t30 -12t12 -31q0 -17 -12 -29t-30 -12t-30 12t-12 29zM240 271l171 34q29 -17 49 -51.5t20 -76.5q0 -68 -53 -114t-137 -46q-79 0 -143.5 42.5t-107.5 119.5l48 34q33 -66 85 -104.5t118 -38.5q57 0 93.5 29t36.5 78q0 45 -31 69l-161 -32
q-49 15 -84 57t-35 97q0 46 29.5 75t79.5 29h150v110h-388v52h653v-52h-208v-163h-180q-75 0 -75 -62q0 -29 20.5 -53.5t49.5 -32.5z" />
    <glyph glyph-name="uni091A" unicode="&#x91a;" horiz-adv-x="634" 
d="M471 203h-4q-21 -31 -66 -55.5t-111 -24.5q-80 0 -132 47.5t-52 115.5q0 72 52 107v4h-140v54h355v-53h-83q-57 0 -89.5 -30.5t-32.5 -79.5q0 -48 35.5 -79t93.5 -31q76 0 125 50t49 133v221h-491v52h674v-52h-125v-582h-58v203z" />
    <glyph glyph-name="uni091B" unicode="&#x91b;" horiz-adv-x="672" 
d="M305 47q-97 0 -153 50.5t-56 121.5q0 47 24 79t59 45v4q-44 12 -70 45.5t-26 77.5q0 68 54 108v4h-157v52h712v-52h-173v-108q43 -14 68.5 -53t25.5 -90q0 -109 -88.5 -196.5t-219.5 -87.5zM478 294l-36 -41q-43 9 -67.5 39.5t-24.5 71.5q0 46 31.5 79.5t81.5 37.5v101
h-197q-53 0 -87 -29.5t-34 -79.5q0 -45 30 -72t83 -27h37v-54h-24q-52 0 -82.5 -26.5t-30.5 -72.5q0 -51 38.5 -85t108.5 -34q101 0 175 67t74 162q0 45 -22.5 71t-56.5 26q-28 0 -47.5 -17.5t-19.5 -46.5t18.5 -47.5t51.5 -22.5z" />
    <glyph glyph-name="uni091C" unicode="&#x91c;" horiz-adv-x="733" 
d="M276 381v4l27 48h267v149h-590v52h773v-52h-125v-582h-58v380h-188v-4q49 -46 49 -110q0 -59 -41.5 -100t-109.5 -41q-56 0 -102.5 26t-76 68t-47 88.5t-23.5 94.5l61 22q3 -95 54.5 -169.5t129.5 -74.5q44 0 69.5 25t25.5 64q0 47 -30.5 75t-64.5 37z" />
    <glyph glyph-name="uni091D" unicode="&#x91d;" horiz-adv-x="766" 
d="M786 582h-125v-582h-58v233q-34 -14 -87 -14q-39 0 -81 15q10 -27 10 -55q0 -72 -53.5 -110.5t-121.5 -36.5v-4l154 -105l-65 -34l-152 138q-70 2 -107 29.5t-37 64.5q0 28 22 43l123 -87h39q58 0 99 26t41 75q0 46 -31 67l-161 -32q-49 15 -84 57t-35 97q0 45 29.5 73.5
t79.5 28.5h158v113h-363v52h806v-52zM377 304q56 -30 134 -30q54 0 92 20v288h-203v-166h-188q-42 0 -58.5 -15.5t-16.5 -44.5t20.5 -53.5t49.5 -32.5z" />
    <glyph glyph-name="uni091E" unicode="&#x91e;" horiz-adv-x="685" 
d="M145 401l-21 49q47 26 101 26q69 0 116 -37.5t59 -99.5q35 -8 71 -8q28 0 51 4v247h-542v52h725v-52h-125v-582h-58v277q-11 -2 -36 -2q-47 0 -84 10q-5 -76 -58.5 -123.5t-132.5 -47.5q-70 0 -121 33t-78 78l43 38q62 -94 157 -94q54 0 92 35.5t38 95.5q0 57 -33 89
t-87 32q-42 0 -77 -20z" />
    <glyph glyph-name="uni091F" unicode="&#x91f;" horiz-adv-x="494" 
d="M-20 582v52h534v-52h-141v-165l-144 -44q-68 -21 -91.5 -48t-23.5 -74q0 -60 47 -105.5t121 -45.5q99 0 155 60l35 -47q-67 -68 -183 -68q-100 0 -168.5 65t-68.5 151q0 115 134 157l129 40v124h-335z" />
    <glyph glyph-name="uni0920" unicode="&#x920;" horiz-adv-x="564" 
d="M283 45q-100 0 -166.5 62t-66.5 152q0 115 136 158l127 40v125h-333v52h604v-52h-213v-146q55 -22 99 -69.5t44 -121.5q0 -86 -65.5 -143t-165.5 -57zM276 100q87 0 132 43.5t45 107.5q0 35 -16 63.5t-40.5 45.5t-47.5 26.5t-42 12.5l-80 -25q-68 -21 -92 -49t-24 -75
q0 -60 45 -105t120 -45z" />
    <glyph glyph-name="uni0921" unicode="&#x921;" horiz-adv-x="536" 
d="M240 271l171 34q29 -17 49 -51.5t20 -76.5q0 -68 -53 -114t-137 -46q-79 0 -143.5 42.5t-107.5 119.5l48 34q33 -66 85 -104.5t118 -38.5q57 0 93.5 29t36.5 78q0 45 -31 69l-161 -32q-49 15 -84 57t-35 97q0 46 29.5 75t79.5 29h150v110h-388v52h576v-52h-131v-163h-180
q-75 0 -75 -62q0 -29 20.5 -53.5t49.5 -32.5z" />
    <glyph glyph-name="uni0922" unicode="&#x922;" horiz-adv-x="515" 
d="M290 99q52 0 81.5 25.5t29.5 64.5q0 25 -17.5 43t-43.5 18q-34 0 -50.5 -25.5t-9.5 -58.5l-56 22q-4 45 27 81.5t88 36.5q52 0 87 -34t35 -83q0 -59 -47.5 -101.5t-119.5 -42.5q-103 0 -173.5 66.5t-70.5 156.5q0 62 38 108t102 64l145 42v100h-355v52h555v-52h-142v-141
l-165 -45q-65 -18 -91 -51t-26 -82q0 -65 50.5 -114.5t128.5 -49.5z" />
    <glyph glyph-name="uni0923" unicode="&#x923;" horiz-adv-x="746" 
d="M766 582h-125v-582h-58v582h-183v-239q0 -74 -43 -116t-112 -42t-112 42t-43 116v239h-110v52h786v-52zM245 240q47 0 72 28.5t25 80.5v233h-194v-233q0 -52 25 -80.5t72 -28.5z" />
    <glyph glyph-name="uni0924" unicode="&#x924;" horiz-adv-x="547" 
d="M229 28l-50 -34q-126 101 -126 258q0 78 47.5 127.5t121.5 49.5h162v153h-404v52h587v-52h-125v-582h-58v375h-150q-55 0 -88 -32.5t-33 -90.5q0 -137 116 -224z" />
    <glyph glyph-name="uni0925" unicode="&#x925;" horiz-adv-x="628" 
d="M523 0h-58v203h-4q-23 -36 -72 -64t-118 -28q-105 0 -168.5 67.5t-69.5 167.5l92 27q106 30 140.5 61.5t34.5 79.5q0 34 -20.5 54.5t-55.5 20.5q-33 0 -54 -19t-21 -52q0 -16 9 -34t21 -28l-57 -17q-32 30 -32 82q0 51 38 87t96 36q61 0 98 -37t37 -95q0 -129 -197 -185
l-29.5 -8.5l-29.5 -8.5q2 -19 12 -41t28.5 -46.5t52.5 -40.5t76 -16q92 0 143 57.5t51 141.5v269h182v-52h-125v-582z" />
    <glyph glyph-name="uni0926" unicode="&#x926;" horiz-adv-x="513" 
d="M385 431l-162 -40q-61 -15 -86 -42.5t-25 -71.5q0 -59 42 -100.5t108 -41.5q67 0 96 26v103l46 17q16 -7 29.5 -27.5t13.5 -46.5q0 -52 -33 -81l106 -138l-71 -18l-75 132q-42 -22 -103 -22q-101 0 -161 62t-60 139q0 122 148 159l129 32v110h-347v52h553v-52h-148v-151z
" />
    <glyph glyph-name="uni0927" unicode="&#x927;" horiz-adv-x="627" 
d="M522 0h-58v208h-4q-21 -31 -68 -58t-119 -27q-88 0 -135.5 44t-47.5 105q0 43 25 72.5t59 38.5v4q-38 6 -64.5 33.5t-26.5 72.5q0 32 15.5 54.5t34.5 30.5v4h-153v52h230l13 -53q-78 -24 -78 -86q0 -37 28.5 -60t86.5 -23h62v-54h-61q-54 0 -81.5 -22.5t-27.5 -62.5
q0 -39 30 -67t92 -28q91 0 141 51.5t50 126.5v226h-91v52h273v-52h-125v-582z" />
    <glyph glyph-name="uni0928" unicode="&#x928;" horiz-adv-x="502" 
d="M126 242l-41 -12q-23 17 -38 49.5t-16 65.5l45 38h263v199h-359v52h542v-52h-125v-582h-58v329h-213v-87z" />
    <glyph glyph-name="uni0928093C" unicode="&#x929;" horiz-adv-x="502" 
d="M126 242l-41 -12q-23 17 -38 49.5t-16 65.5l45 38h263v199h-359v52h542v-52h-125v-582h-58v329h-213v-87zM56 60q0 18 11.5 29.5t29.5 11.5t29.5 -11.5t11.5 -29.5t-11.5 -29.5t-29.5 -11.5t-29.5 11.5t-11.5 29.5z" />
    <glyph glyph-name="uni092A" unicode="&#x92a;" horiz-adv-x="554" 
d="M391 268h-4q-39 -66 -137 -66q-69 0 -114.5 41t-45.5 118v221h-110v52h594v-52h-125v-582h-58v268zM391 409v173h-243v-211q0 -114 108 -114q65 0 100 41.5t35 110.5z" />
    <glyph glyph-name="uni092B" unicode="&#x92b;" horiz-adv-x="785" 
d="M375 264h-4q-37 -65 -129 -65q-68 0 -110 40.5t-42 117.5v225h-110v52h825v-52h-372v-184h4q16 24 52 44.5t86 20.5q70 0 118 -46.5t48 -119.5q0 -86 -60 -136.5t-146 -39.5l-9 57q70 -12 111.5 23t41.5 95q0 50 -31 80.5t-82 30.5q-57 0 -95 -41t-38 -108v-258h-58v264z
M376 406v176h-228v-216q0 -112 97 -112q59 0 95 41t36 111z" />
    <glyph glyph-name="uni092C" unicode="&#x92c;" horiz-adv-x="561" 
d="M456 582v-582h-58v176h-4q-52 -69 -154 -69q-80 0 -135 53t-55 136q0 84 60.5 138.5t145.5 54.5q41 0 66 -8l2 -57q-29 11 -66 11q-51 0 -92 -27l212 -177q20 34 20 76v275h-418v52h601v-52h-125zM247 162q58 0 98 32l-214 178q-21 -32 -21 -74q0 -59 37.5 -97.5
t99.5 -38.5z" />
    <glyph glyph-name="uni092D" unicode="&#x92d;" horiz-adv-x="571" 
d="M408 0v277h-231v-103h-51q-23 20 -38 55t-16 67l47 34v177q0 40 -19 57.5t-60 17.5h-60v52h63q63 0 98.5 -32t35.5 -90v-181h231v251h-82v52h265v-52h-125v-582h-58z" />
    <glyph glyph-name="uni092E" unicode="&#x92e;" horiz-adv-x="571" 
d="M466 0h-58v277h-231v-103h-51q-23 20 -38 55t-16 67l47 34v252h-139v52h611v-52h-125v-582zM408 582h-231v-251h231v251z" />
    <glyph glyph-name="uni092F" unicode="&#x92f;" horiz-adv-x="605" 
d="M442 222h-4q-54 -78 -164 -78q-88 0 -149 59t-75 163q74 17 110.5 45t36.5 73q0 59 -47 98h-170v52h645v-52h-125v-582h-58v222zM120 335q8 -50 48.5 -93t113.5 -43q71 0 116 47t45 131v205h-225v-4q40 -45 40 -103q0 -50 -38 -87.5t-100 -52.5z" />
    <glyph glyph-name="uni0930" unicode="&#x930;" horiz-adv-x="392" 
d="M133 280l-2 -3q46 -55 66 -81l123 -163l-47 -32l-251 335l44 35q40 -43 95 -43q73 0 73 70v184h-254v52h432v-52h-120v-192q0 -56 -34 -85.5t-85 -29.5q-26 0 -40 5z" />
    <glyph glyph-name="uni0930093C" unicode="&#x931;" horiz-adv-x="392" 
d="M133 280l-2 -3q46 -55 66 -81l123 -163l-47 -32l-251 335l44 35q40 -43 95 -43q73 0 73 70v184h-254v52h432v-52h-120v-192q0 -56 -34 -85.5t-85 -29.5q-26 0 -40 5zM-33 62q0 18 11.5 29.5t29.5 11.5t29.5 -11.5t11.5 -29.5t-11.5 -29.5t-29.5 -11.5t-29.5 11.5
t-11.5 29.5z" />
    <glyph glyph-name="uni0932" unicode="&#x932;" horiz-adv-x="707" 
d="M540 414h4v168h-564v52h747v-52h-125v-582h-58v356q-36 38 -88 38q-41 0 -65.5 -27.5t-24.5 -79.5v-95h-58v94q0 51 -24 77.5t-66 26.5t-69.5 -31t-27.5 -90q0 -147 152 -229l-42 -43q-73 39 -122 111t-49 162q0 80 45.5 127.5t108.5 47.5q48 0 79.5 -22t42.5 -59h4
q11 40 41.5 62.5t70.5 22.5q57 0 88 -35z" />
    <glyph glyph-name="uni0933" unicode="&#x933;" horiz-adv-x="734" 
d="M509 82q-97 0 -149 89q-50 -91 -148 -91q-70 0 -112.5 51.5t-42.5 135.5q0 85 47.5 138.5t127.5 53.5q93 0 145 -87q37 71 109 86v124h-506v52h774v-52h-210v-122q63 -8 100.5 -58t37.5 -127q0 -88 -48 -140.5t-125 -52.5zM514 136q49 0 78.5 36t29.5 99q0 58 -27.5 97
t-76.5 39q-15 0 -28 -4t-22.5 -9t-19 -17.5l-15 -20t-13 -25.5t-10.5 -26.5t-10 -30.5t-10 -30q-1 -2 -2.5 -7t-2.5 -7q23 -45 52 -69.5t77 -24.5zM217 134q24 0 43.5 10.5t31 22.5t23.5 38.5t17.5 42t15.5 50.5q1 2 2.5 7t2.5 8q-47 92 -126 92q-49 0 -79.5 -36.5
t-30.5 -97.5q0 -59 26 -98t74 -39z" />
    <glyph glyph-name="uni0933093C" unicode="&#x934;" horiz-adv-x="734" 
d="M509 82q-97 0 -149 89q-50 -91 -148 -91q-70 0 -112.5 51.5t-42.5 135.5q0 85 47.5 138.5t127.5 53.5q93 0 145 -87q37 71 109 86v124h-506v52h774v-52h-210v-122q63 -8 100.5 -58t37.5 -127q0 -88 -48 -140.5t-125 -52.5zM514 136q49 0 78.5 36t29.5 99q0 58 -27.5 97
t-76.5 39q-15 0 -28 -4t-22.5 -9t-19 -17.5l-15 -20t-13 -25.5t-10.5 -26.5t-10 -30.5t-10 -30q-1 -2 -2.5 -7t-2.5 -7q23 -45 52 -69.5t77 -24.5zM217 134q24 0 43.5 10.5t31 22.5t23.5 38.5t17.5 42t15.5 50.5q1 2 2.5 7t2.5 8q-47 92 -126 92q-49 0 -79.5 -36.5
t-30.5 -97.5q0 -59 26 -98t74 -39zM320 -5q0 18 11.5 29.5t29.5 11.5t29.5 -11.5t11.5 -29.5t-11.5 -29.5t-29.5 -11.5t-29.5 11.5t-11.5 29.5z" />
    <glyph glyph-name="uni0935" unicode="&#x935;" horiz-adv-x="541" 
d="M436 582v-582h-58v186h-4q-49 -65 -146 -65q-73 0 -125.5 50t-52.5 129q0 67 37 111.5t89.5 59t107.5 4.5l6 -57q-71 18 -124.5 -14.5t-53.5 -101.5q0 -54 34.5 -90t91.5 -36q63 0 101.5 43t38.5 109v254h-398v52h581v-52h-125z" />
    <glyph glyph-name="uni0936" unicode="&#x936;" horiz-adv-x="703" 
d="M219 441l-36 -44q-39 11 -61 42.5t-22 72.5q0 56 40.5 94t104.5 38q75 0 118.5 -51.5t43.5 -123.5q0 -107 -81.5 -165t-202.5 -48l-2 -4l38 -34t55 -52l143 -140l-48 -33l-227 224l-66 58l37 49q48 -15 102 -15q83 0 137.5 43t54.5 117q0 57 -30.5 89t-71.5 32
q-39 0 -62 -21.5t-23 -56.5q0 -25 15 -45t44 -26zM540 0v634h183v-52h-125v-582h-58z" />
    <glyph glyph-name="uni0937" unicode="&#x937;" horiz-adv-x="565" 
d="M402 268h-4q-40 -71 -142 -71q-70 0 -118 41t-48 118v226h-110v52h605v-52h-125v-582h-58v268zM262 250q73 0 111 49l-160 153l-70 66l3 -91v-63q0 -114 116 -114zM404 399v183h-261l252 -241q9 26 9 58z" />
    <glyph glyph-name="uni0938" unicode="&#x938;" horiz-adv-x="669" 
d="M408 331q52 0 98 11v240h-214v-202q0 -20 -4 -32q56 -17 120 -17zM133 270l-2 -3q46 -55 66 -81l123 -163l-47 -32l-251 335l44 35q40 -43 95 -43q73 0 73 70v194h-254v52h709v-52h-125v-582h-58v287q-34 -8 -99 -8q-79 0 -143 22q-32 -36 -91 -36q-26 0 -40 5z" />
    <glyph glyph-name="uni0939" unicode="&#x939;" horiz-adv-x="500" 
d="M402 62l-53 31q39 30 39 70q0 32 -25.5 53.5t-72.5 21.5q-64 0 -103 -31t-39 -78q0 -63 65 -104t206 -47l-24 -53q-148 10 -228 63.5t-80 142.5q0 71 62 120q-29 19 -50 52t-21 71q0 44 30 71.5t84 27.5h166v109h-378v52h540v-52h-105v-163h-211q-65 0 -65 -50
q0 -26 17 -51t43 -40q42 16 88 16q78 0 120 -38t42 -94q0 -61 -47 -100z" />
    <glyph glyph-name="uni093A" unicode="&#x93a;" 
d="M-105 615h-58v183h58v-183z" />
    <glyph glyph-name="uni093B" unicode="&#x93b;" horiz-adv-x="268" 
d="M288 582h-125v-582h-58v582h-125v52h125v164h58v-164h125v-52z" />
    <glyph glyph-name="uni093C" unicode="&#x93c;" 
d="M-311 -116q0 18 11.5 29.5t29.5 11.5t29.5 -11.5t11.5 -29.5t-11.5 -29.5t-29.5 -11.5t-29.5 11.5t-11.5 29.5z" />
    <glyph glyph-name="uni093D" unicode="&#x93d;" horiz-adv-x="477" 
d="M229 105q64 0 97.5 28.5t33.5 73.5q0 25 -8 43.5t-30.5 35t-40 26t-59.5 29.5l-41.5 20.5t-36.5 23t-33.5 30t-20.5 37t-9 49.5q0 61 44 97t115 36h157v-55h-154q-49 0 -75.5 -21t-26.5 -57q0 -37 28.5 -61t95.5 -57q40 -20 61 -32t46.5 -33.5t36.5 -48t11 -62.5
q0 -70 -51 -114.5t-142 -44.5q-62 0 -113.5 20.5t-83.5 46.5l37 50q67 -60 162 -60z" />
    <glyph glyph-name="uni093E" unicode="&#x93e;" horiz-adv-x="268" 
d="M288 582h-125v-582h-58v582h-125v52h308v-52z" />
    <glyph glyph-name="uni093F" unicode="&#x93f;" horiz-adv-x="268" 
d="M660 732l-43 -36q-49 63 -131 114t-180 51q-67 0 -105 -36t-38 -97v-94h125v-52h-125v-582h-58v582h-125v52h125v97q0 82 57 133t144 51q112 0 204 -56.5t150 -126.5z" />
    <glyph glyph-name="uni0940" unicode="&#x940;" horiz-adv-x="268" 
d="M288 582h-125v-582h-58v582h-125v52h125q-5 95 -51.5 160t-120.5 65q-39 0 -61.5 -21t-22.5 -56q0 -41 29 -70l-62 -13q-29 33 -29 85q0 55 40.5 92.5t105.5 37.5q93 0 157 -75.5t73 -204.5h125v-52z" />
    <glyph glyph-name="uni0941" unicode="&#x941;" 
d="M-428 -73q45 -68 109.5 -112.5t142.5 -44.5q52 0 87 26.5t35 75.5q0 36 -24 60.5t-61 24.5q-57 0 -88 -46l-45 37q50 64 133 64q63 0 105 -38.5t42 -101.5t-46.5 -110t-138.5 -47q-172 0 -299 171z" />
    <glyph glyph-name="uni0942" unicode="&#x942;" 
d="M136 -254l-57 -16q-21 99 -79 162t-132 63q-42 0 -69 -24t-27 -62q0 -34 21.5 -57.5t58.5 -23.5q25 0 49 9v-56q-19 -8 -51 -8q-62 0 -101 39.5t-39 96.5q0 61 45.5 101t113.5 40q54 0 101.5 -24.5t80 -64.5t54 -84.5t31.5 -90.5z" />
    <glyph glyph-name="uni0943" unicode="&#x943;" 
d="M-36 -151l24 -49q-56 -31 -128 -31q-68 0 -109.5 35t-41.5 93q0 61 50 98.5t126 44.5l10 -40v-9q-127 -16 -127 -94q0 -34 24 -54.5t70 -20.5q58 0 102 27z" />
    <glyph glyph-name="uni0944" unicode="&#x944;" 
d="M-97 -125l8 -46q-137 -7 -137 -69q0 -25 22 -39.5t62 -14.5q78 0 118 33l23 -46q-57 -37 -138 -37q-63 0 -102.5 26.5t-39.5 76.5q0 36 21.5 57t52.5 28q-30 1 -57 23.5t-27 62.5q0 49 47 80t129 31l10 -41v-10q-128 0 -128 -63q0 -56 84 -56q32 0 52 4z" />
    <glyph glyph-name="uni0945" unicode="&#x945;" 
d="M-134 754q-135 0 -195 113l46 26q49 -84 149 -84t149 84l45 -26q-60 -113 -194 -113z" />
    <glyph glyph-name="uni0946" unicode="&#x946;" 
d="M-105 624h-58q0 41 -15 58t-54 31l-156 60q-92 34 -92 125h58q0 -32 15.5 -48t53.5 -31l156 -60q48 -19 70 -49.5t22 -85.5z" />
    <glyph glyph-name="uni0947" unicode="&#x947;" 
d="M-111 631l-38 -12l-5 4q-68 62 -157 164l-81 94l67 17z" />
    <glyph glyph-name="uni0948" unicode="&#x948;" 
d="M-140 634l3 1l-129 247l66 17l99 -272l-46 -24q-156 115 -328 260l58 35z" />
    <glyph glyph-name="uni0949" unicode="&#x949;" horiz-adv-x="268" 
d="M288 582h-125v-582h-58v582h-125v52h308v-52zM134 754q-135 0 -195 113l46 26q49 -84 149 -84t149 84l45 -26q-60 -113 -194 -113z" />
    <glyph glyph-name="uni094A" unicode="&#x94a;" horiz-adv-x="268" 
d="M288 582h-125v-582h-58v582h-125v52h125q-2 35 -17 50t-52 29l-156 60q-92 34 -92 125h58q0 -32 15.5 -48t53.5 -31l156 -60q46 -18 68 -46.5t24 -78.5h125v-52z" />
    <glyph glyph-name="uni094B" unicode="&#x94b;" horiz-adv-x="268" 
d="M288 582h-125v-582h-58v582h-125v52h125q-75 72 -145 153l-81 94l67 17l212 -264h130v-52z" />
    <glyph glyph-name="uni094C" unicode="&#x94c;" horiz-adv-x="268" 
d="M288 582h-125v-582h-58v582h-125v52h99q-134 101 -286 229l58 35l277 -264l3 1l-129 247l66 17l96 -265h124v-52z" />
    <glyph glyph-name="uni094D" unicode="&#x94d;" 
d="M20 -227v-4h-74l-110 144l49 18z" />
    <glyph glyph-name="uni094E" unicode="&#x94e;" horiz-adv-x="268" 
d="M288 582h-125v-582h-58v634h183v-52z" />
    <glyph glyph-name="uni094F" unicode="&#x94f;" horiz-adv-x="268" 
d="M-60 774l52 -21.5t50 -21t38 -20.5t32.5 -30t17.5 -40h5q0 24 -15 47.5t-36 43.5l-42.5 42t-36.5 52t-15 64l4 33h56q-4 -18 -4 -34q0 -35 18.5 -68t40 -55t40 -54t18.5 -65v-13h125v-52h-125v-582h-58v582h-125v52h125q-11 24 -39.5 40t-84 34t-76.5 27q-95 40 -92 124
h58q1 -32 17 -50.5t52 -34.5z" />
    <glyph glyph-name="uni0950" unicode="&#x950;" horiz-adv-x="1223" 
d="M925 101q51 0 86.5 50.5t35.5 130.5q0 57 -29 92.5t-72 35.5q-13 0 -25 -4.5t-23.5 -15.5t-20 -20t-21 -29.5t-18.5 -31.5l-20 -37t-20 -36q-4 -8 -10 -17q17 -51 52.5 -84.5t84.5 -33.5zM371 327q58 -15 95 -88q3 -5 14 -28t15.5 -30t16 -23.5t21.5 -22.5t26 -12t35 -6
q49 0 83 37t72 109q54 104 77 135q54 68 118 69q71 0 118 -51t47 -143q0 -86 -49 -156.5t-130 -70.5q-122 0 -178 115q-69 -99 -158 -99q-50 0 -84 25.5t-51 58.5q-8 -50 -52.5 -87t-120.5 -37q-118 0 -184 97l49 41q51 -80 138 -80q60 0 91 33t31 79q0 43 -29.5 71
t-81.5 28q-12 0 -24 -2l-36 -4l-9 57q75 6 112.5 32.5t37.5 84.5q0 41 -26 67t-71 26q-54 0 -96 -46l-42 40q52 61 142 61q67 0 111 -41.5t44 -106.5q0 -87 -72 -128v-4zM692 553q-73 0 -123 31.5t-77 81.5l46 26q21 -36 61 -60t93 -24t93.5 24t61.5 60l45 -26
q-27 -50 -77 -81.5t-123 -31.5zM646 765q0 22 14 36t34 14q21 0 34.5 -14t13.5 -36q0 -20 -13.5 -33t-34.5 -13q-20 0 -34 13.5t-14 32.5z" />
    <glyph glyph-name="uni0951" unicode="&#x951;" 
d="M-163 908h58v-196h-58v196z" />
    <glyph glyph-name="uni0952" unicode="&#x952;" 
d="M-80 -147h-400v47h400v-47z" />
    <glyph glyph-name="uni0953" unicode="&#x953;" 
d="M-282 879l44 37l144 -169l-44 -37z" />
    <glyph glyph-name="uni0954" unicode="&#x954;" 
d="M-34 916l44 -37l-144 -169l-44 37z" />
    <glyph glyph-name="uni0955" unicode="&#x955;" 
d="M-133 798q-123 0 -178 103l42 23q44 -76 136 -76t136 76l41 -23q-55 -103 -177 -103zM31 702h-328v47h328v-47z" />
    <glyph glyph-name="uni0956" unicode="&#x956;" 
d="M-276 -177q-61 0 -110 8.5t-68 16.5l-18 8l11 43q94 -21 185 -21q90 0 185 21l11 -43q-5 -4 -17.5 -9.5t-62.5 -14.5t-116 -9z" />
    <glyph glyph-name="uni0957" unicode="&#x957;" 
d="M-276 -170q-61 0 -110 8t-68 16l-18 9l11 43q94 -21 185 -21q90 0 185 21l11 -43q-5 -4 -17.5 -9.5t-62.5 -14.5t-116 -9zM-276 -311q-61 0 -110 8.5t-68 16.5l-18 8l11 43q94 -21 185 -21q90 0 185 21l11 -43q-5 -4 -17.5 -9.5t-62.5 -14.5t-116 -9z" />
    <glyph glyph-name="uni0915093C" unicode="&#x958;" horiz-adv-x="763" 
d="M651 297q0 50 -31.5 81t-81.5 31q-57 0 -92.5 -37t-35.5 -98v-274h-57v195h-4q-44 -62 -135 -62q-67 0 -115.5 46.5t-48.5 118.5q0 84 61.5 131t143.5 35l9 -55q-60 10 -106 -18t-46 -91q0 -49 31 -80.5t82 -31.5q57 0 92.5 37t35.5 98v259h-373v52h803v-52h-373v-180h4
q44 62 136 62q67 0 115 -46t48 -119q0 -84 -61.5 -131t-143.5 -35l-9 55q60 -10 106 18t46 91zM101 19q0 18 11.5 29.5t29.5 11.5t29.5 -11.5t11.5 -29.5t-11.5 -29.5t-29.5 -11.5t-29.5 11.5t-11.5 29.5z" />
    <glyph glyph-name="uni0916093C" unicode="&#x959;" horiz-adv-x="779" 
d="M617 143h-4q-37 -48 -97.5 -77.5t-134.5 -29.5q-137 0 -221.5 93.5t-97.5 244.5l52 18q25 -44 73 -44q54 0 54 64v170h-261v52h819v-52h-125v-582h-57v143zM612 453h4v129h-317v-169q0 -53 -30 -84t-75 -31q-38 0 -62 13q20 -105 87.5 -162.5t160.5 -57.5q100 0 169.5 61
t69.5 166q0 54 -30.5 86t-72.5 32q-44 0 -71 -26.5t-27 -69.5t30.5 -71.5t85.5 -30.5l-31 -47q-57 2 -100 42.5t-43 106.5t44 108.5t107 42.5q65 0 101 -38zM79 0q0 18 11.5 29.5t29.5 11.5t29.5 -11.5t11.5 -29.5t-11.5 -29.5t-29.5 -11.5t-29.5 11.5t-11.5 29.5z" />
    <glyph glyph-name="uni0917093C" unicode="&#x95a;" horiz-adv-x="546" 
d="M383 0v582h-196v-365h-67q-46 40 -48 112l57 40v213h-149v52h586v-52h-125v-582h-58zM114 52q0 18 11.5 29.5t29.5 11.5t29.5 -11.5t11.5 -29.5t-11.5 -29.5t-29.5 -11.5t-29.5 11.5t-11.5 29.5z" />
    <glyph glyph-name="uni091C093C" unicode="&#x95b;" horiz-adv-x="733" 
d="M276 381v4l27 48h267v149h-590v52h773v-52h-125v-582h-58v380h-188v-4q49 -46 49 -110q0 -59 -41.5 -100t-109.5 -41q-56 0 -102.5 26t-76 68t-47 88.5t-23.5 94.5l61 22q3 -95 54.5 -169.5t129.5 -74.5q44 0 69.5 25t25.5 64q0 47 -30.5 75t-64.5 37zM78 29
q0 18 11.5 29.5t29.5 11.5t29.5 -11.5t11.5 -29.5t-11.5 -29.5t-29.5 -11.5t-29.5 11.5t-11.5 29.5z" />
    <glyph glyph-name="uni0921093C" unicode="&#x95c;" horiz-adv-x="536" 
d="M240 271l171 34q29 -17 49 -51.5t20 -76.5q0 -68 -53 -114t-137 -46q-79 0 -143.5 42.5t-107.5 119.5l48 34q33 -66 85 -104.5t118 -38.5q57 0 93.5 29t36.5 78q0 45 -31 69l-161 -32q-49 15 -84 57t-35 97q0 46 29.5 75t79.5 29h150v110h-388v52h576v-52h-131v-163h-180
q-75 0 -75 -62q0 -29 20.5 -53.5t49.5 -32.5zM251 -95q0 18 11.5 29.5t29.5 11.5t29.5 -11.5t11.5 -29.5t-11.5 -29.5t-29.5 -11.5t-29.5 11.5t-11.5 29.5z" />
    <glyph glyph-name="uni0922093C" unicode="&#x95d;" horiz-adv-x="515" 
d="M290 99q52 0 81.5 25.5t29.5 64.5q0 25 -17.5 43t-43.5 18q-34 0 -50.5 -25.5t-9.5 -58.5l-56 22q-4 45 27 81.5t88 36.5q52 0 87 -34t35 -83q0 -59 -47.5 -101.5t-119.5 -42.5q-103 0 -173.5 66.5t-70.5 156.5q0 62 38 108t102 64l145 42v100h-355v52h555v-52h-142v-141
l-165 -45q-65 -18 -91 -51t-26 -82q0 -65 50.5 -114.5t128.5 -49.5zM242 -71q0 18 11.5 29.5t29.5 11.5t29.5 -11.5t11.5 -29.5t-11.5 -29.5t-29.5 -11.5t-29.5 11.5t-11.5 29.5z" />
    <glyph glyph-name="uni092B093C" unicode="&#x95e;" horiz-adv-x="785" 
d="M375 264h-4q-37 -65 -129 -65q-68 0 -110 40.5t-42 117.5v225h-110v52h825v-52h-372v-184h4q16 24 52 44.5t86 20.5q70 0 118 -46.5t48 -119.5q0 -86 -60 -136.5t-146 -39.5l-9 57q70 -12 111.5 23t41.5 95q0 50 -31 80.5t-82 30.5q-57 0 -95 -41t-38 -108v-258h-58v264z
M376 406v176h-228v-216q0 -112 97 -112q59 0 95 41t36 111zM108 41q0 18 11.5 29.5t29.5 11.5t29.5 -11.5t11.5 -29.5t-11.5 -29.5t-29.5 -11.5t-29.5 11.5t-11.5 29.5z" />
    <glyph glyph-name="uni092F093C" unicode="&#x95f;" horiz-adv-x="605" 
d="M442 222h-4q-54 -78 -164 -78q-88 0 -149 59t-75 163q74 17 110.5 45t36.5 73q0 59 -47 98h-170v52h645v-52h-125v-582h-58v222zM120 335q8 -50 48.5 -93t113.5 -43q71 0 116 47t45 131v205h-225v-4q40 -45 40 -103q0 -50 -38 -87.5t-100 -52.5zM86 31q0 18 11.5 29.5
t29.5 11.5t29.5 -11.5t11.5 -29.5t-11.5 -29.5t-29.5 -11.5t-29.5 11.5t-11.5 29.5z" />
    <glyph glyph-name="uni0960" unicode="&#x960;" horiz-adv-x="802" 
d="M425 0h-54v249l-266 -177l-42 41l264 163q-21 59 -61.5 88.5t-88.5 29.5q-62 0 -110 -45l-43 44q64 57 151 57q134 0 191 -133h4v265h-390v52h842v-52h-397v-245l67 41q52 32 69.5 58t17.5 58v10h55v-9q0 -80 -86 -142q21 -26 63 -26h39l21 -45q-56 -27 -77 -45t-21 -37
q0 -40 58 -40q17 0 67 11l13 -39q-26 -7 -39.5 -12t-31 -13t-25.5 -19t-8 -25q0 -44 60 -44q57 0 100 32l27 -37q-50 -39 -123 -39q-51 0 -83.5 21.5t-32.5 63.5q0 44 43 66l-1 3q-32 1 -54 19t-22 52q0 53 74 86l-1 3q-70 -2 -92 34l-77 -47v-276z" />
    <glyph glyph-name="uni0961" unicode="&#x961;" horiz-adv-x="711" 
d="M740 -62q-54 -43 -134 -43q-57 0 -91.5 23.5t-34.5 68.5q0 22 13 42t33 31l-1 3q-35 0 -59.5 19.5t-24.5 58.5q0 21 11.5 41t28 36.5l33.5 32.5t28.5 36t11.5 41q0 29 -23 48t-57 19q-42 0 -73 -28t-31 -80v-86h-58v85q0 51 -24 77.5t-66 26.5t-69.5 -31t-27.5 -90
q0 -153 151 -229l-39 -44q-74 39 -123.5 111.5t-49.5 162.5q0 80 45.5 127.5t108.5 47.5q95 0 122 -81h4q10 35 42.5 59t71.5 27v132h-478v52h751v-52h-215v-136q48 -12 73.5 -45t25.5 -79q0 -32 -17.5 -60.5t-39 -45.5t-39 -38t-17.5 -39q0 -42 63 -42q36 0 70 12l15 -42
q-29 -8 -43.5 -13t-33.5 -14.5t-27.5 -21.5t-8.5 -27q0 -48 65 -48q63 0 109 35z" />
    <glyph glyph-name="uni0962" unicode="&#x962;" 
d="M-67 -378q0 29 17.5 58t39 49t39 44.5t17.5 45.5q0 32 -19 49t-51 17q-37 0 -61 -24t-24 -75v-28h-56v28q0 99 -82 99q-36 0 -58.5 -26.5t-22.5 -73.5q0 -83 75 -140l-40 -41q-40 26 -68 74t-28 108q0 71 40 112.5t100 41.5q43 0 72 -20.5t38 -48.5h4q27 69 113 69
q55 0 89.5 -35.5t34.5 -83.5q0 -31 -17 -60t-38 -48t-38 -43.5t-17 -47.5q0 -58 78 -58q47 0 92 32l25 -45q-46 -37 -117 -37q-65 0 -101 29.5t-36 78.5z" />
    <glyph glyph-name="uni0963" unicode="&#x963;" 
d="M129 -455q51 0 95 30l24 -42q-53 -35 -120 -35q-58 0 -91 24t-33 64q0 46 42 66v3q-29 1 -48 18.5t-19 48.5q0 28 26.5 62.5t26.5 50.5q0 23 -15 36.5t-41 13.5q-35 0 -60 -27t-25 -72v-28h-56v28q0 99 -82 99q-36 0 -58.5 -26.5t-22.5 -73.5q0 -83 75 -140l-40 -41
q-40 26 -68 74t-28 108q0 71 40 112.5t100 41.5q43 0 72 -20.5t38 -48.5h4q10 26 39 47.5t74 21.5q51 0 82.5 -28t31.5 -73q1 -31 -29 -66t-30 -54q0 -33 58 -33q24 0 54 7l11 -42q-48 -9 -72.5 -23t-24.5 -42q0 -41 70 -41z" />
    <glyph glyph-name="uni0964" unicode="&#x964;" horiz-adv-x="460" 
d="M260 0h-60v634h60v-634z" />
    <glyph glyph-name="uni0965" unicode="&#x965;" horiz-adv-x="730" 
d="M260 0h-60v634h60v-634zM530 0h-60v634h60v-634z" />
    <glyph glyph-name="uni0966" unicode="&#x966;" horiz-adv-x="457" 
d="M60 336q0 78 46 126.5t123 48.5t122.5 -48.5t45.5 -126.5q0 -77 -46 -125t-123 -48t-122.5 47.5t-45.5 125.5zM118 336q0 -53 29.5 -86t80.5 -33t81 33.5t30 85.5q0 53 -29.5 87t-80.5 34t-81 -34t-30 -87z" />
    <glyph glyph-name="uni0967" unicode="&#x967;" horiz-adv-x="490" 
d="M332 0h-59v7q14 16 14 41q0 11 -3.5 21.5t-12.5 22t-17.5 20.5t-26.5 23l-31 23.5l-39.5 28.5l-43.5 32v43q112 53 161 95q-9 -1 -31 -1q-56 0 -102 38.5t-46 105.5q0 62 42.5 103t106.5 41q67 0 110.5 -42t43.5 -104q0 -83 -51 -146t-166 -118q88 -62 127 -103t39 -83
q0 -29 -15 -48zM282 398q20 0 32 3q24 39 24 98q0 40 -26.5 65.5t-66.5 25.5q-41 0 -66 -24t-25 -66q0 -46 34.5 -74t93.5 -28z" />
    <glyph glyph-name="uni0968" unicode="&#x968;" horiz-adv-x="492" 
d="M80 367q0 17 1 21l40 24l68 -86q70 5 117 41.5t47 97.5q0 56 -34 90t-87 34q-58 0 -104 -35l-39 44q59 46 141 46q80 0 132.5 -50t52.5 -129q0 -84 -56.5 -133t-138.5 -61l133 -225l-71 -14l-110 231q-40 4 -66 35.5t-26 68.5z" />
    <glyph glyph-name="uni0969" unicode="&#x969;" horiz-adv-x="481" 
d="M378 -4l-67 -36l-136 138q-95 4 -120 69q-4 12 -5 18l30 31l87 -62q20 -4 46 -4q62 0 97.5 25.5t35.5 69.5q0 49 -34.5 74t-94.5 25q-23 0 -49 -3l-9 53q72 0 114.5 28t42.5 80q0 42 -27.5 65t-74.5 23q-63 0 -104 -44l-43 45q57 53 148 53q72 0 117.5 -38t45.5 -103
q0 -47 -26.5 -78t-60.5 -42v-4q43 -7 80 -40.5t37 -93.5q0 -61 -48.5 -100.5t-119.5 -41.5v-4z" />
    <glyph glyph-name="uni096A" unicode="&#x96a;" horiz-adv-x="500" 
d="M412 180q0 -67 -43.5 -106.5t-118.5 -39.5t-118.5 39.5t-43.5 106.5q0 52 29.5 90.5t83.5 78.5q-66 46 -103 91.5t-37 111.5q0 42 19 72l58 -23q-15 -23 -15 -53q0 -35 20 -67t43 -51t64 -48q41 29 63.5 48t42.5 51t20 67q0 30 -15 53l58 23q19 -30 19 -72
q0 -66 -37 -111.5t-103 -91.5q54 -39 84 -78t30 -91zM250 87q48 0 74.5 24t26.5 69q0 39 -26 69.5t-75 65.5q-49 -35 -75 -65.5t-26 -69.5q0 -45 26.5 -69t74.5 -24z" />
    <glyph glyph-name="uni096B" unicode="&#x96b;" horiz-adv-x="537" 
d="M511 7l-71 -13l-82 235q-50 -27 -124 -27q-72 0 -123 46t-51 127q0 138 121 269l50 -31q-111 -112 -111 -235q0 -55 32 -88t82 -33q70 0 106 29l-19 105l44 20q2 -3 12.5 -16l14 -17.5t11.5 -16t10.5 -18.5t5.5 -17t3 -19q0 -32 -19 -55z" />
    <glyph glyph-name="uni096C" unicode="&#x96c;" horiz-adv-x="530" 
d="M535 -41l-76 -14l-68 153q-43 -24 -114 -24q-84 0 -134.5 42.5t-50.5 111.5q0 54 34 90t84 50v4q-55 11 -90.5 43.5t-35.5 87.5q0 59 49.5 99.5t136.5 40.5q72 0 116 -17l-16 -55q-40 16 -96 16q-59 0 -92.5 -21.5t-33.5 -63.5q0 -46 41.5 -73t118.5 -27q10 0 36 2l9 -55
q-197 -14 -197 -123q0 -45 31.5 -71t96.5 -26q62 0 97 30v94l41 9q17 -10 27 -33t10 -45q0 -43 -25 -73z" />
    <glyph glyph-name="uni096D" unicode="&#x96d;" horiz-adv-x="646" 
d="M576 317q0 -123 -64 -195t-172 -72q-86 0 -147 49t-88 125.5t-27 171.5q0 129 27 230l62 -2q-28 -96 -28 -228q0 -124 51.5 -207.5t143.5 -83.5q64 0 111 35.5t64 104.5q-34 -17 -74 -17q-71 0 -112.5 42t-41.5 104q0 59 41 97.5t100 38.5q64 0 109 -48.5t45 -144.5z
M445 279q39 0 71 19q1 6 1 19q0 71 -26 105t-69 34q-35 0 -58 -22t-23 -62q0 -41 26 -67t78 -26z" />
    <glyph glyph-name="uni096E" unicode="&#x96e;" horiz-adv-x="470" 
d="M384 605l-174 -219q-8 -12 -26.5 -37.5t-24.5 -34.5t-15 -27t-12 -33.5t-3 -34.5q0 -49 37 -82t98 -33q83 0 153 58l33 -49q-34 -30 -83.5 -47t-95.5 -17q-91 0 -147.5 50.5t-56.5 124.5q0 48 20 88t74 108l167 214z" />
    <glyph glyph-name="uni096F" unicode="&#x96f;" horiz-adv-x="472" 
d="M339 0h-70v6q41 36 41 86q0 31 -44 87l-96 122q-45 57 -67.5 100.5t-22.5 88.5q0 67 43.5 110t108.5 43q74 0 117 -45t43 -109q0 -67 -44.5 -110.5t-123.5 -48.5l90 -114q60 -77 60 -122q0 -51 -35 -94zM187 382q143 0 143 107q0 46 -25.5 73t-71.5 27q-38 0 -64.5 -26.5
t-26.5 -71.5q0 -48 43 -109h2z" />
    <glyph glyph-name="uni0970" unicode="&#x970;" horiz-adv-x="490" 
d="M102 295q0 69 40.5 109t108.5 40q66 0 103.5 -37t37.5 -107q0 -69 -40.5 -109t-108.5 -40q-66 0 -103.5 37t-37.5 107zM160 299q0 -44 23.5 -70t65.5 -26q85 0 85 93q0 44 -23.5 70t-65.5 26q-85 0 -85 -93z" />
    <glyph glyph-name="uni0971" unicode="&#x971;" horiz-adv-x="308" 
d="M106 606q0 22 14 36t34 14q21 0 34.5 -14t13.5 -36q0 -20 -13.5 -33t-34.5 -13q-20 0 -34 13.5t-14 32.5z" />
    <glyph glyph-name="uni0972" unicode="&#x972;" horiz-adv-x="714" 
d="M734 634v-52h-125v-582h-58v266q-34 -16 -73 -16q-45 0 -83 18q3 -14 3 -30q0 -70 -49 -116.5t-130 -46.5q-97 0 -168 67l40 43q52 -56 128 -56q57 0 88 31t31 78q0 44 -30 69t-84 25h-54v54h30q48 0 78.5 27.5t30.5 74.5q0 42 -24.5 66.5t-67.5 24.5q-56 0 -87 -42
l-44 39q47 58 133 58q70 0 110.5 -41t40.5 -103q0 -43 -22 -75t-48 -45v-4q33 -8 59 -34q43 -28 104 -28q50 0 88 22v256h-115v52h298zM581 754q-135 0 -195 113l46 26q49 -84 149 -84t149 84l45 -26q-60 -113 -194 -113z" />
    <glyph glyph-name="uni0973" unicode="&#x973;" horiz-adv-x="714" 
d="M734 634v-52h-125v-582h-58v266q-34 -16 -73 -16q-45 0 -83 18q3 -14 3 -30q0 -70 -49 -116.5t-130 -46.5q-97 0 -168 67l40 43q52 -56 128 -56q57 0 88 31t31 78q0 44 -30 69t-84 25h-54v54h30q48 0 78.5 27.5t30.5 74.5q0 42 -24.5 66.5t-67.5 24.5q-56 0 -87 -42
l-44 39q47 58 133 58q70 0 110.5 -41t40.5 -103q0 -43 -22 -75t-48 -45v-4q33 -8 59 -34q43 -28 104 -28q50 0 88 22v256h-115v52h115v164h58v-164h125z" />
    <glyph glyph-name="uni0974" unicode="&#x974;" horiz-adv-x="982" 
d="M51 142l40 43q52 -56 128 -56q57 0 88 31t31 78q0 44 -30 69t-84 25h-54v54h30q48 0 78.5 27.5t30.5 74.5q0 42 -24.5 66.5t-67.5 24.5q-56 0 -87 -42l-44 39q47 58 133 58q70 0 110.5 -41t40.5 -103q0 -43 -22 -75t-48 -45v-4q33 -8 59 -34q43 -28 104 -28q50 0 88 22
v256h-115v52h383v164h58v-164h125v-52h-125v-582h-58v582h-210v-582h-58v266q-34 -16 -73 -16q-45 0 -83 18q3 -14 3 -30q0 -70 -49 -116.5t-130 -46.5q-97 0 -168 67z" />
    <glyph glyph-name="uni0975" unicode="&#x975;" horiz-adv-x="982" 
d="M51 142l40 43q52 -56 128 -56q57 0 88 31t31 78q0 44 -30 69t-84 25h-54v54h30q48 0 78.5 27.5t30.5 74.5q0 42 -24.5 66.5t-67.5 24.5q-56 0 -87 -42l-44 39q47 58 133 58q70 0 110.5 -41t40.5 -103q0 -43 -22 -75t-48 -45v-4q33 -8 59 -34q43 -28 104 -28q50 0 88 22
v256h-115v52h383q-11 24 -39.5 40t-84 34t-76.5 27q-95 40 -92 124h58q1 -32 17 -50.5t52 -34.5l52 -21.5t50 -21t38 -20.5t32.5 -30t17.5 -40h5q0 24 -15 47.5t-36 43.5l-42.5 42t-36.5 52t-15 64l4 33h56q-4 -18 -4 -34q0 -35 18.5 -68t40 -55t40 -54t18.5 -65v-13h125
v-52h-125v-582h-58v582h-210v-582h-58v266q-34 -16 -73 -16q-45 0 -83 18q3 -14 3 -30q0 -70 -49 -116.5t-130 -46.5q-97 0 -168 67z" />
    <glyph glyph-name="uni0976" unicode="&#x976;" horiz-adv-x="714" 
d="M734 634v-52h-125v-582h-58v266q-34 -16 -73 -16q-45 0 -83 18q3 -14 3 -30q0 -70 -49 -116.5t-130 -46.5q-97 0 -168 67l40 43q52 -56 128 -56q57 0 88 31t31 78q0 44 -30 69t-84 25h-54v54h30q48 0 78.5 27.5t30.5 74.5q0 42 -24.5 66.5t-67.5 24.5q-56 0 -87 -42
l-44 39q47 58 133 58q70 0 110.5 -41t40.5 -103q0 -43 -22 -75t-48 -45v-4q33 -8 59 -34q43 -28 104 -28q50 0 88 22v256h-115v52h298zM394 -177q-61 0 -110 8.5t-68 16.5l-18 8l11 43q95 -21 185 -21t185 21l11 -43q-5 -4 -17.5 -9.5t-62.5 -14.5t-116 -9z" />
    <glyph glyph-name="uni0977" unicode="&#x977;" horiz-adv-x="714" 
d="M734 634v-52h-125v-582h-58v266q-34 -16 -73 -16q-45 0 -83 18q3 -14 3 -30q0 -70 -49 -116.5t-130 -46.5q-97 0 -168 67l40 43q52 -56 128 -56q57 0 88 31t31 78q0 44 -30 69t-84 25h-54v54h30q48 0 78.5 27.5t30.5 74.5q0 42 -24.5 66.5t-67.5 24.5q-56 0 -87 -42
l-44 39q47 58 133 58q70 0 110.5 -41t40.5 -103q0 -43 -22 -75t-48 -45v-4q33 -8 59 -34q43 -28 104 -28q50 0 88 22v256h-115v52h298zM394 -170q-61 0 -110 8t-68 16l-18 9l11 43q95 -21 185 -21t185 21l11 -43q-5 -4 -17.5 -9.5t-62.5 -14.5t-116 -9zM394 -311
q-61 0 -110 8.5t-68 16.5l-18 8l11 43q95 -21 185 -21t185 21l11 -43q-5 -4 -17.5 -9.5t-62.5 -14.5t-116 -9z" />
    <glyph glyph-name="uni0978" unicode="&#x978;" horiz-adv-x="505" 
d="M377 0h-64q76 144 76 233q0 94 -102 94h-114v-103h-51q-23 20 -38 55t-16 67l47 34v202h-139v52h549v-52h-352v-201h114q74 0 117 -40.5t43 -107.5q0 -58 -22 -123t-48 -110z" />
    <glyph glyph-name="uni0979" unicode="&#x979;" horiz-adv-x="733" 
d="M128 36q0 15 9 24t24 9q14 0 23.5 -9t9.5 -24q0 -14 -9.5 -23.5t-23.5 -9.5q-15 0 -24 9.5t-9 23.5zM307 36q0 15 9 24t24 9q14 0 23.5 -9t9.5 -24q0 -14 -9.5 -23.5t-23.5 -9.5q-15 0 -24 9.5t-9 23.5zM219 -78q0 15 9 24t24 9q14 0 23.5 -9t9.5 -24q0 -14 -9.5 -23.5
t-23.5 -9.5q-15 0 -24 9.5t-9 23.5zM276 381v4l27 48h267v149h-590v52h773v-52h-125v-582h-58v380h-188v-4q49 -46 49 -110q0 -59 -41.5 -100t-109.5 -41q-56 0 -102.5 26t-76 68t-47 88.5t-23.5 94.5l61 22q3 -95 54.5 -169.5t129.5 -74.5q44 0 69.5 25t25.5 64
q0 47 -30.5 75t-64.5 37z" />
    <glyph glyph-name="uni097A" unicode="&#x97a;" horiz-adv-x="605" 
d="M442 222h-4q-54 -78 -164 -78q-88 0 -149 59t-75 163q74 17 110.5 45t36.5 73q0 59 -47 98h-170v52h645v-52h-125v-582h-58v222zM218 578q10 -10 18 -24l194 -255q13 36 13 78v205h-225v-4zM120 335q8 -50 48.5 -93t113.5 -43q81 0 125 58l-151 198q-7 -43 -44 -74.5
t-92 -45.5z" />
    <glyph glyph-name="uni097B" unicode="&#x97b;" horiz-adv-x="546" 
d="M441 0h-345v53h287v529h-196v-365h-67q-46 40 -48 112l57 40v213h-149v52h586v-52h-125v-582z" />
    <glyph glyph-name="uni097C" unicode="&#x97c;" horiz-adv-x="718" 
d="M271 401v4l27 48h257v129h-575v52h758v-52h-125v-582h-490v53h432v347h-178v-4q49 -46 49 -110q0 -59 -41.5 -100t-109.5 -41q-47 0 -86.5 17.5t-65 45t-44.5 65.5t-28.5 74t-14.5 75l61 22q2 -61 21.5 -115.5t60 -91.5t92.5 -37q44 0 69.5 25t25.5 64q0 47 -30.5 75
t-64.5 37z" />
    <glyph glyph-name="uni097D" unicode="&#x97d;" horiz-adv-x="444" 
d="M220 579h-132v55h130q75 0 118.5 -37t43.5 -100q0 -20 -6.5 -42.5t-14 -38.5t-24.5 -40.5t-25 -34.5l-29 -35.5l-25 -30.5q-30 -37 -30 -91v-184h-59v187q0 69 42 121l28.5 34t32.5 40.5l24.5 35.5t21.5 41t6 35q0 85 -102 85z" />
    <glyph glyph-name="uni097E" unicode="&#x97e;" horiz-adv-x="545" 
d="M470 261q0 -69 -49 -107t-124 -38q-159 0 -248 114l40 35q30 -43 83 -69.5t122 -26.5q60 0 90.5 25t30.5 67q0 31 -19 45l-180 -28q-47 10 -77.5 45t-30.5 81q0 39 25.5 66.5t71.5 27.5h164v84h-399v52h605v-52h-152v-134h-199q-58 0 -58 -53q0 -23 15.5 -42t41.5 -23
l193 31q23 -12 38.5 -40t15.5 -60zM470 0h-390v53h390v-53z" />
    <glyph glyph-name="uni097F" unicode="&#x97f;" horiz-adv-x="561" 
d="M456 582v-582h-377v53h319v148h-4q-52 -69 -154 -69q-81 0 -135.5 48.5t-54.5 130.5q0 83 60 133.5t146 50.5q41 0 66 -8l2 -57q-29 11 -66 11q-55 0 -93 -25l213 -160q20 32 20 76v250h-418v52h601v-52h-125zM247 187q58 0 98 31l-216 163q-19 -29 -19 -68
q0 -58 36.5 -92t100.5 -34z" />
    <glyph glyph-name="Wgrave" unicode="&#x1e80;" horiz-adv-x="916" 
d="M240 51h4q7 29 22.5 88t22.5 88l120 474h98l123 -480l22.5 -85l21.5 -85h4q8 28 22 84.5t22 84.5l124 481h60l-181 -701h-98l-124 485l-21.5 85l-22.5 85h-4l-21.5 -85l-21.5 -86l-123 -484h-98l-181 701h61l123 -474l23.5 -88t22.5 -88zM273 913l61 33l167 -122l-40 -28
z" />
    <glyph glyph-name="wgrave" unicode="&#x1e81;" horiz-adv-x="737" 
d="M371 487h-4l-123 -487h-86l-144 539h61l81 -311l44 -175h4l36 149l85 337h89l84 -338l36 -148h4l45 175l81 311h59l-145 -539h-86zM174 743l61 33l167 -122l-40 -28z" />
    <glyph glyph-name="Wacute" unicode="&#x1e82;" horiz-adv-x="916" 
d="M240 51h4q7 29 22.5 88t22.5 88l120 474h98l123 -480l22.5 -85l21.5 -85h4q8 28 22 84.5t22 84.5l124 481h60l-181 -701h-98l-124 485l-21.5 85l-22.5 85h-4l-21.5 -85l-21.5 -86l-123 -484h-98l-181 701h61l123 -474l23.5 -88t22.5 -88zM634 913l-188 -117l-40 28
l167 122z" />
    <glyph glyph-name="wacute" unicode="&#x1e83;" horiz-adv-x="737" 
d="M371 487h-4l-123 -487h-86l-144 539h61l81 -311l44 -175h4l36 149l85 337h89l84 -338l36 -148h4l45 175l81 311h59l-145 -539h-86zM552 743l-188 -117l-40 28l167 122z" />
    <glyph glyph-name="Wdieresis" unicode="&#x1e84;" horiz-adv-x="916" 
d="M240 51h4q7 29 22.5 88t22.5 88l120 474h98l123 -480l22.5 -85l21.5 -85h4q8 28 22 84.5t22 84.5l124 481h60l-181 -701h-98l-124 485l-21.5 85l-22.5 85h-4l-21.5 -85l-21.5 -86l-123 -484h-98l-181 701h61l123 -474l23.5 -88t22.5 -88zM329 878q0 18 11.5 29.5
t29.5 11.5q17 0 29 -11.5t12 -29.5q0 -17 -12 -29t-29 -12q-18 0 -29.5 12t-11.5 29zM505 878q0 18 12 29.5t29 11.5q18 0 29.5 -11.5t11.5 -29.5q0 -17 -11.5 -29t-29.5 -12q-17 0 -29 12t-12 29z" />
    <glyph glyph-name="wdieresis" unicode="&#x1e85;" horiz-adv-x="737" 
d="M371 487h-4l-123 -487h-86l-144 539h61l81 -311l44 -175h4l36 149l85 337h89l84 -338l36 -148h4l45 175l81 311h59l-145 -539h-86zM239 708q0 18 11.5 29.5t29.5 11.5q17 0 29 -11.5t12 -29.5q0 -17 -12 -29t-29 -12q-18 0 -29.5 12t-11.5 29zM415 708q0 18 12 29.5
t29 11.5q18 0 29.5 -11.5t11.5 -29.5q0 -17 -11.5 -29t-29.5 -12q-17 0 -29 12t-12 29z" />
    <glyph glyph-name="Ygrave" unicode="&#x1ef2;" horiz-adv-x="518" 
d="M520 701l-231 -441v-260h-60v260l-231 441h70l191 -377h4l191 377h66zM66 913l61 33l167 -122l-40 -28z" />
    <glyph glyph-name="ygrave" unicode="&#x1ef3;" horiz-adv-x="486" 
d="M23 -200l9 55q22 -8 49 -8q53 0 84.5 30t53.5 99l-193 563h62l95 -288l64 -198h4q15 61 59 198l93 288h60l-192 -580q-27 -82 -72.5 -124.5t-121.5 -42.5q-28 0 -54 8zM52 743l61 33l167 -122l-40 -28z" />
    <glyph glyph-name="uni200C" unicode="&#x200c;" 
d="M24 -230h-47v1041h47v-1041z" />
    <glyph glyph-name="uni200D" unicode="&#x200d;" 
d="M129 593l-33 -33l-72 75v-865h-47v865l-69 -73l-33 33l93 93l-95 95l33 33l95 -95l96 95l32 -32l-96 -96z" />
    <glyph glyph-name="endash" unicode="&#x2013;" horiz-adv-x="393" 
d="M393 264h-393v56h393v-56z" />
    <glyph glyph-name="emdash" unicode="&#x2014;" horiz-adv-x="645" 
d="M645 264h-645v56h645v-56z" />
    <glyph glyph-name="quoteleft" unicode="&#x2018;" horiz-adv-x="257" 
d="M155 723l17 -31q-67 -28 -67 -77q0 -23 14.5 -37.5t43.5 -30.5v-5q0 -23 -15.5 -38.5t-38.5 -15.5q-27 0 -45.5 21t-18.5 60q0 56 35 98t75 56z" />
    <glyph glyph-name="quoteright" unicode="&#x2019;" horiz-adv-x="257" 
d="M102 488l-17 31q67 28 67 77q0 23 -14.5 37.5t-43.5 30.5v5q0 23 15.5 38.5t38.5 15.5q27 0 45.5 -21t18.5 -60q0 -56 -35 -98t-75 -56z" />
    <glyph glyph-name="quotesinglbase" unicode="&#x201a;" horiz-adv-x="227" 
d="M67 -130l-20 34q66 28 66 73q0 39 -54 68v5q0 23 15.5 38.5t38.5 15.5q27 0 45.5 -21t18.5 -60q0 -56 -34.5 -97t-75.5 -56z" />
    <glyph glyph-name="quotedblleft" unicode="&#x201c;" horiz-adv-x="442" 
d="M155 723l17 -31q-67 -28 -67 -77q0 -23 14.5 -37.5t43.5 -30.5v-5q0 -23 -15.5 -38.5t-38.5 -15.5q-27 0 -45.5 21t-18.5 60q0 56 35 98t75 56zM340 723l17 -31q-67 -28 -67 -77q0 -23 14.5 -37.5t43.5 -30.5v-5q0 -23 -15.5 -38.5t-38.5 -15.5q-27 0 -45.5 21t-18.5 60
q0 56 35 98t75 56z" />
    <glyph glyph-name="quotedblright" unicode="&#x201d;" horiz-adv-x="442" 
d="M287 488l-17 31q67 28 67 77q0 23 -14.5 37.5t-43.5 30.5v5q0 23 15.5 38.5t38.5 15.5q27 0 45.5 -21t18.5 -60q0 -56 -35 -98t-75 -56zM102 488l-17 31q67 28 67 77q0 23 -14.5 37.5t-43.5 30.5v5q0 23 15.5 38.5t38.5 15.5q27 0 45.5 -21t18.5 -60q0 -56 -35 -98
t-75 -56z" />
    <glyph glyph-name="quotedblbase" unicode="&#x201e;" horiz-adv-x="412" 
d="M252 -130l-20 34q66 28 66 73q0 39 -54 68v5q0 23 15.5 38.5t38.5 15.5q27 0 45.5 -21t18.5 -60q0 -56 -34.5 -97t-75.5 -56zM67 -130l-20 34q66 28 66 73q0 39 -54 68v5q0 23 15.5 38.5t38.5 15.5q27 0 45.5 -21t18.5 -60q0 -56 -34.5 -97t-75.5 -56z" />
    <glyph glyph-name="dagger" unicode="&#x2020;" horiz-adv-x="516" 
d="M226 -120l7 604l-189 -12v73l189 -13l-12 220h73l-13 -220l191 13v-73l-190 12l10 -604h-66z" />
    <glyph glyph-name="daggerdbl" unicode="&#x2021;" horiz-adv-x="516" 
d="M233 484l-189 -12v73l189 -13l-12 220h73l-13 -220l191 13v-73l-190 12l7 -169l-6 -169l189 13v-73l-190 12l13 -219h-73l12 219l-190 -12v73l189 -13l-6 169z" />
    <glyph glyph-name="bullet" unicode="&#x2022;" horiz-adv-x="447" 
d="M91 356q0 57 37.5 95t94.5 38q56 0 94.5 -38.5t38.5 -94.5t-38 -94.5t-94 -38.5q-57 0 -95 38t-38 95z" />
    <glyph glyph-name="ellipsis" unicode="&#x2026;" horiz-adv-x="753" 
d="M50 53q0 22 15 37.5t36 15.5q23 0 38 -15t15 -38q0 -21 -15.5 -36t-37.5 -15q-21 0 -36 15t-15 36zM324 53q0 22 15 37.5t36 15.5q23 0 38 -15t15 -38q0 -21 -15.5 -36t-37.5 -15q-21 0 -36 15t-15 36zM599 53q0 22 15 37.5t36 15.5q22 0 37.5 -15t15.5 -38
q0 -21 -15.5 -36t-37.5 -15q-21 0 -36 15t-15 36z" />
    <glyph glyph-name="perthousand" unicode="&#x2030;" horiz-adv-x="1182" 
d="M341 510q0 -95 -41 -144t-106 -49q-66 0 -105 48t-39 143q0 92 41 141t107 49q65 0 104 -47.5t39 -140.5zM197 366q88 0 88 141q0 142 -92 142q-87 0 -87 -140q0 -143 91 -143zM200 19l-43 32l473 627l43 -33zM764 183q0 -95 -41 -144t-106 -49q-66 0 -105 48t-39 143
q0 92 41 141t107 49q65 0 104 -47.5t39 -140.5zM620 39q88 0 88 141q0 142 -92 142q-87 0 -87 -140q0 -143 91 -143zM1132 183q0 -95 -41 -144t-106 -49q-66 0 -105 48t-39 143q0 92 41 141t107 49q65 0 104 -47.5t39 -140.5zM988 39q88 0 88 141q0 142 -92 142
q-87 0 -87 -140q0 -143 91 -143z" />
    <glyph glyph-name="guilsinglleft" unicode="&#x2039;" horiz-adv-x="280" 
d="M50 267l140 199l40 -30l-112 -169l112 -169l-40 -29z" />
    <glyph glyph-name="guilsinglright" unicode="&#x203a;" horiz-adv-x="280" 
d="M230 267l-140 -198l-40 29l112 169l-112 169l40 30z" />
    <glyph glyph-name="fraction" unicode="&#x2044;" horiz-adv-x="176" 
d="M356 660l-498 -645l-37 27l497 647z" />
    <glyph glyph-name="four.superior" unicode="&#x2074;" horiz-adv-x="354" 
d="M227 490h-195l-11 43l191 276h65v-273h52v-46h-52v-92h-50v92zM232 763h-2l-44 -70l-106 -157h147v147z" />
    <glyph glyph-name="uni20A8" unicode="&#x20a8;" horiz-adv-x="1031" 
d="M98 701h162q231 0 231 -195q0 -81 -47 -132.5t-114 -57.5v-4q43 -18 83 -86l135 -226h-72l-130 223q-45 76 -121 76h-67v-299h-60v701zM158 645v-291h99q172 0 172 145q0 78 -44.5 112t-134.5 34h-92zM909 141q0 37 -28.5 60.5t-69.5 37.5t-81.5 30t-69 49t-28.5 84
q0 60 48 102.5t132 42.5q42 0 82.5 -14t64.5 -38l-38 -44q-41 42 -111 42q-60 0 -90 -25.5t-30 -64.5q0 -36 28.5 -59.5t69 -37.5t81.5 -30.5t69.5 -50t28.5 -84.5q0 -61 -49.5 -105.5t-136.5 -44.5q-116 0 -183 65l38 46q57 -57 148 -57q60 0 92.5 27.5t32.5 68.5z" />
    <glyph glyph-name="Euro" unicode="&#x20ac;" horiz-adv-x="593" 
d="M436 439l-12 -52h-238q6 -20 6 -34t-3 -32t-3 -22h218l-12 -51h-201q29 -200 190 -200q77 0 130 41l34 -44q-57 -53 -174 -53q-213 0 -242 256h-89v51h85v88h-85v52h91q18 123 83 190t172 67q116 0 167 -51l-37 -50q-53 45 -136 45q-75 0 -124.5 -51t-64.5 -150h245z" />
    <glyph glyph-name="uni20B9" unicode="&#x20b9;" horiz-adv-x="461" 
d="M344 7v-7h-67l-191 242l-51 57l16 49q89 -20 148.5 10t64.5 108h-223v53h217q-12 37 -43.5 56.5t-68.5 19.5h-105v53h411l-25 -53h-163v-4q37 -25 48 -72h140l-25 -53h-109q-3 -85 -64.5 -131.5t-142.5 -41.5l-1 -3q12 -13 75 -89z" />
    <glyph glyph-name="trademark" unicode="&#x2122;" horiz-adv-x="583" 
d="M489 664h-4l-78 -219h-39l-79 223h-4v-241h-38v274h70l71 -207l70 207h70v-274h-39v237zM5 669v32h196v-32h-78v-241h-40v241h-78z" />
    <glyph glyph-name="uni2126" unicode="&#x2126;" horiz-adv-x="748" 
d="M244 52q-82 28 -131 105t-49 205q0 165 85.5 256.5t225.5 91.5q143 0 226.5 -88.5t83.5 -253.5q0 -126 -50 -206t-130 -110v-4l183 8v-56h-257v70q85 23 138 93t53 197q0 144 -69.5 219t-181.5 75q-111 0 -177.5 -72t-66.5 -216q0 -125 54.5 -200t136.5 -96v-70h-258v56
l184 -8v4z" />
    <glyph glyph-name="estimated" unicode="&#x212e;" horiz-adv-x="661" 
d="M560 136l30 -16q-35 -63 -98.5 -96.5t-146.5 -33.5q-130 0 -209.5 77t-79.5 203q0 123 79 201t206 78t197 -75.5t70 -199.5q0 -3 -0.5 -9t-0.5 -10h-417v-186q67 -45 156 -45q71 0 128 29.5t86 82.5zM481 290v185q-60 39 -139 39q-91 0 -152 -45v-179h291z" />
    <glyph glyph-name="partialdiff" unicode="&#x2202;" horiz-adv-x="530" 
d="M469 258q0 -122 -53.5 -192.5t-156.5 -70.5q-96 0 -147 57t-51 167q0 101 57 162.5t142 61.5q80 0 120 -31l3 2q-34 93 -92.5 153.5t-152.5 114.5v6h95q95 -56 165.5 -170t70.5 -260zM122 220q0 -82 38 -127.5t105 -45.5q65 0 104 49.5t39 155.5q0 53 -10 89
q-45 48 -134 48q-142 0 -142 -169z" />
    <glyph glyph-name="uni2206" unicode="&#x2206;" horiz-adv-x="661" 
d="M615 0h-570l-38 51l290 650h66l290 -650zM328 647l-69 -160l-130 -293l-67 -143h536l-66 143l-131 292l-69 161h-4z" />
    <glyph glyph-name="product" unicode="&#x220f;" horiz-adv-x="651" 
d="M96 -131q27 39 36 76.5t9 117.5v638h379v-857h-60v804h-259v-588q0 -154 -56 -219z" />
    <glyph glyph-name="summation" unicode="&#x2211;" horiz-adv-x="515" 
d="M161 -38l-49 -76v-4l102 4h255v-54h-402l-21 51l231 384l-231 385l21 49h402v-54h-255l-102 4v-4l50 -78l182 -302z" />
    <glyph glyph-name="minus" unicode="&#x2212;" horiz-adv-x="520" 
d="M30 309v56h459v-56h-459z" />
    <glyph glyph-name="uni2215" unicode="&#x2215;" horiz-adv-x="176" 
d="M356 660l-498 -645l-37 27l497 647z" />
    <glyph glyph-name="uni2219" unicode="&#x2219;" horiz-adv-x="214" 
d="M55 355q0 22 15 37.5t36 15.5q22 0 37.5 -15t15.5 -38q0 -21 -15.5 -36t-37.5 -15q-21 0 -36 15t-15 36z" />
    <glyph glyph-name="radical" unicode="&#x221a;" horiz-adv-x="625" 
d="M307 -116h4l73 260l227 814h58l-313 -1117h-93l-205 558h-110v51h153l114 -313z" />
    <glyph glyph-name="infinity" unicode="&#x221e;" horiz-adv-x="831" 
d="M99 351q0 -50 32 -84.5t87 -34.5q82 0 164 115q-39 53 -77.5 84.5t-87.5 31.5q-56 0 -87 -31t-31 -81zM413 307q-96 -122 -200 -122q-78 0 -122 44.5t-44 116.5t46.5 118t125.5 46q60 0 105.5 -32.5t91.5 -92.5q46 60 92.5 93t106.5 33q79 0 123.5 -44t44.5 -115
q0 -72 -46.5 -119.5t-125.5 -47.5q-62 0 -106 31t-92 91zM730 348q0 48 -32.5 81.5t-87.5 33.5q-83 0 -162 -116q40 -56 77.5 -85t87.5 -29q57 0 87 31.5t30 83.5z" />
    <glyph glyph-name="integral" unicode="&#x222b;" horiz-adv-x="357" 
d="M258 763l-101 -771q-10 -77 -58 -120.5t-120 -43.5q-53 0 -92 14l17 53q32 -13 78 -13q103 0 117 115l101 771q10 77 58 120.5t120 43.5q54 0 92 -14l-17 -53q-32 13 -78 13q-103 0 -117 -115z" />
    <glyph glyph-name="approxequal" unicode="&#x2248;" horiz-adv-x="520" 
d="M441 489l56 -10q-26 -110 -124 -110q-43 0 -119 30q-74 30 -105 30q-50 0 -70 -65l-56 13q28 108 136 108q35 0 105 -30t103 -30q30 0 47 14t27 50zM441 305l56 -10q-26 -110 -124 -110q-43 0 -119 30q-74 30 -105 30q-50 0 -70 -65l-56 13q28 108 136 108q35 0 105 -30
t103 -30q30 0 47 14t27 50z" />
    <glyph glyph-name="notequal" unicode="&#x2260;" horiz-adv-x="520" 
d="M135 78l47 120h-152v56h174l64 166h-238v56h260l47 120h55l-47 -120h144v-56h-166l-64 -166h230v-56h-252l-47 -120h-55z" />
    <glyph glyph-name="lessequal" unicode="&#x2264;" horiz-adv-x="520" 
d="M86 347v-4l144 -63l259 -119v-61l-459 214v63l459 214v-61l-259 -120zM489 27h-459v56h459v-56z" />
    <glyph glyph-name="greaterequal" unicode="&#x2265;" horiz-adv-x="520" 
d="M433 347l-144 63l-259 120v61l459 -214v-63l-459 -214v61l259 119l144 63v4zM30 27v56h459v-56h-459z" />
    <glyph glyph-name="lozenge" unicode="&#x25ca;" horiz-adv-x="548" 
d="M32 350l200 351h86l197 -351l-200 -350h-86zM447 348l-126 227l-48 87l-50 -89l-123 -221l118 -213l55 -101l58 103z" />
    <glyph glyph-name="uni25CC" unicode="&#x25cc;" horiz-adv-x="660" 
d="M139 517q0 19 12.5 31.5t31.5 12.5t31.5 -12.5t12.5 -31.5q0 -20 -12.5 -32.5t-31.5 -12.5t-31.5 12.5t-12.5 32.5zM57 407q0 19 13 31.5t33 12.5q18 0 31 -12.5t13 -31.5t-13 -31.5t-31 -12.5q-20 0 -33 12.5t-13 31.5zM44 281q0 19 12.5 32t31.5 13t31.5 -12.5
t12.5 -32.5q0 -19 -12.5 -31t-31.5 -12t-31.5 12t-12.5 31zM96 165q0 19 12.5 31.5t31.5 12.5t31.5 -12.5t12.5 -31.5t-12.5 -31.5t-31.5 -12.5q-20 0 -32 12.5t-12 31.5zM197 90q0 18 13 31t32 13t31.5 -13t12.5 -31q0 -20 -12.5 -33t-31.5 -13t-32 13t-13 33zM324 74
q0 20 12 32t32 12t32.5 -12.5t12.5 -31.5t-12.5 -31.5t-32.5 -12.5t-32 12t-12 32zM445 127q0 19 12.5 31.5t31.5 12.5t32 -12.5t13 -31.5t-13 -31.5t-32 -12.5t-31.5 12.5t-12.5 31.5zM518 225q0 19 13 32t32 13q18 0 30.5 -13t12.5 -32t-12.5 -31.5t-30.5 -12.5
q-19 0 -32 12.5t-13 31.5zM528 359q0 19 12 31.5t32 12.5q19 0 31.5 -12.5t12.5 -31.5t-12.5 -31.5t-31.5 -12.5q-20 0 -32 12.5t-12 31.5zM478 477q0 19 12.5 32t31.5 13t31.5 -12.5t12.5 -32.5q0 -19 -12.5 -31.5t-31.5 -12.5t-31.5 12.5t-12.5 31.5zM383 545
q0 19 12.5 32t32.5 13q19 0 31 -12.5t12 -32.5q0 -18 -12.5 -31t-30.5 -13q-19 0 -32 13t-13 31zM257 560q0 20 12.5 32t31.5 12t31.5 -12t12.5 -32t-12.5 -32t-31.5 -12t-31.5 12t-12.5 32z" />
    <glyph glyph-name="uni0915094D0937" horiz-adv-x="740" 
d="M482 -67l-73 -11l-54 124q-44 -21 -101 -21q-98 0 -154 50t-56 124q0 112 150 165q-41 19 -68.5 56t-27.5 81q0 60 47.5 101.5t122.5 41.5q69 0 113.5 -41t44.5 -101q0 -95 -92 -133v-4q46 -10 87 -10q103 0 156 28v251h183v-52h-125v-582h-58v321q-65 -17 -144 -17
q-91 0 -172 28q-80 -23 -117.5 -53t-37.5 -80q0 -51 38.5 -85t101.5 -34q64 0 93 24v101l46 17q16 -7 29.5 -27t13.5 -44q0 -52 -33 -81zM157 501q0 -37 27.5 -67t75.5 -47q46 11 76.5 40t30.5 75q0 40 -27.5 64.5t-75.5 24.5q-49 0 -78 -25.5t-29 -64.5z" />
    <glyph glyph-name="uni091C094D091E" horiz-adv-x="692" 
d="M334 -49l-69 -27l-140 156q-55 5 -84.5 31t-29.5 59q0 35 24 51l100 -92q25 -7 52 -7q56 0 90 27.5t34 75.5q0 36 -20 66.5t-52.5 51t-64 33.5t-65.5 22v4l26 48h394v132h-549v52h732v-52h-125v-582h-58v397h-303v-4q23 -9 44.5 -21.5t46.5 -33t40 -51.5t15 -67
q0 -64 -46.5 -103.5t-118.5 -39.5l-20 1z" />
    <glyph glyph-name="uni0918093C" horiz-adv-x="627" 
d="M647 582h-125v-582h-58v208h-4q-21 -31 -68 -58t-119 -27q-88 0 -135.5 44t-47.5 105q0 43 25 72.5t59 38.5v4q-38 6 -64.5 33.5t-26.5 72.5q0 33 15.5 55t33.5 30v4h-152v52h667v-52zM274 178q89 0 140 50.5t51 128.5v225h-214q-52 0 -79 -24.5t-27 -62.5
q0 -37 28.5 -60t86.5 -23h62v-54h-61q-54 0 -81.5 -22.5t-27.5 -62.5q0 -39 30 -67t92 -28zM86 31q0 18 11.5 29.5t29.5 11.5t29.5 -11.5t11.5 -29.5t-11.5 -29.5t-29.5 -11.5t-29.5 11.5t-11.5 29.5z" />
    <glyph glyph-name="uni0919093C" horiz-adv-x="613" 
d="M489 359q0 19 12 31t30 12t30 -12t12 -31q0 -17 -12 -29t-30 -12t-30 12t-12 29zM240 271l171 34q29 -17 49 -51.5t20 -76.5q0 -68 -53 -114t-137 -46q-79 0 -143.5 42.5t-107.5 119.5l48 34q33 -66 85 -104.5t118 -38.5q57 0 93.5 29t36.5 78q0 45 -31 69l-161 -32
q-49 15 -84 57t-35 97q0 46 29.5 75t79.5 29h150v110h-388v52h653v-52h-208v-163h-180q-75 0 -75 -62q0 -29 20.5 -53.5t49.5 -32.5zM252 -95q0 18 11.5 29.5t29.5 11.5t29.5 -11.5t11.5 -29.5t-11.5 -29.5t-29.5 -11.5t-29.5 11.5t-11.5 29.5z" />
    <glyph glyph-name="uni091A093C" horiz-adv-x="634" 
d="M471 203h-4q-21 -31 -66 -55.5t-111 -24.5q-80 0 -132 47.5t-52 115.5q0 72 52 107v4h-140v54h355v-53h-83q-57 0 -89.5 -30.5t-32.5 -79.5q0 -48 35.5 -79t93.5 -31q76 0 125 50t49 133v221h-491v52h674v-52h-125v-582h-58v203zM86 31q0 18 11.5 29.5t29.5 11.5
t29.5 -11.5t11.5 -29.5t-11.5 -29.5t-29.5 -11.5t-29.5 11.5t-11.5 29.5z" />
    <glyph glyph-name="uni091B093C" horiz-adv-x="672" 
d="M305 47q-97 0 -153 50.5t-56 121.5q0 47 24 79t59 45v4q-44 12 -70 45.5t-26 77.5q0 68 54 108v4h-157v52h712v-52h-173v-108q43 -14 68.5 -53t25.5 -90q0 -109 -88.5 -196.5t-219.5 -87.5zM478 294l-36 -41q-43 9 -67.5 39.5t-24.5 71.5q0 46 31.5 79.5t81.5 37.5v101
h-197q-53 0 -87 -29.5t-34 -79.5q0 -45 30 -72t83 -27h37v-54h-24q-52 0 -82.5 -26.5t-30.5 -72.5q0 -51 38.5 -85t108.5 -34q101 0 175 67t74 162q0 45 -22.5 71t-56.5 26q-28 0 -47.5 -17.5t-19.5 -46.5t18.5 -47.5t51.5 -22.5zM296 -69q0 18 11.5 29.5t29.5 11.5
t29.5 -11.5t11.5 -29.5t-11.5 -29.5t-29.5 -11.5t-29.5 11.5t-11.5 29.5z" />
    <glyph glyph-name="uni091D093C" horiz-adv-x="766" 
d="M786 582h-125v-582h-58v233q-34 -14 -87 -14q-39 0 -81 15q10 -27 10 -55q0 -72 -53.5 -110.5t-121.5 -36.5v-4l154 -105l-65 -34l-152 138q-70 2 -107 29.5t-37 64.5q0 28 22 43l123 -87h39q58 0 99 26t41 75q0 46 -31 67l-161 -32q-49 15 -84 57t-35 97q0 45 29.5 73.5
t79.5 28.5h158v113h-363v52h806v-52zM377 304q56 -30 134 -30q54 0 92 20v288h-203v-166h-188q-42 0 -58.5 -15.5t-16.5 -44.5t20.5 -53.5t49.5 -32.5zM71 -83q0 18 11.5 29.5t29.5 11.5t29.5 -11.5t11.5 -29.5t-11.5 -29.5t-29.5 -11.5t-29.5 11.5t-11.5 29.5z" />
    <glyph glyph-name="uni091E093C" horiz-adv-x="685" 
d="M145 401l-21 49q47 26 101 26q69 0 116 -37.5t59 -99.5q35 -8 71 -8q28 0 51 4v247h-542v52h725v-52h-125v-582h-58v277q-11 -2 -36 -2q-47 0 -84 10q-5 -76 -58.5 -123.5t-132.5 -47.5q-70 0 -121 33t-78 78l43 38q62 -94 157 -94q54 0 92 35.5t38 95.5q0 57 -33 89
t-87 32q-42 0 -77 -20zM76 0q0 18 11.5 29.5t29.5 11.5t29.5 -11.5t11.5 -29.5t-11.5 -29.5t-29.5 -11.5t-29.5 11.5t-11.5 29.5z" />
    <glyph glyph-name="uni091F093C" horiz-adv-x="494" 
d="M-20 582v52h534v-52h-141v-165l-144 -44q-68 -21 -91.5 -48t-23.5 -74q0 -60 47 -105.5t121 -45.5q99 0 155 60l35 -47q-67 -68 -183 -68q-100 0 -168.5 65t-68.5 151q0 115 134 157l129 40v124h-335zM252 -67q0 18 11.5 29.5t29.5 11.5t29.5 -11.5t11.5 -29.5
t-11.5 -29.5t-29.5 -11.5t-29.5 11.5t-11.5 29.5z" />
    <glyph glyph-name="uni0920093C" horiz-adv-x="564" 
d="M283 45q-100 0 -166.5 62t-66.5 152q0 115 136 158l127 40v125h-333v52h604v-52h-213v-146q55 -22 99 -69.5t44 -121.5q0 -86 -65.5 -143t-165.5 -57zM276 100q87 0 132 43.5t45 107.5q0 35 -16 63.5t-40.5 45.5t-47.5 26.5t-42 12.5l-80 -25q-68 -21 -92 -49t-24 -75
q0 -60 45 -105t120 -45zM244 -67q0 18 11.5 29.5t29.5 11.5t29.5 -11.5t11.5 -29.5t-11.5 -29.5t-29.5 -11.5t-29.5 11.5t-11.5 29.5z" />
    <glyph glyph-name="uni0923093C" horiz-adv-x="746" 
d="M766 582h-125v-582h-58v582h-183v-239q0 -74 -43 -116t-112 -42t-112 42t-43 116v239h-110v52h786v-52zM245 240q47 0 72 28.5t25 80.5v233h-194v-233q0 -52 25 -80.5t72 -28.5zM216 31q0 18 11.5 29.5t29.5 11.5t29.5 -11.5t11.5 -29.5t-11.5 -29.5t-29.5 -11.5
t-29.5 11.5t-11.5 29.5z" />
    <glyph glyph-name="uni0924093C" horiz-adv-x="547" 
d="M229 28l-50 -34q-126 101 -126 258q0 78 47.5 127.5t121.5 49.5h162v153h-404v52h587v-52h-125v-582h-58v375h-150q-55 0 -88 -32.5t-33 -90.5q0 -137 116 -224zM-4 -68q0 18 11.5 29.5t29.5 11.5t29.5 -11.5t11.5 -29.5t-11.5 -29.5t-29.5 -11.5t-29.5 11.5t-11.5 29.5z
" />
    <glyph glyph-name="uni0925093C" horiz-adv-x="628" 
d="M523 0h-58v203h-4q-23 -36 -72 -64t-118 -28q-105 0 -168.5 67.5t-69.5 167.5l92 27q106 30 140.5 61.5t34.5 79.5q0 34 -20.5 54.5t-55.5 20.5q-33 0 -54 -19t-21 -52q0 -16 9 -34t21 -28l-57 -17q-32 30 -32 82q0 51 38 87t96 36q61 0 98 -37t37 -95q0 -129 -197 -185
l-29.5 -8.5l-29.5 -8.5q2 -19 12 -41t28.5 -46.5t52.5 -40.5t76 -16q92 0 143 57.5t51 141.5v269h182v-52h-125v-582zM86 -5q0 18 11.5 29.5t29.5 11.5t29.5 -11.5t11.5 -29.5t-11.5 -29.5t-29.5 -11.5t-29.5 11.5t-11.5 29.5z" />
    <glyph glyph-name="uni0926093C" horiz-adv-x="513" 
d="M385 431l-162 -40q-61 -15 -86 -42.5t-25 -71.5q0 -59 42 -100.5t108 -41.5q67 0 96 26v103l46 17q16 -7 29.5 -27.5t13.5 -46.5q0 -52 -33 -81l106 -138l-71 -18l-75 132q-42 -22 -103 -22q-101 0 -161 62t-60 139q0 122 148 159l129 32v110h-347v52h553v-52h-148v-151z
M79 -26q0 18 11.5 29.5t29.5 11.5t29.5 -11.5t11.5 -29.5t-11.5 -29.5t-29.5 -11.5t-29.5 11.5t-11.5 29.5z" />
    <glyph glyph-name="uni0927093C" horiz-adv-x="627" 
d="M522 0h-58v208h-4q-21 -31 -68 -58t-119 -27q-88 0 -135.5 44t-47.5 105q0 43 25 72.5t59 38.5v4q-38 6 -64.5 33.5t-26.5 72.5q0 32 15.5 54.5t34.5 30.5v4h-153v52h230l13 -53q-78 -24 -78 -86q0 -37 28.5 -60t86.5 -23h62v-54h-61q-54 0 -81.5 -22.5t-27.5 -62.5
q0 -39 30 -67t92 -28q91 0 141 51.5t50 126.5v226h-91v52h273v-52h-125v-582zM86 11q0 18 11.5 29.5t29.5 11.5t29.5 -11.5t11.5 -29.5t-11.5 -29.5t-29.5 -11.5t-29.5 11.5t-11.5 29.5z" />
    <glyph glyph-name="uni092A093C" horiz-adv-x="554" 
d="M391 268h-4q-39 -66 -137 -66q-69 0 -114.5 41t-45.5 118v221h-110v52h594v-52h-125v-582h-58v268zM391 409v173h-243v-211q0 -114 108 -114q65 0 100 41.5t35 110.5zM86 41q0 18 11.5 29.5t29.5 11.5t29.5 -11.5t11.5 -29.5t-11.5 -29.5t-29.5 -11.5t-29.5 11.5
t-11.5 29.5z" />
    <glyph glyph-name="uni092C093C" horiz-adv-x="561" 
d="M456 582v-582h-58v176h-4q-52 -69 -154 -69q-80 0 -135 53t-55 136q0 84 60.5 138.5t145.5 54.5q41 0 66 -8l2 -57q-29 11 -66 11q-51 0 -92 -27l212 -177q20 34 20 76v275h-418v52h601v-52h-125zM247 162q58 0 98 32l-214 178q-21 -32 -21 -74q0 -59 37.5 -97.5
t99.5 -38.5zM74 -12q0 18 11.5 29.5t29.5 11.5t29.5 -11.5t11.5 -29.5t-11.5 -29.5t-29.5 -11.5t-29.5 11.5t-11.5 29.5z" />
    <glyph glyph-name="uni092D093C" horiz-adv-x="571" 
d="M408 0v277h-231v-103h-51q-23 20 -38 55t-16 67l47 34v177q0 40 -19 57.5t-60 17.5h-60v52h63q63 0 98.5 -32t35.5 -90v-181h231v251h-82v52h265v-52h-125v-582h-58zM100 31q0 18 11.5 29.5t29.5 11.5t29.5 -11.5t11.5 -29.5t-11.5 -29.5t-29.5 -11.5t-29.5 11.5
t-11.5 29.5z" />
    <glyph glyph-name="uni092E093C" horiz-adv-x="571" 
d="M466 0h-58v277h-231v-103h-51q-23 20 -38 55t-16 67l47 34v252h-139v52h611v-52h-125v-582zM408 582h-231v-251h231v251zM106 31q0 18 11.5 29.5t29.5 11.5t29.5 -11.5t11.5 -29.5t-11.5 -29.5t-29.5 -11.5t-29.5 11.5t-11.5 29.5z" />
    <glyph glyph-name="uni0932093C" horiz-adv-x="707" 
d="M540 414h4v168h-564v52h747v-52h-125v-582h-58v356q-36 38 -88 38q-41 0 -65.5 -27.5t-24.5 -79.5v-95h-58v94q0 51 -24 77.5t-66 26.5t-69.5 -31t-27.5 -90q0 -147 152 -229l-42 -43q-73 39 -122 111t-49 162q0 80 45.5 127.5t108.5 47.5q48 0 79.5 -22t42.5 -59h4
q11 40 41.5 62.5t70.5 22.5q57 0 88 -35zM17 -69q0 18 11.5 29.5t29.5 11.5t29.5 -11.5t11.5 -29.5t-11.5 -29.5t-29.5 -11.5t-29.5 11.5t-11.5 29.5z" />
    <glyph glyph-name="uni0935093C" horiz-adv-x="541" 
d="M436 582v-582h-58v186h-4q-49 -65 -146 -65q-73 0 -125.5 50t-52.5 129q0 67 37 111.5t89.5 59t107.5 4.5l6 -57q-71 18 -124.5 -14.5t-53.5 -101.5q0 -54 34.5 -90t91.5 -36q63 0 101.5 43t38.5 109v254h-398v52h581v-52h-125zM66 -2q0 18 11.5 29.5t29.5 11.5
t29.5 -11.5t11.5 -29.5t-11.5 -29.5t-29.5 -11.5t-29.5 11.5t-11.5 29.5z" />
    <glyph glyph-name="uni0936093C" horiz-adv-x="703" 
d="M219 441l-36 -44q-39 11 -61 42.5t-22 72.5q0 56 40.5 94t104.5 38q75 0 118.5 -51.5t43.5 -123.5q0 -107 -81.5 -165t-202.5 -48l-2 -4l38 -34t55 -52l143 -140l-48 -33l-227 224l-66 58l37 49q48 -15 102 -15q83 0 137.5 43t54.5 117q0 57 -30.5 89t-71.5 32
q-39 0 -62 -21.5t-23 -56.5q0 -25 15 -45t44 -26zM540 0v634h183v-52h-125v-582h-58zM36 11q0 18 11.5 29.5t29.5 11.5t29.5 -11.5t11.5 -29.5t-11.5 -29.5t-29.5 -11.5t-29.5 11.5t-11.5 29.5z" />
    <glyph glyph-name="uni0937093C" horiz-adv-x="565" 
d="M402 268h-4q-40 -71 -142 -71q-70 0 -118 41t-48 118v226h-110v52h605v-52h-125v-582h-58v268zM262 250q73 0 111 49l-160 153l-70 66l3 -91v-63q0 -114 116 -114zM404 399v183h-261l252 -241q9 26 9 58zM96 41q0 18 11.5 29.5t29.5 11.5t29.5 -11.5t11.5 -29.5
t-11.5 -29.5t-29.5 -11.5t-29.5 11.5t-11.5 29.5z" />
    <glyph glyph-name="uni0938093C" horiz-adv-x="669" 
d="M408 331q52 0 98 11v240h-214v-202q0 -20 -4 -32q56 -17 120 -17zM133 270l-2 -3q46 -55 66 -81l123 -163l-47 -32l-251 335l44 35q40 -43 95 -43q73 0 73 70v194h-254v52h709v-52h-125v-582h-58v287q-34 -8 -99 -8q-79 0 -143 22q-32 -36 -91 -36q-26 0 -40 5zM24 11
q0 18 11.5 29.5t29.5 11.5t29.5 -11.5t11.5 -29.5t-11.5 -29.5t-29.5 -11.5t-29.5 11.5t-11.5 29.5z" />
    <glyph glyph-name="uni0939093C" horiz-adv-x="500" 
d="M402 62l-53 31q39 30 39 70q0 32 -25.5 53.5t-72.5 21.5q-64 0 -103 -31t-39 -78q0 -63 65 -104t206 -47l-24 -53q-148 10 -228 63.5t-80 142.5q0 71 62 120q-29 19 -50 52t-21 71q0 44 30 71.5t84 27.5h166v109h-378v52h540v-52h-105v-163h-211q-65 0 -65 -50
q0 -26 17 -51t43 -40q42 16 88 16q78 0 120 -38t42 -94q0 -61 -47 -100zM40 -66q0 18 11.5 29.5t29.5 11.5t29.5 -11.5t11.5 -29.5t-11.5 -29.5t-29.5 -11.5t-29.5 11.5t-11.5 29.5z" />
    <glyph glyph-name="ITF" horiz-adv-x="1648" 
d="M147 0v634h196v-634h-196zM383 449v185h196v-185h-196zM619 0v634h196v-634h-196zM855 449v185h196v-185h-196zM1091 0v634h196v-634h-196zM1327 449v185h196v-185h-196zM1327 224v185h196v-185h-196z" />
    <glyph glyph-name="uni0930094D.reph" 
d="M-76 826q-38 0 -61 -22.5t-23 -57.5q0 -40 24 -69.5t59 -42.5v-5h-85v9q-22 14 -40 43.5t-18 69.5q0 56 41.5 92.5t97.5 36.5q61 0 96 -25l-24 -50q-30 21 -67 21z" />
    <glyph glyph-name="uni0930094D200D" horiz-adv-x="195" 
d="M298 320q-80 -42 -161 -42q-53 0 -94.5 17.5t-64.5 38.5l25 44q57 -46 132 -46q73 0 148 43zM215 582h-235v52h235v-52z" />
    <glyph glyph-name="uni094D0930" 
d="M0 -171l-134 153l-134 -153l-68 18l202 203l202 -203z" />
    <glyph glyph-name="uni0915094D" horiz-adv-x="565" 
d="M353 195h-4q-44 -62 -135 -62q-67 0 -115.5 46.5t-48.5 118.5q0 84 61.5 131t143.5 35l9 -55q-60 10 -106 -18t-46 -91q0 -49 31 -80.5t82 -31.5q57 0 92.5 37t35.5 98v259h-373v52h628v-52h-198v-180h4q44 62 136 62q94 0 143 -77l-49 -39q-32 61 -106 61
q-57 0 -92.5 -37t-35.5 -98v-274h-57v195z" />
    <glyph glyph-name="uni0916094D" horiz-adv-x="564" 
d="M584 582h-285v-169q0 -53 -30 -84t-75 -31q-38 0 -62 13q20 -105 87.5 -162.5t160.5 -57.5q100 0 170 62t70 165q0 51 -31.5 84.5t-72.5 33.5q-44 0 -71 -26.5t-27 -69.5t31.5 -71.5t86.5 -30.5l-33 -47q-57 2 -100 42.5t-43 106.5t44 108.5t110 42.5q72 0 117 -50.5
t45 -123.5q0 -114 -82.5 -197.5t-212.5 -83.5q-137 0 -221.5 93.5t-97.5 244.5l52 18q25 -44 73 -44q54 0 54 64v170h-261v52h604v-52z" />
    <glyph glyph-name="uni0917094D" horiz-adv-x="332" 
d="M352 634v-52h-165v-365h-67q-46 40 -48 112l57 40v213h-149v52h372z" />
    <glyph glyph-name="uni0918094D" horiz-adv-x="371" 
d="M269 176q73 0 126.5 33t80.5 84l36 -43q-35 -57 -97.5 -93t-146.5 -36q-88 0 -135.5 43.5t-47.5 103.5q0 43 25 72.5t59 38.5v4q-38 6 -64.5 34.5t-26.5 73.5q0 33 15.5 56.5t33.5 30.5v4h-147v52h411v-52h-145q-52 0 -79 -25t-27 -64q0 -37 28.5 -61t86.5 -24h62v-54
h-61q-54 0 -81.5 -22.5t-27.5 -62.5q0 -38 30 -65.5t92 -27.5z" />
    <glyph glyph-name="uni0919094D" horiz-adv-x="613" 
d="M489 359q0 19 12 31t30 12t30 -12t12 -31q0 -17 -12 -29t-30 -12t-30 12t-12 29zM240 271l171 34q29 -17 49 -51.5t20 -76.5q0 -68 -53 -114t-137 -46q-79 0 -143.5 42.5t-107.5 119.5l48 34q33 -66 85 -104.5t118 -38.5q57 0 93.5 29t36.5 78q0 45 -31 69l-161 -32
q-49 15 -84 57t-35 97q0 46 29.5 75t79.5 29h150v110h-388v52h653v-52h-208v-163h-180q-75 0 -75 -62q0 -29 20.5 -53.5t49.5 -32.5zM429 -223v-4h-74l-110 144l49 18z" />
    <glyph glyph-name="uni091A094D" horiz-adv-x="409" 
d="M429 634v-52h-449v52h449zM294 123q-83 0 -135.5 47.5t-52.5 115.5q0 71 52 106v4h-140v55h355v-54h-83q-57 0 -89.5 -30t-32.5 -79q0 -48 36.5 -79t96.5 -31q70 0 117.5 35t69.5 82l41 -42q-77 -130 -235 -130z" />
    <glyph glyph-name="uni091B094D" horiz-adv-x="672" 
d="M478 294l-36 -41q-43 9 -67.5 39.5t-24.5 71.5q0 49 35 83t89 34q62 0 100.5 -43t38.5 -107q0 -109 -88.5 -196.5t-219.5 -87.5q-97 0 -153 50.5t-56 121.5q0 47 24 79t59 45v4q-44 12 -70 45.5t-26 77.5q0 68 54 108v4h-157v52h712v-52h-426q-53 0 -87 -29.5t-34 -79.5
q0 -45 30 -72t83 -27h37v-54h-24q-52 0 -82.5 -26.5t-30.5 -72.5q0 -51 38.5 -85t108.5 -34q101 0 175 67t74 162q0 45 -22.5 71t-56.5 26q-28 0 -47.5 -17.5t-19.5 -46.5t18.5 -47.5t51.5 -22.5z" />
    <glyph glyph-name="uni091C094D" horiz-adv-x="473" 
d="M493 634v-52h-513v52h513zM623 433v-53h-241v-4q49 -46 49 -110q0 -59 -41.5 -100t-109.5 -41q-56 0 -102.5 26t-76 68t-47 88.5t-23.5 94.5l61 22q3 -95 54.5 -169.5t129.5 -74.5q44 0 69.5 25t25.5 64q0 47 -30.5 75t-64.5 37v4l27 48h320z" />
    <glyph glyph-name="uni091D094D" horiz-adv-x="542" 
d="M641 309l18 -52q-54 -37 -141 -37q-41 0 -83 14q10 -27 10 -55q0 -70 -54 -109.5t-122 -40.5l4 -2l151 -104l-65 -34l-152 138q-70 2 -107 29.5t-37 64.5q0 28 22 43l123 -87h39q58 0 99 26t41 75q0 46 -31 67l-161 -32q-49 15 -84 57t-35 97q0 45 29.5 73.5t79.5 28.5
h158v113h-363v52h582v-52h-162v-166h-188q-42 0 -58.5 -15.5t-16.5 -44.5t20.5 -53.5t49.5 -32.5l169 34q54 -29 137 -29q80 0 128 34z" />
    <glyph glyph-name="uni091E094D" horiz-adv-x="493" 
d="M513 634v-52h-533v52h533zM595 347l7 -58q-45 -14 -110 -14q-50 0 -90 10q-5 -76 -58.5 -123.5t-132.5 -47.5q-70 0 -121 33t-78 78l43 38q62 -94 157 -94q54 0 92 35.5t38 95.5q0 57 -33 89t-87 32q-42 0 -77 -20l-21 49q47 26 101 26q69 0 116 -37.5t59 -99.5
q38 -8 78 -8q67 0 117 16z" />
    <glyph glyph-name="uni091F094D" horiz-adv-x="494" 
d="M-20 582v52h534v-52h-141v-165l-144 -44q-68 -21 -91.5 -48t-23.5 -74q0 -60 47 -105.5t121 -45.5q99 0 155 60l35 -47q-67 -68 -183 -68q-100 0 -168.5 65t-68.5 151q0 115 134 157l129 40v124h-335zM445 -196v-4h-74l-110 144l49 18z" />
    <glyph glyph-name="uni0920094D" horiz-adv-x="564" 
d="M283 45q-100 0 -166.5 62t-66.5 152q0 115 136 158l127 40v125h-333v52h604v-52h-213v-146q55 -22 99 -69.5t44 -121.5q0 -86 -65.5 -143t-165.5 -57zM276 100q87 0 132 43.5t45 107.5q0 35 -16 63.5t-40.5 45.5t-47.5 26.5t-42 12.5l-80 -25q-68 -21 -92 -49t-24 -75
q0 -60 45 -105t120 -45zM448 -196v-4h-74l-110 144l49 18z" />
    <glyph glyph-name="uni0921094D" horiz-adv-x="536" 
d="M240 271l171 34q29 -17 49 -51.5t20 -76.5q0 -68 -53 -114t-137 -46q-79 0 -143.5 42.5t-107.5 119.5l48 34q33 -66 85 -104.5t118 -38.5q57 0 93.5 29t36.5 78q0 45 -31 69l-161 -32q-49 15 -84 57t-35 97q0 46 29.5 75t79.5 29h150v110h-388v52h576v-52h-131v-163h-180
q-75 0 -75 -62q0 -29 20.5 -53.5t49.5 -32.5zM441 -223v-4h-74l-110 144l49 18z" />
    <glyph glyph-name="uni0922094D" horiz-adv-x="515" 
d="M290 99q52 0 81.5 25.5t29.5 64.5q0 25 -17.5 43t-43.5 18q-34 0 -50.5 -25.5t-9.5 -58.5l-56 22q-4 45 27 81.5t88 36.5q52 0 87 -34t35 -83q0 -59 -47.5 -101.5t-119.5 -42.5q-103 0 -173.5 66.5t-70.5 156.5q0 62 38 108t102 64l145 42v100h-355v52h555v-52h-142v-141
l-165 -45q-65 -18 -91 -51t-26 -82q0 -65 50.5 -114.5t128.5 -49.5zM451 -196v-4h-74l-110 144l49 18z" />
    <glyph glyph-name="uni0923094D" horiz-adv-x="486" 
d="M506 634v-52h-106v-239q0 -74 -43 -116t-112 -42t-112 42t-43 116v239h-110v52h526zM245 240q47 0 72 28.5t25 80.5v233h-194v-233q0 -52 25 -80.5t72 -28.5z" />
    <glyph glyph-name="uni0924094D" horiz-adv-x="298" 
d="M318 634v-52h-338v52h338zM433 429v-54h-199q-55 0 -88 -32.5t-33 -90.5q0 -137 116 -224l-50 -34q-126 101 -126 258q0 78 47.5 127.5t121.5 49.5h211z" />
    <glyph glyph-name="uni0925094D" horiz-adv-x="423" 
d="M285 112q-108 0 -177 67t-75 167l92 27q106 31 141 63t35 79q0 33 -22 53.5t-56 20.5q-33 0 -53.5 -19t-20.5 -52q0 -16 9 -34t21 -28l-57 -17q-32 30 -32 82q0 51 37.5 87t95.5 36q60 0 98.5 -37t38.5 -94q0 -129 -198 -186l-59 -17q2 -19 13.5 -42t32.5 -46.5t57 -39
t80 -15.5q74 0 125.5 32t78.5 81l36 -43q-33 -55 -94.5 -90t-146.5 -35z" />
    <glyph glyph-name="uni0926094D" horiz-adv-x="513" 
d="M385 431l-162 -40q-61 -15 -86 -42.5t-25 -71.5q0 -59 42 -100.5t108 -41.5q67 0 96 26v103l46 17q16 -7 29.5 -27.5t13.5 -46.5q0 -52 -33 -81l106 -138l-71 -18l-75 132q-42 -22 -103 -22q-101 0 -161 62t-60 139q0 122 148 159l129 32v110h-347v52h553v-52h-148v-151z
M534 -227v-4h-74l-110 144l49 18z" />
    <glyph glyph-name="uni0927094D" horiz-adv-x="375" 
d="M395 634v-52h-21v52h21zM517 252q-35 -57 -97.5 -93t-146.5 -36q-88 0 -135.5 44t-47.5 105q0 43 25 72.5t59 38.5v4q-38 6 -64.5 33.5t-26.5 72.5q0 32 15.5 54.5t34.5 30.5v4h-153v52h230l13 -53q-78 -24 -78 -86q0 -37 28.5 -60t86.5 -23h62v-54h-61
q-54 0 -81.5 -22.5t-27.5 -62.5q0 -39 30 -67t92 -28q73 0 126.5 33t80.5 84z" />
    <glyph glyph-name="uni0928094D" horiz-adv-x="264" 
d="M284 634v-52h-304v52h304zM375 383v-54h-249v-87l-41 -12q-23 17 -38 49.5t-16 65.5l45 38h299z" />
    <glyph glyph-name="uni092A094D" horiz-adv-x="317" 
d="M250 202q-69 0 -114.5 41t-45.5 118v221h-110v52h357v-52h-189v-211q0 -114 108 -114q99 0 149 100l40 -36q-71 -119 -195 -119z" />
    <glyph glyph-name="uni092B094D" horiz-adv-x="580" 
d="M566 407q-57 0 -95 -41t-38 -108v-258h-58v264h-4q-37 -65 -129 -65q-68 0 -110 40.5t-42 117.5v225h-110v52h620v-52h-167v-184h4q16 24 52 44.5t86 20.5q45 0 83 -20.5t60 -57.5l-49 -38q-26 60 -103 60zM376 406v176h-228v-216q0 -112 97 -112q59 0 95 41t36 111z" />
    <glyph glyph-name="uni092C094D" horiz-adv-x="353" 
d="M373 634v-52h-393v52h393zM248 108q-87 0 -142.5 52t-55.5 136t60.5 138.5t145.5 54.5q41 0 66 -8l2 -57q-29 11 -66 11q-51 0 -92 -27l219 -183q27 33 38 73l45 -38q-7 -21 -21 -43t-39 -48.5t-67 -43.5t-93 -17zM255 163q53 0 93 28l-217 181q-21 -32 -21 -74
q0 -60 38 -97.5t107 -37.5z" />
    <glyph glyph-name="uni092D094D" horiz-adv-x="327" 
d="M177 174h-51q-23 20 -38 55t-16 67l47 34v177q0 40 -19 57.5t-60 17.5h-60v52h63q63 0 98.5 -32t35.5 -90v-181h262v-54h-262v-103zM347 582h-21v52h21v-52z" />
    <glyph glyph-name="uni092E094D" horiz-adv-x="327" 
d="M440 331v-54h-263v-103h-51q-23 20 -38 55t-16 67l47 34v252h-139v52h367v-52h-170v-251h263z" />
    <glyph glyph-name="uni092F094D" horiz-adv-x="375" 
d="M280 144q-91 0 -153.5 59t-76.5 163q74 17 110.5 45t36.5 73q0 59 -47 98h-170v52h415v-52h-177v-4q40 -45 40 -103q0 -50 -38 -87.5t-100 -52.5q8 -50 49.5 -93t118.5 -43q114 0 174 113l36 -43q-75 -125 -218 -125z" />
    <glyph glyph-name="uni0930094D" horiz-adv-x="392" 
d="M133 280l-2 -3q46 -55 66 -81l123 -163l-47 -32l-251 335l44 35q40 -43 95 -43q73 0 73 70v184h-254v52h432v-52h-120v-192q0 -56 -34 -85.5t-85 -29.5q-26 0 -40 5zM344 -227v-4h-74l-110 144l49 18z" />
    <glyph glyph-name="uni0932094D" horiz-adv-x="450" 
d="M470 634v-52h-490v52h490zM214 445q48 0 79.5 -22t42.5 -59h4q11 39 43 62t75 23q82 0 131 -57l-29 -43q-41 45 -98 45q-44 0 -70 -28t-26 -79v-95h-58v94q0 51 -24 77.5t-66 26.5t-69.5 -31t-27.5 -90q0 -147 152 -229l-42 -43q-73 39 -122 111t-49 162q0 80 45.5 127.5
t108.5 47.5z" />
    <glyph glyph-name="uni0935094D" horiz-adv-x="313" 
d="M333 634v-52h-353v52h353zM232 122q-75 0 -128.5 49t-53.5 129q0 87 58 133.5t137 45.5q13 0 39 -4l6 -57q-22 6 -45 6q-57 1 -95 -32t-38 -90q0 -55 35 -90t92 -35q61 0 97 35t49 82l42 -39q-22 -53 -69 -93t-126 -40z" />
    <glyph glyph-name="uni0936094D" horiz-adv-x="454" 
d="M219 441l-36 -44q-39 11 -61 42.5t-22 72.5q0 56 40.5 94t104.5 38q75 0 118.5 -51.5t43.5 -123.5q0 -107 -81.5 -165t-202.5 -48l-2 -4l38 -34t55 -52l143 -140l-48 -33l-227 224l-66 58l37 49q48 -15 102 -15q83 0 137.5 43t54.5 117q0 57 -30.5 89t-71.5 32
q-39 0 -62 -21.5t-23 -56.5q0 -25 15 -45t44 -26z" />
    <glyph glyph-name="uni0937094D" horiz-adv-x="316" 
d="M256 197q-70 0 -118 41t-48 118v226h-110v52h356v-52h-193l259 -248q6 10 9 16l40 -36q-70 -117 -195 -117zM262 250q65 0 112 47l-164 157l-66 67l2 -94v-63q0 -114 116 -114z" />
    <glyph glyph-name="uni0938094D" horiz-adv-x="410" 
d="M408 331q62 0 105 12l7 -54q-43 -13 -113 -13q-83 0 -144 24q-32 -35 -90 -35q-26 0 -40 5l-2 -3q46 -55 66 -81l123 -163l-47 -32l-251 335l44 35q40 -43 95 -43q73 0 73 70v194h-254v52h450v-52h-138v-202q0 -20 -4 -32q57 -17 120 -17z" />
    <glyph glyph-name="uni0939094D" horiz-adv-x="500" 
d="M402 62l-53 31q39 30 39 70q0 32 -25.5 53.5t-72.5 21.5q-64 0 -103 -31t-39 -78q0 -63 65 -104t206 -47l-24 -53q-148 10 -228 63.5t-80 142.5q0 71 62 120q-29 19 -50 52t-21 71q0 44 30 71.5t84 27.5h166v109h-378v52h540v-52h-105v-163h-211q-65 0 -65 -50
q0 -26 17 -51t43 -40q42 16 88 16q78 0 120 -38t42 -94q0 -61 -47 -100zM500 -287v-4h-74l-110 144l49 18z" />
    <glyph glyph-name="uni0933094D" horiz-adv-x="734" 
d="M514 136q49 0 78.5 36t29.5 99q0 58 -27.5 97t-76.5 39q-15 0 -28 -4t-22.5 -9t-19 -17.5l-15 -20t-13 -25.5t-10.5 -26.5t-10 -30.5t-10 -30q-1 -2 -2.5 -7t-2.5 -7q23 -45 52 -69.5t77 -24.5zM217 134q24 0 43.5 10.5t31 22.5t23.5 38.5t17.5 42t15.5 50.5q1 2 2.5 7
t2.5 8q-47 92 -126 92q-49 0 -79.5 -36.5t-30.5 -97.5q0 -59 26 -98t74 -39zM523 461q71 0 115 -51t44 -135q0 -88 -48 -140.5t-125 -52.5q-97 0 -149 89q-50 -91 -148 -91q-70 0 -112.5 51.5t-42.5 135.5q0 85 47.5 138.5t127.5 53.5q93 0 145 -87q47 89 146 89zM754 582
h-774v52h774v-52z" />
    <glyph glyph-name="uni0915094D0937094D" horiz-adv-x="470" 
d="M482 -67l-73 -11l-54 124q-44 -21 -101 -21q-98 0 -154 50t-56 124q0 112 150 165q-41 19 -68.5 56t-27.5 81q0 60 47.5 101.5t122.5 41.5q69 0 113.5 -41t44.5 -101q0 -95 -92 -133v-4q46 -10 87 -10q120 0 192 37l16 -54q-79 -34 -196 -34q-91 0 -172 28
q-80 -23 -117.5 -53t-37.5 -80q0 -51 38.5 -85t101.5 -34q64 0 93 24v101l46 17q16 -7 29.5 -27t13.5 -44q0 -52 -33 -81zM157 501q0 -37 27.5 -67t75.5 -47q46 11 76.5 40t30.5 75q0 40 -27.5 64.5t-75.5 24.5q-49 0 -78 -25.5t-29 -64.5z" />
    <glyph glyph-name="uni091C094D091E094D" horiz-adv-x="437" 
d="M456 634v-52h-476v52h476zM556 450v-53h-330v-4q23 -9 44.5 -21.5t46.5 -33t40 -51.5t15 -67q0 -64 -46.5 -103.5t-118.5 -39.5l-20 1l147 -127l-69 -27l-140 156q-55 5 -84.5 31t-29.5 59q0 35 24 51l100 -92q25 -7 52 -7q56 0 90 27.5t34 75.5q0 36 -20 66.5t-52.5 51
t-64 33.5t-65.5 22v4l26 48h421z" />
    <glyph glyph-name="uni0915093C094D" horiz-adv-x="588" 
d="M353 195h-4q-44 -62 -135 -62q-67 0 -115.5 46.5t-48.5 118.5q0 84 61.5 131t143.5 35l9 -55q-60 10 -106 -18t-46 -91q0 -49 31 -80.5t82 -31.5q57 0 92.5 37t35.5 98v259h-373v52h628v-52h-198v-180h4q44 62 136 62q94 0 143 -77l-49 -39q-32 61 -106 61
q-57 0 -92.5 -37t-35.5 -98v-274h-57v195zM101 19q0 18 11.5 29.5t29.5 11.5t29.5 -11.5t11.5 -29.5t-11.5 -29.5t-29.5 -11.5t-29.5 11.5t-11.5 29.5z" />
    <glyph glyph-name="uni0916093C094D" horiz-adv-x="575" 
d="M584 582h-285v-169q0 -53 -30 -84t-75 -31q-38 0 -62 13q20 -105 87.5 -162.5t160.5 -57.5q100 0 170 62t70 165q0 51 -31.5 84.5t-72.5 33.5q-44 0 -71 -26.5t-27 -69.5t31.5 -71.5t86.5 -30.5l-33 -47q-57 2 -100 42.5t-43 106.5t44 108.5t110 42.5q72 0 117 -50.5
t45 -123.5q0 -114 -82.5 -197.5t-212.5 -83.5q-137 0 -221.5 93.5t-97.5 244.5l52 18q25 -44 73 -44q54 0 54 64v170h-261v52h604v-52zM79 0q0 18 11.5 29.5t29.5 11.5t29.5 -11.5t11.5 -29.5t-11.5 -29.5t-29.5 -11.5t-29.5 11.5t-11.5 29.5z" />
    <glyph glyph-name="uni0917093C094D" horiz-adv-x="332" 
d="M352 634v-52h-165v-365h-67q-46 40 -48 112l57 40v213h-149v52h372zM114 52q0 18 11.5 29.5t29.5 11.5t29.5 -11.5t11.5 -29.5t-11.5 -29.5t-29.5 -11.5t-29.5 11.5t-11.5 29.5z" />
    <glyph glyph-name="uni0918093C094D" horiz-adv-x="371" 
d="M86 31q0 18 11.5 29.5t29.5 11.5t29.5 -11.5t11.5 -29.5t-11.5 -29.5t-29.5 -11.5t-29.5 11.5t-11.5 29.5zM269 176q73 0 126.5 33t80.5 84l36 -43q-35 -57 -97.5 -93t-146.5 -36q-88 0 -135.5 43.5t-47.5 103.5q0 43 25 72.5t59 38.5v4q-38 6 -64.5 34.5t-26.5 73.5
q0 33 15.5 56.5t33.5 30.5v4h-147v52h411v-52h-145q-52 0 -79 -25t-27 -64q0 -37 28.5 -61t86.5 -24h62v-54h-61q-54 0 -81.5 -22.5t-27.5 -62.5q0 -38 30 -65.5t92 -27.5z" />
    <glyph glyph-name="uni0919093C094D" horiz-adv-x="613" 
d="M489 359q0 19 12 31t30 12t30 -12t12 -31q0 -17 -12 -29t-30 -12t-30 12t-12 29zM240 271l171 34q29 -17 49 -51.5t20 -76.5q0 -68 -53 -114t-137 -46q-79 0 -143.5 42.5t-107.5 119.5l48 34q33 -66 85 -104.5t118 -38.5q57 0 93.5 29t36.5 78q0 45 -31 69l-161 -32
q-49 15 -84 57t-35 97q0 46 29.5 75t79.5 29h150v110h-388v52h653v-52h-208v-163h-180q-75 0 -75 -62q0 -29 20.5 -53.5t49.5 -32.5zM22 -34q0 18 11.5 29.5t29.5 11.5t29.5 -11.5t11.5 -29.5t-11.5 -29.5t-29.5 -11.5t-29.5 11.5t-11.5 29.5zM419 -227v-4h-74l-110 144
l49 18z" />
    <glyph glyph-name="uni091A093C094D" horiz-adv-x="409" 
d="M86 31q0 18 11.5 29.5t29.5 11.5t29.5 -11.5t11.5 -29.5t-11.5 -29.5t-29.5 -11.5t-29.5 11.5t-11.5 29.5zM429 634v-52h-449v52h449zM294 123q-83 0 -135.5 47.5t-52.5 115.5q0 71 52 106v4h-140v55h355v-54h-83q-57 0 -89.5 -30t-32.5 -79q0 -48 36.5 -79t96.5 -31
q70 0 117.5 35t69.5 82l41 -42q-77 -130 -235 -130z" />
    <glyph glyph-name="uni091B093C094D" horiz-adv-x="672" 
d="M296 -69q0 18 11.5 29.5t29.5 11.5t29.5 -11.5t11.5 -29.5t-11.5 -29.5t-29.5 -11.5t-29.5 11.5t-11.5 29.5zM478 294l-36 -41q-43 9 -67.5 39.5t-24.5 71.5q0 49 35 83t89 34q62 0 100.5 -43t38.5 -107q0 -109 -88.5 -196.5t-219.5 -87.5q-97 0 -153 50.5t-56 121.5
q0 47 24 79t59 45v4q-44 12 -70 45.5t-26 77.5q0 68 54 108v4h-157v52h712v-52h-426q-53 0 -87 -29.5t-34 -79.5q0 -45 30 -72t83 -27h37v-54h-24q-52 0 -82.5 -26.5t-30.5 -72.5q0 -51 38.5 -85t108.5 -34q101 0 175 67t74 162q0 45 -22.5 71t-56.5 26q-28 0 -47.5 -17.5
t-19.5 -46.5t18.5 -47.5t51.5 -22.5z" />
    <glyph glyph-name="uni091C093C094D" horiz-adv-x="473" 
d="M493 634v-52h-513v52h513zM623 433v-53h-241v-4q49 -46 49 -110q0 -59 -41.5 -100t-109.5 -41q-56 0 -102.5 26t-76 68t-47 88.5t-23.5 94.5l61 22q3 -95 54.5 -169.5t129.5 -74.5q44 0 69.5 25t25.5 64q0 47 -30.5 75t-64.5 37v4l27 48h320zM78 29q0 18 11.5 29.5
t29.5 11.5t29.5 -11.5t11.5 -29.5t-11.5 -29.5t-29.5 -11.5t-29.5 11.5t-11.5 29.5z" />
    <glyph glyph-name="uni091D093C094D" horiz-adv-x="542" 
d="M71 -83q0 18 11.5 29.5t29.5 11.5t29.5 -11.5t11.5 -29.5t-11.5 -29.5t-29.5 -11.5t-29.5 11.5t-11.5 29.5zM641 309l18 -52q-54 -37 -141 -37q-41 0 -83 14q10 -27 10 -55q0 -70 -54 -109.5t-122 -40.5l4 -2l151 -104l-65 -34l-152 138q-70 2 -107 29.5t-37 64.5
q0 28 22 43l123 -87h39q58 0 99 26t41 75q0 46 -31 67l-161 -32q-49 15 -84 57t-35 97q0 45 29.5 73.5t79.5 28.5h158v113h-363v52h582v-52h-162v-166h-188q-42 0 -58.5 -15.5t-16.5 -44.5t20.5 -53.5t49.5 -32.5l169 34q54 -29 137 -29q80 0 128 34z" />
    <glyph glyph-name="uni091E093C094D" horiz-adv-x="493" 
d="M76 0q0 18 11.5 29.5t29.5 11.5t29.5 -11.5t11.5 -29.5t-11.5 -29.5t-29.5 -11.5t-29.5 11.5t-11.5 29.5zM513 634v-52h-533v52h533zM595 347l7 -58q-45 -14 -110 -14q-50 0 -90 10q-5 -76 -58.5 -123.5t-132.5 -47.5q-70 0 -121 33t-78 78l43 38q62 -94 157 -94
q54 0 92 35.5t38 95.5q0 57 -33 89t-87 32q-42 0 -77 -20l-21 49q47 26 101 26q69 0 116 -37.5t59 -99.5q38 -8 78 -8q67 0 117 16z" />
    <glyph glyph-name="uni091F093C094D" horiz-adv-x="494" 
d="M-20 582v52h534v-52h-141v-165l-144 -44q-68 -21 -91.5 -48t-23.5 -74q0 -60 47 -105.5t121 -45.5q99 0 155 60l35 -47q-67 -68 -183 -68q-100 0 -168.5 65t-68.5 151q0 115 134 157l129 40v124h-335zM45 -35q0 18 11.5 29.5t29.5 11.5t29.5 -11.5t11.5 -29.5
t-11.5 -29.5t-29.5 -11.5t-29.5 11.5t-11.5 29.5zM427 -227v-4h-74l-110 144l49 18z" />
    <glyph glyph-name="uni0920093C094D" horiz-adv-x="564" 
d="M283 45q-100 0 -166.5 62t-66.5 152q0 115 136 158l127 40v125h-333v52h604v-52h-213v-146q55 -22 99 -69.5t44 -121.5q0 -86 -65.5 -143t-165.5 -57zM276 100q87 0 132 43.5t45 107.5q0 35 -16 63.5t-40.5 45.5t-47.5 26.5t-42 12.5l-80 -25q-68 -21 -92 -49t-24 -75
q0 -60 45 -105t120 -45zM50 -32q0 18 11.5 29.5t29.5 11.5t29.5 -11.5t11.5 -29.5t-11.5 -29.5t-29.5 -11.5t-29.5 11.5t-11.5 29.5zM428 -227v-4h-74l-110 144l49 18z" />
    <glyph glyph-name="uni0921093C094D" horiz-adv-x="536" 
d="M240 271l171 34q29 -17 49 -51.5t20 -76.5q0 -68 -53 -114t-137 -46q-79 0 -143.5 42.5t-107.5 119.5l48 34q33 -66 85 -104.5t118 -38.5q57 0 93.5 29t36.5 78q0 45 -31 69l-161 -32q-49 15 -84 57t-35 97q0 46 29.5 75t79.5 29h150v110h-388v52h576v-52h-131v-163h-180
q-75 0 -75 -62q0 -29 20.5 -53.5t49.5 -32.5zM22 -34q0 18 11.5 29.5t29.5 11.5t29.5 -11.5t11.5 -29.5t-11.5 -29.5t-29.5 -11.5t-29.5 11.5t-11.5 29.5zM421 -227v-4h-74l-110 144l49 18z" />
    <glyph glyph-name="uni0922093C094D" horiz-adv-x="515" 
d="M290 99q52 0 81.5 25.5t29.5 64.5q0 25 -17.5 43t-43.5 18q-34 0 -50.5 -25.5t-9.5 -58.5l-56 22q-4 45 27 81.5t88 36.5q52 0 87 -34t35 -83q0 -59 -47.5 -101.5t-119.5 -42.5q-103 0 -173.5 66.5t-70.5 156.5q0 62 38 108t102 64l145 42v100h-355v52h555v-52h-142v-141
l-165 -45q-65 -18 -91 -51t-26 -82q0 -65 50.5 -114.5t128.5 -49.5zM38 -14q0 18 11.5 29.5t29.5 11.5t29.5 -11.5t11.5 -29.5t-11.5 -29.5t-29.5 -11.5t-29.5 11.5t-11.5 29.5zM422 -227v-4h-74l-110 144l49 18z" />
    <glyph glyph-name="uni0923093C094D" horiz-adv-x="486" 
d="M216 31q0 18 11.5 29.5t29.5 11.5t29.5 -11.5t11.5 -29.5t-11.5 -29.5t-29.5 -11.5t-29.5 11.5t-11.5 29.5zM506 634v-52h-106v-239q0 -74 -43 -116t-112 -42t-112 42t-43 116v239h-110v52h526zM245 240q47 0 72 28.5t25 80.5v233h-194v-233q0 -52 25 -80.5t72 -28.5z
" />
    <glyph glyph-name="uni0924093C094D" horiz-adv-x="298" 
d="M-4 -68q0 18 11.5 29.5t29.5 11.5t29.5 -11.5t11.5 -29.5t-11.5 -29.5t-29.5 -11.5t-29.5 11.5t-11.5 29.5zM318 634v-52h-338v52h338zM433 429v-54h-199q-55 0 -88 -32.5t-33 -90.5q0 -137 116 -224l-50 -34q-126 101 -126 258q0 78 47.5 127.5t121.5 49.5h211z" />
    <glyph glyph-name="uni0925093C094D" horiz-adv-x="423" 
d="M86 -5q0 18 11.5 29.5t29.5 11.5t29.5 -11.5t11.5 -29.5t-11.5 -29.5t-29.5 -11.5t-29.5 11.5t-11.5 29.5zM285 112q-108 0 -177 67t-75 167l92 27q106 31 141 63t35 79q0 33 -22 53.5t-56 20.5q-33 0 -53.5 -19t-20.5 -52q0 -16 9 -34t21 -28l-57 -17q-32 30 -32 82
q0 51 37.5 87t95.5 36q60 0 98.5 -37t38.5 -94q0 -129 -198 -186l-59 -17q2 -19 13.5 -42t32.5 -46.5t57 -39t80 -15.5q74 0 125.5 32t78.5 81l36 -43q-33 -55 -94.5 -90t-146.5 -35z" />
    <glyph glyph-name="uni0926093C094D" horiz-adv-x="513" 
d="M385 431l-162 -40q-61 -15 -86 -42.5t-25 -71.5q0 -59 42 -100.5t108 -41.5q67 0 96 26v103l46 17q16 -7 29.5 -27.5t13.5 -46.5q0 -52 -33 -81l106 -138l-71 -18l-75 132q-42 -22 -103 -22q-101 0 -161 62t-60 139q0 122 148 159l129 32v110h-347v52h553v-52h-148v-151z
M79 -26q0 18 11.5 29.5t29.5 11.5t29.5 -11.5t11.5 -29.5t-11.5 -29.5t-29.5 -11.5t-29.5 11.5t-11.5 29.5zM534 -227v-4h-74l-110 144l49 18z" />
    <glyph glyph-name="uni0927093C094D" horiz-adv-x="375" 
d="M86 11q0 18 11.5 29.5t29.5 11.5t29.5 -11.5t11.5 -29.5t-11.5 -29.5t-29.5 -11.5t-29.5 11.5t-11.5 29.5zM395 634v-52h-21v52h21zM517 252q-35 -57 -97.5 -93t-146.5 -36q-88 0 -135.5 44t-47.5 105q0 43 25 72.5t59 38.5v4q-38 6 -64.5 33.5t-26.5 72.5
q0 32 15.5 54.5t34.5 30.5v4h-153v52h230l13 -53q-78 -24 -78 -86q0 -37 28.5 -60t86.5 -23h62v-54h-61q-54 0 -81.5 -22.5t-27.5 -62.5q0 -39 30 -67t92 -28q73 0 126.5 33t80.5 84z" />
    <glyph glyph-name="uni0928093C094D" horiz-adv-x="264" 
d="M56 60q0 18 11.5 29.5t29.5 11.5t29.5 -11.5t11.5 -29.5t-11.5 -29.5t-29.5 -11.5t-29.5 11.5t-11.5 29.5zM284 634v-52h-304v52h304zM375 383v-54h-249v-87l-41 -12q-23 17 -38 49.5t-16 65.5l45 38h299z" />
    <glyph glyph-name="uni092A093C094D" horiz-adv-x="317" 
d="M86 41q0 18 11.5 29.5t29.5 11.5t29.5 -11.5t11.5 -29.5t-11.5 -29.5t-29.5 -11.5t-29.5 11.5t-11.5 29.5zM250 202q-69 0 -114.5 41t-45.5 118v221h-110v52h357v-52h-189v-211q0 -114 108 -114q99 0 149 100l40 -36q-71 -119 -195 -119z" />
    <glyph glyph-name="uni092B093C094D" horiz-adv-x="580" 
d="M566 407q-57 0 -95 -41t-38 -108v-258h-58v264h-4q-37 -65 -129 -65q-68 0 -110 40.5t-42 117.5v225h-110v52h620v-52h-167v-184h4q16 24 52 44.5t86 20.5q45 0 83 -20.5t60 -57.5l-49 -38q-26 60 -103 60zM376 406v176h-228v-216q0 -112 97 -112q59 0 95 41t36 111z
M108 41q0 18 11.5 29.5t29.5 11.5t29.5 -11.5t11.5 -29.5t-11.5 -29.5t-29.5 -11.5t-29.5 11.5t-11.5 29.5z" />
    <glyph glyph-name="uni092C093C094D" horiz-adv-x="353" 
d="M74 -12q0 18 11.5 29.5t29.5 11.5t29.5 -11.5t11.5 -29.5t-11.5 -29.5t-29.5 -11.5t-29.5 11.5t-11.5 29.5zM373 634v-52h-393v52h393zM248 108q-87 0 -142.5 52t-55.5 136t60.5 138.5t145.5 54.5q41 0 66 -8l2 -57q-29 11 -66 11q-51 0 -92 -27l219 -183q27 33 38 73
l45 -38q-7 -21 -21 -43t-39 -48.5t-67 -43.5t-93 -17zM255 163q53 0 93 28l-217 181q-21 -32 -21 -74q0 -60 38 -97.5t107 -37.5z" />
    <glyph glyph-name="uni092D093C094D" horiz-adv-x="327" 
d="M100 31q0 18 11.5 29.5t29.5 11.5t29.5 -11.5t11.5 -29.5t-11.5 -29.5t-29.5 -11.5t-29.5 11.5t-11.5 29.5zM177 174h-51q-23 20 -38 55t-16 67l47 34v177q0 40 -19 57.5t-60 17.5h-60v52h63q63 0 98.5 -32t35.5 -90v-181h262v-54h-262v-103zM347 582h-21v52h21v-52z" />
    <glyph glyph-name="uni092E093C094D" horiz-adv-x="327" 
d="M106 31q0 18 11.5 29.5t29.5 11.5t29.5 -11.5t11.5 -29.5t-11.5 -29.5t-29.5 -11.5t-29.5 11.5t-11.5 29.5zM440 331v-54h-263v-103h-51q-23 20 -38 55t-16 67l47 34v252h-139v52h367v-52h-170v-251h263z" />
    <glyph glyph-name="uni092F093C094D" horiz-adv-x="375" 
d="M280 144q-91 0 -153.5 59t-76.5 163q74 17 110.5 45t36.5 73q0 59 -47 98h-170v52h415v-52h-177v-4q40 -45 40 -103q0 -50 -38 -87.5t-100 -52.5q8 -50 49.5 -93t118.5 -43q114 0 174 113l36 -43q-75 -125 -218 -125zM86 31q0 18 11.5 29.5t29.5 11.5t29.5 -11.5
t11.5 -29.5t-11.5 -29.5t-29.5 -11.5t-29.5 11.5t-11.5 29.5z" />
    <glyph glyph-name="uni0930093C094D" horiz-adv-x="392" 
d="M133 280l-2 -3q46 -55 66 -81l123 -163l-47 -32l-251 335l44 35q40 -43 95 -43q73 0 73 70v184h-254v52h432v-52h-120v-192q0 -56 -34 -85.5t-85 -29.5q-26 0 -40 5zM-33 62q0 18 11.5 29.5t29.5 11.5t29.5 -11.5t11.5 -29.5t-11.5 -29.5t-29.5 -11.5t-29.5 11.5
t-11.5 29.5zM344 -227v-4h-74l-110 144l49 18z" />
    <glyph glyph-name="uni0932093C094D" horiz-adv-x="450" 
d="M17 -69q0 18 11.5 29.5t29.5 11.5t29.5 -11.5t11.5 -29.5t-11.5 -29.5t-29.5 -11.5t-29.5 11.5t-11.5 29.5zM470 634v-52h-490v52h490zM214 445q48 0 79.5 -22t42.5 -59h4q11 39 43 62t75 23q82 0 131 -57l-29 -43q-41 45 -98 45q-44 0 -70 -28t-26 -79v-95h-58v94
q0 51 -24 77.5t-66 26.5t-69.5 -31t-27.5 -90q0 -147 152 -229l-42 -43q-73 39 -122 111t-49 162q0 80 45.5 127.5t108.5 47.5z" />
    <glyph glyph-name="uni0935093C094D" horiz-adv-x="313" 
d="M66 -2q0 18 11.5 29.5t29.5 11.5t29.5 -11.5t11.5 -29.5t-11.5 -29.5t-29.5 -11.5t-29.5 11.5t-11.5 29.5zM333 634v-52h-353v52h353zM232 122q-75 0 -128.5 49t-53.5 129q0 87 58 133.5t137 45.5q13 0 39 -4l6 -57q-22 6 -45 6q-57 1 -95 -32t-38 -90q0 -55 35 -90
t92 -35q61 0 97 35t49 82l42 -39q-22 -53 -69 -93t-126 -40z" />
    <glyph glyph-name="uni0936093C094D" horiz-adv-x="454" 
d="M36 11q0 18 11.5 29.5t29.5 11.5t29.5 -11.5t11.5 -29.5t-11.5 -29.5t-29.5 -11.5t-29.5 11.5t-11.5 29.5zM219 441l-36 -44q-39 11 -61 42.5t-22 72.5q0 56 40.5 94t104.5 38q75 0 118.5 -51.5t43.5 -123.5q0 -107 -81.5 -165t-202.5 -48l-2 -4l38 -34t55 -52l143 -140
l-48 -33l-227 224l-66 58l37 49q48 -15 102 -15q83 0 137.5 43t54.5 117q0 57 -30.5 89t-71.5 32q-39 0 -62 -21.5t-23 -56.5q0 -25 15 -45t44 -26z" />
    <glyph glyph-name="uni0937093C094D" horiz-adv-x="316" 
d="M96 41q0 18 11.5 29.5t29.5 11.5t29.5 -11.5t11.5 -29.5t-11.5 -29.5t-29.5 -11.5t-29.5 11.5t-11.5 29.5zM256 197q-70 0 -118 41t-48 118v226h-110v52h356v-52h-193l259 -248q6 10 9 16l40 -36q-70 -117 -195 -117zM262 250q65 0 112 47l-164 157l-66 67l2 -94v-63
q0 -114 116 -114z" />
    <glyph glyph-name="uni0938093C094D" horiz-adv-x="410" 
d="M24 11q0 18 11.5 29.5t29.5 11.5t29.5 -11.5t11.5 -29.5t-11.5 -29.5t-29.5 -11.5t-29.5 11.5t-11.5 29.5zM408 331q62 0 105 12l7 -54q-43 -13 -113 -13q-83 0 -144 24q-32 -35 -90 -35q-26 0 -40 5l-2 -3q46 -55 66 -81l123 -163l-47 -32l-251 335l44 35q40 -43 95 -43
q73 0 73 70v194h-254v52h450v-52h-138v-202q0 -20 -4 -32q57 -17 120 -17z" />
    <glyph glyph-name="uni0939093C094D" horiz-adv-x="500" 
d="M40 -66q0 18 11.5 29.5t29.5 11.5t29.5 -11.5t11.5 -29.5t-11.5 -29.5t-29.5 -11.5t-29.5 11.5t-11.5 29.5zM402 62l-53 31q39 30 39 70q0 32 -25.5 53.5t-72.5 21.5q-64 0 -103 -31t-39 -78q0 -63 65 -104t206 -47l-24 -53q-148 10 -228 63.5t-80 142.5q0 71 62 120
q-29 19 -50 52t-21 71q0 44 30 71.5t84 27.5h166v109h-378v52h540v-52h-105v-163h-211q-65 0 -65 -50q0 -26 17 -51t43 -40q42 16 88 16q78 0 120 -38t42 -94q0 -61 -47 -100zM500 -287v-4h-74l-110 144l49 18z" />
    <glyph glyph-name="uni0933093C094D" horiz-adv-x="734" 
d="M514 136q49 0 78.5 36t29.5 99q0 58 -27.5 97t-76.5 39q-15 0 -28 -4t-22.5 -9t-19 -17.5l-15 -20t-13 -25.5t-10.5 -26.5t-10 -30.5t-10 -30q-1 -2 -2.5 -7t-2.5 -7q23 -45 52 -69.5t77 -24.5zM217 134q24 0 43.5 10.5t31 22.5t23.5 38.5t17.5 42t15.5 50.5q1 2 2.5 7
t2.5 8q-47 92 -126 92q-49 0 -79.5 -36.5t-30.5 -97.5q0 -59 26 -98t74 -39zM523 461q71 0 115 -51t44 -135q0 -88 -48 -140.5t-125 -52.5q-97 0 -149 89q-50 -91 -148 -91q-70 0 -112.5 51.5t-42.5 135.5q0 85 47.5 138.5t127.5 53.5q93 0 145 -87q47 89 146 89zM754 582
h-774v52h774v-52zM320 15q0 18 11.5 29.5t29.5 11.5t29.5 -11.5t11.5 -29.5t-11.5 -29.5t-29.5 -11.5t-29.5 11.5t-11.5 29.5z" />
    <glyph glyph-name="uni0915094D0930" horiz-adv-x="766" 
d="M357 186h-4l-249 -187l-49 42l146 94v4q-57 2 -102 45.5t-45 114.5q0 81 59.5 128.5t145.5 36.5l9 -55q-70 10 -111 -21.5t-41 -87.5q0 -49 32 -80.5t82 -31.5q56 0 91.5 37.5t35.5 97.5v259h-377v52h806v-52h-372v-180h4q44 62 136 62q67 0 115 -46t48 -119
q0 -82 -59.5 -129.5t-145.5 -36.5l-9 55q70 -10 111 21.5t41 87.5q0 50 -31.5 81t-81.5 31q-57 0 -92.5 -37t-35.5 -98v-274h-57v186z" />
    <glyph glyph-name="uni0916094D0930" horiz-adv-x="780" 
d="M613 143q-52 -66 -201 -125l-239 -94l-50 53l228 68v4q-36 0 -72 10.5t-72.5 35t-66 61t-50.5 93t-28 125.5l52 18q25 -44 73 -44q54 0 54 64v170h-261v52h819v-52h-125v-582h-57v143h-4zM612 453h4v129h-317v-169q0 -53 -30 -84t-75 -31q-38 0 -62 13q19 -105 87.5 -161
t163.5 -56t165.5 57.5t70.5 165.5q0 56 -30 87.5t-73 31.5q-44 0 -71 -26.5t-27 -69.5t30.5 -71.5t85.5 -30.5l-31 -47q-57 2 -100 42.5t-43 106.5t44 108.5t107 42.5q65 0 101 -38z" />
    <glyph glyph-name="uni0917094D0930" horiz-adv-x="544" 
d="M381 0v185h-4l-243 -200l-56 37l303 234v326h-196v-347h-67q-46 40 -48 109l57 40v198h-147v52h583v-52h-124v-582h-58z" />
    <glyph glyph-name="uni0918094D0930" horiz-adv-x="626" 
d="M464 582h-217q-52 0 -77.5 -23.5t-25.5 -62.5q0 -37 28.5 -60t86.5 -23h62v-54h-61q-53 0 -80.5 -22.5t-27.5 -60.5q0 -40 31 -67.5t93 -27.5q58 0 112 28t76 59v314zM173 384v4q-38 6 -64.5 33.5t-26.5 72.5q0 33 16 54.5t34 29.5v4h-152v52h666v-52h-125v-582h-58v191
h-4l-312 -198l-55 47l173 91v4q-77 -6 -126 33.5t-49 103.5q0 42 25 71.5t58 40.5z" />
    <glyph glyph-name="uni0919094D0930" horiz-adv-x="613" 
d="M418 -134l-132 151h-4l-132 -151l-68 18l141 142q-115 30 -184 153l48 34q33 -66 85 -104.5t118 -38.5q57 0 93.5 29t36.5 78q0 45 -31 69l-161 -32q-49 15 -84 57t-35 97q0 46 29.5 75t79.5 29h150v110h-388v52h653v-52h-208v-163h-180q-75 0 -75 -62q0 -29 20.5 -53.5
t49.5 -32.5l171 34q29 -17 49 -51.5t20 -76.5q0 -55 -36 -97t-97 -56l139 -140zM489 359q0 19 12 31t30 12t30 -12t12 -31q0 -17 -12 -29t-30 -12t-30 12t-12 29z" />
    <glyph glyph-name="uni091A094D0930" horiz-adv-x="629" 
d="M462 181l-312 -181l-52 49l176 79v4q-65 0 -114 41t-49 111q0 67 54 109v4h-142v54h364v-53h-87q-59 0 -93 -29.5t-34 -80.5q0 -49 35 -78.5t98 -29.5q51 0 95.5 23t64.5 47v332h-486v52h669v-52h-125v-582h-58v181h-4z" />
    <glyph glyph-name="uni091B094D0930" horiz-adv-x="672" 
d="M466 -105l-134 153l-134 -153l-68 18l136 136q-80 11 -125 59t-45 111q0 47 24 79t59 45v4q-44 12 -70 45.5t-26 77.5q0 68 54 108v4h-157v52h712v-52h-173v-108q43 -14 68.5 -53t25.5 -90q0 -89 -62 -168t-161 -105l144 -145zM478 294l-36 -41q-43 9 -67.5 39.5
t-24.5 71.5q0 46 31.5 79.5t81.5 37.5v101h-197q-53 0 -87 -29.5t-34 -79.5q0 -45 30 -72t83 -27h37v-54h-24q-52 0 -82.5 -26.5t-30.5 -72.5q0 -51 38.5 -85t108.5 -34q101 0 175 67t74 162q0 45 -22.5 71t-56.5 26q-28 0 -47.5 -17.5t-19.5 -46.5t18.5 -47.5t51.5 -22.5z
" />
    <glyph glyph-name="uni091C094D0930" horiz-adv-x="732" 
d="M275 417v4l27 48h267v113h-589v52h772v-52h-125v-582h-58v161h-4l-270 -194l-57 37l331 221v191h-188v-4q49 -46 49 -110q0 -59 -41.5 -100t-109.5 -41q-56 0 -102.5 26t-76 68t-47 88.5t-23.5 94.5l61 22q3 -95 54.5 -169.5t129.5 -74.5q44 0 69.5 25t25.5 64
q0 47 -30.5 75t-64.5 37z" />
    <glyph glyph-name="uni091D094D0930" horiz-adv-x="837" 
d="M681 169h-4l-156 -155l-60 32l226 194v4q-66 -29 -146 -29q-61 0 -106 16q10 -25 10 -52q0 -70 -54 -109.5t-122 -40.5l2 -2l157 -107l-73 -38l-149 143q-69 2 -106 30.5t-37 65.5q0 32 19 45l126 -89h39q60 0 100 26t40 75q0 46 -31 67l-161 -32q-49 15 -84 57t-35 97
q0 45 29.5 73.5t79.5 28.5h158v113h-363v52h876v-52h-117v-582h-58v169zM681 582h-281v-166h-188q-42 0 -58.5 -15.5t-16.5 -44.5t20.5 -53.5t49.5 -32.5l169 34q63 -34 160 -34q84 0 145 26v286z" />
    <glyph glyph-name="uni091E094D0930" horiz-adv-x="701" 
d="M721 634v-52h-125v-582h-58v156h-4l-267 -195l-60 39l338 224v4q-18 3 -35 9q-65 19 -108 48q-21 -47 -67 -76t-108 -29q-72 0 -125.5 35t-79.5 80l46 34q58 -94 159 -94q52 0 90 32.5t38 88.5q0 53 -32.5 82t-80.5 29q-42 0 -80 -22l-27 50q47 27 109 27q74 0 123.5 -47
t49.5 -118q0 -3 -0.5 -9t-0.5 -9q49 -36 122 -57v300h-558v52h741z" />
    <glyph glyph-name="uni091F094D0930" horiz-adv-x="494" 
d="M414 -106l-132 151h-4l-132 -151l-68 18l141 142q-74 21 -120.5 79t-46.5 128q0 115 134 157l129 40v124h-335v52h534v-52h-141v-165l-144 -44q-68 -21 -91.5 -48t-23.5 -74q0 -60 47 -105.5t121 -45.5q99 0 155 60l35 -47q-49 -50 -127 -63l137 -138z" />
    <glyph glyph-name="uni0920094D0930" horiz-adv-x="564" 
d="M420 -106l-132 151h-4l-132 -151l-68 18l139 140q-77 17 -125 74.5t-48 132.5q0 115 136 158l127 40v125h-333v52h604v-52h-213v-146q55 -22 99 -69.5t44 -121.5q0 -71 -45 -123.5t-120 -69.5l139 -140zM276 100q87 0 132 43.5t45 107.5q0 35 -16 63.5t-40.5 45.5
t-47.5 26.5t-42 12.5l-80 -25q-68 -21 -92 -49t-24 -75q0 -60 45 -105t120 -45z" />
    <glyph glyph-name="uni0921094D0930" horiz-adv-x="536" 
d="M420 -134l-132 151h-4l-132 -151l-68 18l140 141q-116 30 -185 154l48 34q33 -66 85 -104.5t118 -38.5q57 0 93.5 29t36.5 78q0 45 -31 69l-161 -32q-49 15 -84 57t-35 97q0 46 29.5 75t79.5 29h150v110h-388v52h576v-52h-131v-163h-180q-75 0 -75 -62q0 -29 20.5 -53.5
t49.5 -32.5l171 34q29 -17 49 -51.5t20 -76.5q0 -54 -35.5 -96t-95.5 -57l139 -140z" />
    <glyph glyph-name="uni0922094D0930" horiz-adv-x="515" 
d="M413 -106l-133 151h-2l-133 -151l-68 18l143 143q-76 22 -123 81.5t-47 131.5q0 62 38 108t102 64l145 42v100h-355v52h555v-52h-142v-141l-165 -45q-65 -18 -91 -51t-26 -82q0 -65 50.5 -114.5t128.5 -49.5q52 0 81.5 25.5t29.5 64.5q0 25 -17.5 43t-43.5 18
q-34 0 -50.5 -25.5t-9.5 -58.5l-56 22q-4 45 27 81.5t88 36.5q52 0 87 -34t35 -83q0 -48 -32.5 -86.5t-85.5 -51.5l138 -139z" />
    <glyph glyph-name="uni0923094D0930" horiz-adv-x="746" 
d="M584 178h-4l-303 -195l-58 35l364 222v342h-174v-239q0 -74 -43.5 -116t-112.5 -42t-112.5 42t-43.5 116v239h-117v52h786v-52h-125v-582h-57v178zM253 240q47 0 72.5 28.5t25.5 80.5v233h-196v-233q0 -52 25.5 -80.5t72.5 -28.5z" />
    <glyph glyph-name="uni0924094D0930" horiz-adv-x="548" 
d="M385 239h-4l-254 -163l-47 44l276 166q-13 48 -55 86t-106 38q-68 0 -119 -43l-43 49q65 53 151 53q134 0 198 -122h4v235h-406v52h588v-52h-125v-582h-58v239z" />
    <glyph glyph-name="uni0925094D0930" horiz-adv-x="638" 
d="M43 346l92 27q106 30 140.5 61.5t34.5 79.5q0 34 -20.5 54.5t-55.5 20.5q-33 0 -54 -19t-21 -52q0 -16 9 -34t21 -28l-57 -17q-32 30 -32 82q0 51 38 87t96 36q61 0 98 -37t37 -95q0 -129 -197 -185l-29.5 -8.5l-29.5 -8.5q1 -18 11.5 -40t30 -46t56.5 -40t84 -16
q62 0 113.5 30t67.5 63v373h182v-52h-125v-582h-58v175h-4l-339 -196l-54 45l179 90v4q-88 7 -146.5 69.5t-67.5 158.5z" />
    <glyph glyph-name="uni0926094D0930" horiz-adv-x="514" 
d="M255 83v4q-92 -1 -148.5 57t-56.5 137q0 125 146 161l131 33v107h-347v52h554v-52h-149v-148l-160 -39q-62 -15 -87.5 -44t-25.5 -77q0 -56 40.5 -96t106.5 -40q64 0 97 28v102l47 17q16 -8 29.5 -28t13.5 -46q0 -44 -33 -79l100 -137l-72 -17l-66 129l-247 -174l-56 46z
" />
    <glyph glyph-name="uni0927094D0930" horiz-adv-x="627" 
d="M271 134q-81 -5 -131 33t-50 105q0 43 25 72.5t59 38.5v4q-38 6 -64.5 33.5t-26.5 72.5q0 32 15.5 54.5t34.5 30.5v4h-153v52h230l13 -53q-78 -24 -78 -86q0 -37 28.5 -60t86.5 -23h62v-54h-61q-54 0 -81.5 -22.5t-27.5 -62.5q0 -42 32.5 -67t97.5 -25q63 0 111 27.5
t72 57.5v316h-91v52h273v-52h-125v-582h-57v191h-4l-309 -198l-55 47l174 90v4z" />
    <glyph glyph-name="uni0928094D0930" horiz-adv-x="547" 
d="M339 283q-12 53 -54 91t-100 38q-41 0 -59 -8v-67l-39 -13q-40 33 -43 89l44 38q32 16 87 16q79 0 133.5 -40.5t72.5 -100.5h4v256h-405v52h588v-52h-126v-582h-58v247h-4l-241 -160l-48 41z" />
    <glyph glyph-name="uni092A094D0930" horiz-adv-x="579" 
d="M288 209v4q-80 -7 -131.5 31t-51.5 120v218h-125v52h620v-52h-126v-582h-58v251h-4l-282 -258l-63 31zM416 316v266h-253v-207q0 -59 27 -86t84 -27q39 0 79 17t63 37z" />
    <glyph glyph-name="uni092B094D0930" horiz-adv-x="807" 
d="M246 192v4q-61 2 -101 40.5t-40 114.5v231h-125v52h847v-52h-379v-183h4q16 24 52 44.5t86 20.5q70 0 118 -46.5t48 -119.5q0 -86 -60 -136.5t-146 -39.5l-9 57q70 -12 111.5 23t41.5 95q0 50 -31 80.5t-82 30.5q-57 0 -95 -41t-38 -108v-259h-58v246h-4l-273 -240
l-57 38zM266 245q43 0 76.5 24.5t47.5 54.5v258h-227v-223q0 -114 103 -114z" />
    <glyph glyph-name="uni092C094D0930" horiz-adv-x="580" 
d="M231 117v4q-65 8 -113.5 58t-48.5 130q0 81 60.5 135t145.5 54q41 0 66 -8l2 -57q-29 11 -66 11q-51 0 -92 -27l224 -188l8 6v347h-437v52h620v-52h-125v-582h-58v168h-4l-279 -173l-51 45zM273 168q53 0 96 30l-219 183q-21 -30 -21 -74q0 -61 40.5 -100t103.5 -39z" />
    <glyph glyph-name="uni092D094D0930" horiz-adv-x="576" 
d="M409 211l-261 -217l-53 36l320 251v33h-233v-103h-51q-23 20 -38 55t-16 67l47 34v140q0 40 -19 57.5t-60 17.5h-65v52h68q63 0 98.5 -32t35.5 -90v-144h231v214h-82v52h265v-52h-125v-582h-58v211h-4z" />
    <glyph glyph-name="uni092E094D0930" horiz-adv-x="576" 
d="M409 211l-261 -217l-53 36l318 251v33h-231v-98h-51q-23 20 -38 52.5t-16 64.5l47 34v215h-144v52h616v-52h-125v-582h-58v211h-4zM182 582v-214h231v214h-231z" />
    <glyph glyph-name="uni092F094D0930" horiz-adv-x="604" 
d="M260 145v4q-80 3 -139.5 59.5t-70.5 157.5q146 33 146 118q0 59 -47 98h-169v52h643v-52h-124v-582h-58v197h-4l-319 -209l-55 47zM119 335q9 -52 48.5 -94t119.5 -42q54 0 97.5 26t58.5 51v306h-226v-4q40 -45 40 -103q0 -50 -38 -87.5t-100 -52.5z" />
    <glyph glyph-name="uni0932094D0930" horiz-adv-x="707" 
d="M256 50l-44 -42q-66 42 -109 110.5t-43 151.5q0 80 45.5 127.5t108.5 47.5q48 0 79.5 -22t42.5 -59h4q11 40 41.5 62.5t70.5 22.5q57 0 88 -35h4v168h-564v52h747v-52h-125v-582h-58v145h-4l-177 -146l-52 32l233 182v143q-36 38 -88 38q-41 0 -65.5 -27.5t-24.5 -79.5
v-86h-58v85q0 51 -24 77.5t-66 26.5t-69.5 -31t-27.5 -90q0 -138 135 -219z" />
    <glyph glyph-name="uni0935094D0930" horiz-adv-x="560" 
d="M397 171h-4l-262 -176l-55 47l146 80v4q-62 6 -107.5 53.5t-45.5 120.5q0 95 72.5 143.5t162.5 31.5l6 -57q-65 17 -122 -13.5t-57 -102.5q0 -54 37 -90.5t95 -36.5q47 0 85 23.5t49 49.5v334h-417v52h600v-52h-125v-582h-58v171z" />
    <glyph glyph-name="uni0936094D0930" horiz-adv-x="660" 
d="M497 223h-4l-260 -160l-47 42l240 130v4q-124 33 -204 87q-69 -30 -175 -53l-41 51q96 16 166 41q-73 66 -73 146q0 57 40.5 96t103.5 39q59 0 99 -37t40 -99q0 -93 -105 -156q95 -55 220 -81v361h183v-52h-125v-582h-58v223zM159 511q0 -67 67 -122q96 48 96 121
q0 38 -22 60.5t-57 22.5q-37 0 -60.5 -22t-23.5 -60z" />
    <glyph glyph-name="uni0937094D0930" horiz-adv-x="579" 
d="M288 209v4q-80 -7 -131.5 31t-51.5 120v218h-125v52h619v-52h-125v-582h-57v251h-4l-283 -258l-63 31zM276 260q73 0 112 37l-161 155l-70 66q3 -27 3 -91v-60q0 -55 31 -81t85 -26zM418 399v183h-261l252 -241q9 26 9 58z" />
    <glyph glyph-name="uni0938094D0930" horiz-adv-x="738" 
d="M385 117l-47 38l189 122q-35 93 -116 93q-37 0 -73.5 -18t-61.5 -38t-63 -32t-80 -2l-2 -3q46 -55 66 -81l123 -163l-47 -32l-251 335l44 35q40 -43 95 -43q73 0 73 70v184h-254v52h778v-52h-125v-582h-58v242h-4zM409 424q114 0 162 -118h4v276h-283v-195q56 37 117 37z
" />
    <glyph glyph-name="uni0939094D0930" horiz-adv-x="541" 
d="M415 242h-141q-57 0 -89.5 -26.5t-32.5 -74.5q0 -64 61 -109t195 -56l-25 -53q-138 16 -215 73.5t-77 144.5q0 76 58 119q-68 44 -68 113q0 43 31 71.5t82 28.5h198v109h-412v52h581v-52h-112v-163h-239q-68 0 -68 -50q0 -23 16.5 -45.5t44.5 -37.5q33 10 68 10h147
l44 -39v-195h-51v110h-4l-107 -82l-57 27l172 121v4z" />
    <glyph glyph-name="uni0933094D0930" horiz-adv-x="734" 
d="M657 -72l-134 153l-134 -153l-68 18l141 142q-66 19 -102 83q-50 -91 -148 -91q-70 0 -112.5 51.5t-42.5 135.5q0 85 47.5 138.5t127.5 53.5q93 0 145 -87q37 71 109 86v124h-506v52h774v-52h-210v-122q63 -8 100.5 -58t37.5 -127q0 -66 -28 -113t-77 -67l148 -149z
M514 136q49 0 78.5 36t29.5 99q0 58 -27.5 97t-76.5 39q-15 0 -28 -4t-22.5 -9t-19 -17.5l-15 -20t-13 -25.5t-10.5 -26.5t-10 -30.5t-10 -30q-1 -2 -2.5 -7t-2.5 -7q23 -45 52 -69.5t77 -24.5zM217 134q24 0 43.5 10.5t31 22.5t23.5 38.5t17.5 42t15.5 50.5q1 2 2.5 7
t2.5 8q-47 92 -126 92q-49 0 -79.5 -36.5t-30.5 -97.5q0 -59 26 -98t74 -39z" />
    <glyph glyph-name="uni0915094D0937094D0930" horiz-adv-x="814" 
d="M482 -67l-73 -11l-54 124q-44 -21 -101 -21q-98 0 -154 50t-56 124q0 112 150 165q-41 19 -68.5 56t-27.5 81q0 60 47.5 101.5t122.5 41.5q69 0 113.5 -41t44.5 -101q0 -95 -92 -133v-4q53 -12 153 -15t164 8v224h-136v52h319v-52h-125v-582h-58v231h-4l-130 -118l-56 32
l196 157v4q-107 -15 -214.5 -7.5t-181.5 33.5q-80 -23 -117.5 -53t-37.5 -80q0 -51 38.5 -85t101.5 -34q64 0 93 24v101l46 17q16 -7 29.5 -27t13.5 -44q0 -52 -33 -81zM157 501q0 -37 27.5 -67t75.5 -47q46 11 76.5 40t30.5 75q0 40 -27.5 64.5t-75.5 24.5q-49 0 -78 -25.5
t-29 -64.5z" />
    <glyph glyph-name="uni091C094D091E094D0930" horiz-adv-x="732" 
d="M334 -49l-69 -27l-140 156q-55 5 -84.5 31t-29.5 59q0 35 24 51l100 -92q25 -7 52 -7q56 0 90 27.5t34 75.5q0 36 -20 66.5t-52.5 51t-64 33.5t-65.5 22v4l26 48h434v132h-589v52h772v-52h-125v-582h-58v131h-4l-155 -118l-50 35l209 147v202h-343v-4q23 -9 44.5 -21.5
t46.5 -33t40 -51.5t15 -67q0 -64 -46.5 -103.5t-118.5 -39.5l-20 1z" />
    <glyph glyph-name="uni0915093C094D0930" horiz-adv-x="766" 
d="M353 186h-4l-249 -187l-49 42l146 94v4q-57 2 -102 45.5t-45 114.5q0 81 59.5 128.5t145.5 36.5l9 -55q-70 10 -111 -21.5t-41 -87.5q0 -49 32 -80.5t82 -31.5q56 0 91.5 37.5t35.5 97.5v259h-377v52h806v-52h-372v-180h4q44 62 136 62q67 0 115 -46t48 -119
q0 -82 -59.5 -129.5t-145.5 -36.5l-9 55q70 -10 111 21.5t41 87.5q0 50 -31.5 81t-81.5 31q-57 0 -92.5 -37t-35.5 -98v-274h-57v186zM212 -22q0 18 11.5 29.5t29.5 11.5t29.5 -11.5t11.5 -29.5t-11.5 -29.5t-29.5 -11.5t-29.5 11.5t-11.5 29.5z" />
    <glyph glyph-name="uni0916093C094D0930" horiz-adv-x="780" 
d="M613 143q-52 -66 -201 -125l-239 -94l-50 53l228 68v4q-36 0 -72 10.5t-72.5 35t-66 61t-50.5 93t-28 125.5l52 18q25 -44 73 -44q54 0 54 64v170h-261v52h819v-52h-125v-582h-57v143h-4zM612 453h4v129h-317v-169q0 -53 -30 -84t-75 -31q-38 0 -62 13q19 -105 87.5 -161
t163.5 -56t165.5 57.5t70.5 165.5q0 56 -30 87.5t-73 31.5q-44 0 -71 -26.5t-27 -69.5t30.5 -71.5t85.5 -30.5l-31 -47q-57 2 -100 42.5t-43 106.5t44 108.5t107 42.5q65 0 101 -38zM457 -61q0 18 11.5 29.5t29.5 11.5t29.5 -11.5t11.5 -29.5t-11.5 -29.5t-29.5 -11.5
t-29.5 11.5t-11.5 29.5z" />
    <glyph glyph-name="uni0917093C094D0930" horiz-adv-x="544" 
d="M381 0v185h-4l-243 -200l-56 37l303 234v326h-196v-347h-67q-46 40 -48 109l57 40v198h-147v52h583v-52h-124v-582h-58zM250 -36q0 18 11.5 29.5t29.5 11.5t29.5 -11.5t11.5 -29.5t-11.5 -29.5t-29.5 -11.5t-29.5 11.5t-11.5 29.5z" />
    </font>
</defs>
</svg>
